SplineFontDB: 3.2
FontName: KoreeneSans-BlackItalic
FullName: Koreene Sans Black Italic
FamilyName: Koreene Sans Black
Weight: Black
Copyright: (C) Copyright HanYang I&C Co.,Ltd. All rights reserved.
Version: 2.50; ttfautohint (v1.8.4.7-5d5b-dirty)
ItalicAngle: 0
UnderlinePosition: -122
UnderlineWidth: 45
Ascent: 819
Descent: 205
InvalidEm: 0
sfntRevision: 0x00020147
LayerCount: 2
Layer: 0 1 "Back" 1
Layer: 1 1 "Fore" 0
XUID: [1021 531 -1996577725 4089379]
StyleMap: 0x0001
FSType: 0
OS2Version: 4
OS2_WeightWidthSlopeOnly: 0
OS2_UseTypoMetrics: 1
CreationTime: 1068260456
ModificationTime: 1706914284
PfmFamily: 81
TTFWeight: 900
TTFWidth: 5
LineGap: 256
VLineGap: 0
Panose: 0 0 0 0 0 0 0 0 0 0
OS2TypoAscent: 970
OS2TypoAOffset: 0
OS2TypoDescent: -235
OS2TypoDOffset: 0
OS2TypoLinegap: 256
OS2WinAscent: 1098
OS2WinAOffset: 0
OS2WinDescent: 363
OS2WinDOffset: 0
HheadAscent: 970
HheadAOffset: 0
HheadDescent: -235
HheadDOffset: 0
OS2SubXSize: 205
OS2SubYSize: 205
OS2SubXOff: 0
OS2SubYOff: 287
OS2SupXSize: 205
OS2SupYSize: 205
OS2SupXOff: 0
OS2SupYOff: 963
OS2StrikeYSize: 102
OS2StrikeYPos: 512
OS2CapHeight: 735
OS2XHeight: 540
OS2Vendor: 'HY  '
OS2CodePages: 2000019f.00000000
OS2UnicodeRanges: e10002ff.4000001b.00000000.00000000
Lookup: 1 0 0 "'aalt' Access All Alternates lookup 0" { "'aalt' Access All Alternates lookup 0 subtable"  } ['aalt' ('DFLT' <'dflt' > 'cyrl' <'dflt' > 'grek' <'dflt' > 'hang' <'dflt' > 'jamo' <'dflt' > 'latn' <'dflt' > ) ]
Lookup: 3 0 0 "'aalt' Access All Alternates lookup 1" { "'aalt' Access All Alternates lookup 1 subtable"  } ['aalt' ('DFLT' <'dflt' > 'cyrl' <'dflt' > 'grek' <'dflt' > 'hang' <'dflt' > 'jamo' <'dflt' > 'latn' <'dflt' > ) ]
Lookup: 1 0 0 "'locl' Localized Forms in Latin lookup 2" { "'locl' Localized Forms in Latin lookup 2 subtable"  } ['locl' ('latn' <'MOL ' > ) ]
Lookup: 1 0 0 "'locl' Localized Forms in Latin lookup 3" { "'locl' Localized Forms in Latin lookup 3 subtable"  } ['locl' ('latn' <'ROM ' > ) ]

StartChar: exclam
Encoding: 33 33 4
Width: 295
GlyphClass: 2
Flags: W
LayerCount: 2
Fore
SplineSet
13 -2 m 1,0,-1
 39 156 l 1,1,-1
 213 156 l 1,2,-1
 187 -2 l 1,3,-1
 13 -2 l 1,0,-1
205 211 m 1,4,-1
 67 211 l 1,5,-1
 146 741 l 1,6,-1
 299 741 l 1,7,-1
 205 211 l 1,4,-1
EndSplineSet
EndChar

StartChar: quotedbl
Encoding: 34 34 5
Width: 575
GlyphClass: 2
Flags: W
LayerCount: 2
Fore
SplineSet
330 503 m 1,0,-1
 474 812 l 1,1,-1
 622 812 l 1,2,-1
 443 503 l 1,3,-1
 330 503 l 1,0,-1
96 503 m 1,4,-1
 242 812 l 1,5,-1
 390 812 l 1,6,-1
 210 503 l 1,7,-1
 96 503 l 1,4,-1
EndSplineSet
EndChar

StartChar: numbersign
Encoding: 35 35 6
Width: 725
GlyphClass: 2
Flags: W
LayerCount: 2
Fore
SplineSet
28 172 m 1,0,-1
 46 284 l 1,1,-1
 162 284 l 1,2,-1
 205 433 l 1,3,-1
 100 433 l 1,4,-1
 119 544 l 1,5,-1
 238 544 l 1,6,-1
 290 717 l 1,7,-1
 419 717 l 1,8,-1
 369 544 l 1,9,-1
 493 544 l 1,10,-1
 543 717 l 1,11,-1
 673 717 l 1,12,-1
 623 544 l 1,13,-1
 724 544 l 1,14,-1
 705 433 l 1,15,-1
 590 433 l 1,16,-1
 547 284 l 1,17,-1
 652 284 l 1,18,-1
 634 172 l 1,19,-1
 514 172 l 1,20,-1
 464 3 l 1,21,-1
 334 3 l 1,22,-1
 385 172 l 1,23,-1
 259 172 l 1,24,-1
 209 3 l 1,25,-1
 79 3 l 1,26,-1
 130 172 l 1,27,-1
 28 172 l 1,0,-1
292 284 m 1,28,-1
 417 284 l 1,29,-1
 461 433 l 1,30,-1
 335 433 l 1,31,-1
 292 284 l 1,28,-1
EndSplineSet
EndChar

StartChar: dollar
Encoding: 36 36 7
Width: 564
GlyphClass: 2
Flags: W
LayerCount: 2
Fore
SplineSet
11 165 m 1,0,-1
 125 215 l 1,1,2
 166 123 166 123 264 123 c 0,3,4
 301 123 301 123 331.5 146.5 c 128,-1,5
 362 170 362 170 368 209 c 0,6,7
 373 237 373 237 358.5 256.5 c 128,-1,8
 344 276 344 276 323.5 286.5 c 128,-1,9
 303 297 303 297 257 318 c 128,-1,10
 211 339 211 339 178 359 c 0,11,12
 78 418 78 418 97 535 c 0,13,14
 103 572 103 572 123.5 608 c 128,-1,15
 144 644 144 644 189 678.5 c 128,-1,16
 234 713 234 713 293 726 c 1,17,-1
 307 807 l 1,18,-1
 439 807 l 1,19,-1
 425 724 l 1,20,21
 476 718 476 718 518 675 c 128,-1,22
 560 632 560 632 571 586 c 1,23,-1
 454 532 l 1,24,25
 418 610 418 610 340 610 c 0,26,27
 303 610 303 610 275 588.5 c 128,-1,28
 247 567 247 567 242 534 c 0,29,30
 239 517 239 517 243.5 503.5 c 128,-1,31
 248 490 248 490 256 481 c 128,-1,32
 264 472 264 472 282 462 c 128,-1,33
 300 452 300 452 317 445 c 128,-1,34
 334 438 334 438 363.5 425 c 128,-1,35
 393 412 393 412 418 400 c 0,36,37
 538 341 538 341 518 222 c 0,38,39
 504 139 504 139 447 82 c 128,-1,40
 390 25 390 25 307 7 c 1,41,-1
 294 -68 l 1,42,-1
 162 -68 l 1,43,-1
 175 9 l 1,44,45
 121 15 121 15 72.5 62 c 128,-1,46
 24 109 24 109 11 165 c 1,0,-1
EndSplineSet
EndChar

StartChar: percent
Encoding: 37 37 8
Width: 990
GlyphClass: 2
Flags: W
LayerCount: 2
Fore
SplineSet
646 175 m 0,0,1
 639 135 639 135 657 113 c 128,-1,2
 675 91 675 91 704 91 c 256,3,4
 733 91 733 91 757.5 113 c 128,-1,5
 782 135 782 135 788 175 c 0,6,7
 794 214 794 214 778 237 c 128,-1,8
 762 260 762 260 732 260 c 0,9,10
 701 260 701 260 676.5 237 c 128,-1,11
 652 214 652 214 646 175 c 0,0,1
230 559 m 256,12,13
 223 519 223 519 240.5 497 c 128,-1,14
 258 475 258 475 287 475 c 0,15,16
 317 475 317 475 341 497.5 c 128,-1,17
 365 520 365 520 372 559 c 0,18,19
 379 599 379 599 362.5 621.5 c 128,-1,20
 346 644 346 644 315 644 c 0,21,22
 284 644 284 644 260.5 621.5 c 128,-1,23
 237 599 237 599 230 559 c 256,12,13
124 -8 m 1,24,-1
 751 743 l 1,25,-1
 897 743 l 1,26,-1
 268 -8 l 1,27,-1
 124 -8 l 1,24,-1
514 175 m 0,28,29
 527 256 527 256 592 312 c 128,-1,30
 657 368 657 368 750 368 c 0,31,32
 840 368 840 368 887 312.5 c 128,-1,33
 934 257 934 257 921 175 c 0,34,35
 907 91 907 91 840.5 37.5 c 128,-1,36
 774 -16 774 -16 686 -16 c 0,37,38
 594 -16 594 -16 547 38.5 c 128,-1,39
 500 93 500 93 514 175 c 0,28,29
97 559 m 0,40,41
 110 640 110 640 175.5 695.5 c 128,-1,42
 241 751 241 751 333 751 c 0,43,44
 424 751 424 751 471 696 c 128,-1,45
 518 641 518 641 504 559 c 0,46,47
 490 476 490 476 424.5 421.5 c 128,-1,48
 359 367 359 367 269 367 c 0,49,50
 178 367 178 367 130.5 422 c 128,-1,51
 83 477 83 477 97 559 c 0,40,41
EndSplineSet
EndChar

StartChar: ampersand
Encoding: 38 38 9
Width: 680
GlyphClass: 2
Flags: W
LayerCount: 2
Fore
SplineSet
166 203 m 0,0,1
 159 158 159 158 182.5 131.5 c 128,-1,2
 206 105 206 105 251 105 c 0,3,4
 308 105 308 105 365 152 c 1,5,-1
 256 331 l 1,6,7
 177 272 177 272 166 203 c 0,0,1
21 200 m 0,8,9
 43 332 43 332 205 431 c 1,10,11
 158 505 158 505 167 558 c 0,12,13
 180 638 180 638 242 684 c 128,-1,14
 304 730 304 730 395 730 c 0,15,16
 476 730 476 730 525 687.5 c 128,-1,17
 574 645 574 645 586 584 c 1,18,-1
 476 538 l 1,19,20
 446 608 446 608 388 608 c 0,21,22
 320 608 320 608 312 554 c 0,23,24
 310 542 310 542 315 524 c 128,-1,25
 320 506 320 506 336 476.5 c 128,-1,26
 352 447 352 447 365.5 423.5 c 128,-1,27
 379 400 379 400 408.5 352 c 128,-1,28
 438 304 438 304 455 276 c 1,29,30
 476 316 476 316 496 379 c 1,31,-1
 620 355 l 1,32,33
 601 295 601 295 572.5 241.5 c 128,-1,34
 544 188 544 188 522 160 c 1,35,-1
 622 0 l 1,36,-1
 452 0 l 1,37,-1
 423 48 l 1,38,39
 331 -17 331 -17 231 -17 c 0,40,41
 115 -17 115 -17 60.5 46 c 128,-1,42
 6 109 6 109 21 200 c 0,8,9
EndSplineSet
EndChar

StartChar: quotesingle
Encoding: 39 39 10
Width: 355
GlyphClass: 2
Flags: W
LayerCount: 2
Fore
SplineSet
115 503 m 1,0,-1
 259 812 l 1,1,-1
 408 812 l 1,2,-1
 228 503 l 1,3,-1
 115 503 l 1,0,-1
EndSplineSet
EndChar

StartChar: parenleft
Encoding: 40 40 11
Width: 420
GlyphClass: 2
Flags: W
LayerCount: 2
Fore
SplineSet
112 354 m 0,0,1
 157 624 157 624 360 852 c 1,2,-1
 454 790 l 1,3,4
 450 786 450 786 431.5 760 c 128,-1,5
 413 734 413 734 406.5 725.5 c 128,-1,6
 400 717 400 717 381.5 690.5 c 128,-1,7
 363 664 363 664 354.5 648.5 c 128,-1,8
 346 633 346 633 331 604.5 c 128,-1,9
 316 576 316 576 306.5 551.5 c 128,-1,10
 297 527 297 527 286 494.5 c 128,-1,11
 275 462 275 462 266.5 427 c 128,-1,12
 258 392 258 392 252 354 c 0,13,14
 230 222 230 222 245.5 123.5 c 128,-1,15
 261 25 261 25 310 -82 c 1,16,-1
 195 -144 l 1,17,18
 131 -26 131 -26 110 93.5 c 128,-1,19
 89 213 89 213 112 354 c 0,0,1
EndSplineSet
Substitution2: "'sups' Superscript lookup 5 subtable" uni207D
Substitution2: "'aalt' Access All Alternates lookup 0 subtable" uni207D
EndChar

StartChar: parenright
Encoding: 41 41 12
Width: 420
GlyphClass: 2
Flags: W
LayerCount: 2
Fore
SplineSet
-10 -82 m 1,0,1
 79 30 79 30 125.5 131 c 128,-1,2
 172 232 172 232 192 354 c 0,3,4
 215 495 215 495 198 590 c 128,-1,5
 181 685 181 685 135 790 c 1,6,-1
 249 852 l 1,7,8
 308 744 308 744 332.5 625.5 c 128,-1,9
 357 507 357 507 332 354 c 0,10,11
 308 208 308 208 245.5 89 c 128,-1,12
 183 -30 183 -30 84 -144 c 1,13,-1
 -10 -82 l 1,0,1
EndSplineSet
Substitution2: "'sups' Superscript lookup 5 subtable" uni207E
Substitution2: "'aalt' Access All Alternates lookup 0 subtable" uni207E
EndChar

StartChar: asterisk
Encoding: 42 42 13
Width: 542
GlyphClass: 2
Flags: W
LayerCount: 2
Fore
SplineSet
31 392 m 1,0,-1
 99 509 l 1,1,-1
 242 448 l 1,2,-1
 264 617 l 1,3,-1
 390 617 l 1,4,-1
 357 448 l 1,5,-1
 520 509 l 1,6,-1
 548 392 l 1,7,-1
 365 344 l 1,8,-1
 478 197 l 1,9,-1
 354 115 l 1,10,-1
 272 280 l 1,11,-1
 132 115 l 1,12,-1
 39 197 l 1,13,-1
 200 344 l 1,14,-1
 31 392 l 1,0,-1
EndSplineSet
EndChar

StartChar: plus
Encoding: 43 43 14
Width: 541
GlyphClass: 2
Flags: W
LayerCount: 2
Fore
SplineSet
26 298 m 1,0,-1
 47 425 l 1,1,-1
 223 425 l 1,2,-1
 254 610 l 1,3,-1
 394 610 l 1,4,-1
 364 425 l 1,5,-1
 541 425 l 1,6,-1
 520 298 l 1,7,-1
 343 298 l 1,8,-1
 311 106 l 1,9,-1
 171 106 l 1,10,-1
 202 298 l 1,11,-1
 26 298 l 1,0,-1
EndSplineSet
Substitution2: "'sups' Superscript lookup 5 subtable" uni207A
Substitution2: "'aalt' Access All Alternates lookup 0 subtable" uni207A
EndChar

StartChar: comma
Encoding: 44 44 15
Width: 275
GlyphClass: 2
Flags: W
LayerCount: 2
Fore
SplineSet
-71 -148 m 1,0,-1
 74 161 l 1,1,-1
 222 161 l 1,2,-1
 43 -148 l 1,3,-1
 -71 -148 l 1,0,-1
EndSplineSet
EndChar

StartChar: hyphen
Encoding: 45 45 16
Width: 376
GlyphClass: 2
Flags: W
LayerCount: 2
Fore
SplineSet
33 298 m 1,0,-1
 54 425 l 1,1,-1
 370 425 l 1,2,-1
 349 298 l 1,3,-1
 33 298 l 1,0,-1
EndSplineSet
EndChar

StartChar: period
Encoding: 46 46 17
Width: 275
GlyphClass: 2
Flags: W
LayerCount: 2
Fore
SplineSet
3 0 m 1,0,-1
 29 160 l 1,1,-1
 201 160 l 1,2,-1
 175 0 l 1,3,-1
 3 0 l 1,0,-1
EndSplineSet
EndChar

StartChar: slash
Encoding: 47 47 18
Width: 394
GlyphClass: 2
Flags: W
LayerCount: 2
Fore
SplineSet
-70 -52 m 1,0,-1
 345 783 l 1,1,-1
 492 783 l 1,2,-1
 76 -52 l 1,3,-1
 -70 -52 l 1,0,-1
EndSplineSet
EndChar

StartChar: zero
Encoding: 48 48 19
Width: 550
GlyphClass: 2
Flags: W
LayerCount: 2
Fore
SplineSet
196 367 m 0,0,1
 153 105 153 105 246 105 c 0,2,3
 337 105 337 105 380 367 c 0,4,5
 423 628 423 628 332 628 c 256,6,7
 239 628 239 628 196 367 c 0,0,1
46 367 m 0,8,9
 61 458 61 458 88.5 528 c 128,-1,10
 116 598 116 598 146.5 639 c 128,-1,11
 177 680 177 680 215.5 706 c 128,-1,12
 254 732 254 732 286.5 741.5 c 128,-1,13
 319 751 319 751 352 751 c 0,14,15
 471 751 471 751 517 648 c 128,-1,16
 563 545 563 545 533 367 c 0,17,18
 503 188 503 188 422.5 85.5 c 128,-1,19
 342 -17 342 -17 226 -17 c 0,20,21
 196 -17 196 -17 167 -9 c 128,-1,22
 138 -1 138 -1 108 24.5 c 128,-1,23
 78 50 78 50 59 90.5 c 128,-1,24
 40 131 40 131 35.5 202.5 c 128,-1,25
 31 274 31 274 46 367 c 0,8,9
EndSplineSet
EndChar

StartChar: one
Encoding: 49 49 20
Width: 550
GlyphClass: 2
Flags: W
LayerCount: 2
Fore
SplineSet
100 492 m 1,0,-1
 118 604 l 1,1,-1
 154 604 l 2,2,3
 234 604 234 604 275.5 638 c 128,-1,4
 317 672 317 672 325 723 c 2,5,-1
 328 739 l 1,6,-1
 456 739 l 1,7,-1
 333 -7 l 1,8,-1
 182 -7 l 1,9,-1
 264 492 l 1,10,-1
 100 492 l 1,0,-1
EndSplineSet
Substitution2: "'subs' Subscript lookup 6 subtable" uni2081
Substitution2: "'sups' Superscript lookup 5 subtable" onesuperior
Substitution2: "'sinf' Scientific Inferiors lookup 4 subtable" uni2081
AlternateSubs2: "'aalt' Access All Alternates lookup 1 subtable" uni2081 onesuperior
EndChar

StartChar: two
Encoding: 50 50 21
Width: 550
GlyphClass: 2
Flags: W
LayerCount: 2
Fore
SplineSet
81 544 m 1,0,1
 116 640 116 640 184.5 695.5 c 128,-1,2
 253 751 253 751 348 751 c 0,3,4
 448 751 448 751 502 692 c 128,-1,5
 556 633 556 633 540 534 c 0,6,7
 529 469 529 469 492 418 c 128,-1,8
 455 367 455 367 394 315 c 0,9,10
 384 306 384 306 338.5 268 c 128,-1,11
 293 230 293 230 259.5 196 c 128,-1,12
 226 162 226 162 197 122 c 1,13,-1
 468 122 l 1,14,-1
 448 0 l 1,15,-1
 0 0 l 1,16,17
 8 48 8 48 29.5 95 c 128,-1,18
 51 142 51 142 74.5 176.5 c 128,-1,19
 98 211 98 211 138 251.5 c 128,-1,20
 178 292 178 292 204 315 c 128,-1,21
 230 338 230 338 274 374 c 0,22,23
 286 384 286 384 292 389 c 0,24,25
 376 459 376 459 390 538 c 0,26,27
 397 580 397 580 379 604 c 128,-1,28
 361 628 361 628 326 628 c 0,29,30
 245 628 245 628 197 506 c 1,31,-1
 81 544 l 1,0,1
EndSplineSet
Substitution2: "'subs' Subscript lookup 6 subtable" uni2082
Substitution2: "'sups' Superscript lookup 5 subtable" twosuperior
Substitution2: "'sinf' Scientific Inferiors lookup 4 subtable" uni2082
AlternateSubs2: "'aalt' Access All Alternates lookup 1 subtable" uni2082 twosuperior
EndChar

StartChar: three
Encoding: 51 51 22
Width: 550
GlyphClass: 2
Flags: W
LayerCount: 2
Fore
SplineSet
4 162 m 1,0,-1
 128 205 l 1,1,2
 149 106 149 106 235 106 c 0,3,4
 278 106 278 106 312.5 135 c 128,-1,5
 347 164 347 164 356 214 c 0,6,7
 363 258 363 258 335.5 288.5 c 128,-1,8
 308 319 308 319 255 319 c 0,9,10
 220 319 220 319 183 316 c 1,11,-1
 203 437 l 1,12,13
 229 435 229 435 271 435 c 0,14,15
 310 435 310 435 343.5 461.5 c 128,-1,16
 377 488 377 488 385 536 c 0,17,18
 392 577 392 577 372 602.5 c 128,-1,19
 352 628 352 628 315 628 c 0,20,21
 245 628 245 628 199 527 c 1,22,-1
 86 564 l 1,23,24
 119 648 119 648 187 699.5 c 128,-1,25
 255 751 255 751 345 751 c 0,26,27
 448 751 448 751 500 694.5 c 128,-1,28
 552 638 552 638 538 550 c 0,29,30
 529 496 529 496 496.5 452.5 c 128,-1,31
 464 409 464 409 421 386 c 1,32,33
 464 368 464 368 491 323 c 128,-1,34
 518 278 518 278 508 214 c 0,35,36
 490 107 490 107 411 45.5 c 128,-1,37
 332 -16 332 -16 217 -16 c 0,38,39
 123 -16 123 -16 66 36 c 128,-1,40
 9 88 9 88 4 162 c 1,0,-1
EndSplineSet
Substitution2: "'subs' Subscript lookup 6 subtable" uni2083
Substitution2: "'sups' Superscript lookup 5 subtable" threesuperior
Substitution2: "'sinf' Scientific Inferiors lookup 4 subtable" uni2083
AlternateSubs2: "'aalt' Access All Alternates lookup 1 subtable" uni2083 threesuperior
EndChar

StartChar: four
Encoding: 52 52 23
Width: 550
GlyphClass: 2
Flags: W
LayerCount: 2
Fore
SplineSet
19 266 m 1,0,-1
 405 739 l 1,1,-1
 528 739 l 1,2,-1
 450 267 l 1,3,-1
 529 267 l 1,4,-1
 509 145 l 1,5,-1
 430 145 l 1,6,-1
 405 -4 l 1,7,-1
 260 -4 l 1,8,-1
 285 145 l 1,9,-1
 -1 145 l 1,10,-1
 19 266 l 1,0,-1
155 267 m 1,11,-1
 305 267 l 1,12,-1
 332 429 l 2,13,14
 339 474 339 474 350 514 c 1,15,-1
 346 514 l 1,16,17
 315 471 315 471 293 442 c 2,18,-1
 155 267 l 1,11,-1
EndSplineSet
Substitution2: "'subs' Subscript lookup 6 subtable" uni2084
Substitution2: "'sups' Superscript lookup 5 subtable" uni2074
Substitution2: "'sinf' Scientific Inferiors lookup 4 subtable" uni2084
AlternateSubs2: "'aalt' Access All Alternates lookup 1 subtable" uni2084 uni2074
EndChar

StartChar: five
Encoding: 53 53 24
Width: 550
GlyphClass: 2
Flags: W
LayerCount: 2
Fore
SplineSet
10 147 m 1,0,-1
 138 191 l 1,1,2
 146 155 146 155 169.5 130.5 c 128,-1,3
 193 106 193 106 225 106 c 0,4,5
 273 106 273 106 308 140 c 128,-1,6
 343 174 343 174 353 234 c 0,7,8
 362 290 362 290 337.5 326.5 c 128,-1,9
 313 363 313 363 268 363 c 0,10,11
 206 363 206 363 152 294 c 1,12,-1
 65 330 l 1,13,-1
 170 735 l 1,14,-1
 549 735 l 1,15,-1
 529 612 l 1,16,-1
 284 612 l 1,17,-1
 240 456 l 1,18,19
 282 484 282 484 338 484 c 0,20,21
 430 484 430 484 476.5 417 c 128,-1,22
 523 350 523 350 504 237 c 0,23,24
 496 189 496 189 475 146 c 128,-1,25
 454 103 454 103 419 66 c 128,-1,26
 384 29 384 29 330.5 6.5 c 128,-1,27
 277 -16 277 -16 212 -16 c 0,28,29
 125 -16 125 -16 74.5 29 c 128,-1,30
 24 74 24 74 10 147 c 1,0,-1
EndSplineSet
EndChar

StartChar: six
Encoding: 54 54 25
Width: 550
GlyphClass: 2
Flags: W
LayerCount: 2
Fore
SplineSet
178 238 m 0,0,1
 167 174 167 174 188 140 c 128,-1,2
 209 106 209 106 250 106 c 0,3,4
 290 106 290 106 320.5 139.5 c 128,-1,5
 351 173 351 173 362 238 c 256,6,7
 373 303 373 303 353.5 336 c 128,-1,8
 334 369 334 369 293 369 c 0,9,10
 251 369 251 369 219.5 335 c 128,-1,11
 188 301 188 301 178 238 c 0,0,1
45 337 m 0,12,13
 64 454 64 454 105.5 544.5 c 128,-1,14
 147 635 147 635 218 693 c 128,-1,15
 289 751 289 751 377 751 c 0,16,17
 532 751 532 751 567 587 c 1,18,-1
 446 547 l 1,19,20
 420 628 420 628 358 628 c 0,21,22
 288 628 288 628 240 523 c 0,23,24
 220 482 220 482 211 442 c 1,25,26
 261 491 261 491 333 491 c 0,27,28
 431 491 431 491 480.5 420 c 128,-1,29
 530 349 530 349 512 239 c 0,30,31
 493 127 493 127 418.5 55.5 c 128,-1,32
 344 -16 344 -16 232 -16 c 0,33,34
 179 -16 179 -16 136.5 4.5 c 128,-1,35
 94 25 94 25 72 63 c 0,36,37
 15 155 15 155 45 337 c 0,12,13
EndSplineSet
EndChar

StartChar: seven
Encoding: 55 55 26
Width: 550
GlyphClass: 2
Flags: W
LayerCount: 2
Fore
SplineSet
97 608 m 1,0,-1
 118 735 l 1,1,-1
 585 735 l 1,2,-1
 568 634 l 1,3,4
 368 384 368 384 217 -4 c 1,5,-1
 66 -4 l 1,6,7
 175 312 175 312 393 608 c 1,8,-1
 97 608 l 1,0,-1
EndSplineSet
EndChar

StartChar: eight
Encoding: 56 56 27
Width: 550
GlyphClass: 2
Flags: W
LayerCount: 2
Fore
SplineSet
243 537 m 0,0,1
 236 495 236 495 252.5 469 c 128,-1,2
 269 443 269 443 302 443 c 256,3,4
 335 443 335 443 359.5 469.5 c 128,-1,5
 384 496 384 496 391 537 c 0,6,7
 397 575 397 575 382 601.5 c 128,-1,8
 367 628 367 628 333 628 c 256,9,10
 299 628 299 628 274 602 c 128,-1,11
 249 576 249 576 243 537 c 0,0,1
17 206 m 0,12,13
 25 255 25 255 53.5 295 c 128,-1,14
 82 335 82 335 108 353.5 c 128,-1,15
 134 372 134 372 163 385 c 1,16,17
 77 445 77 445 93 543 c 0,18,19
 108 634 108 634 182.5 692.5 c 128,-1,20
 257 751 257 751 353 751 c 0,21,22
 450 751 450 751 504 692.5 c 128,-1,23
 558 634 558 634 543 543 c 0,24,25
 527 445 527 445 420 385 c 1,26,27
 465 362 465 362 492.5 317.5 c 128,-1,28
 520 273 520 273 509 206 c 0,29,30
 492 106 492 106 413.5 45 c 128,-1,31
 335 -16 335 -16 226 -16 c 0,32,33
 124 -16 124 -16 61.5 42 c 128,-1,34
 -1 100 -1 100 17 206 c 0,12,13
168 214 m 0,35,36
 160 168 160 168 181.5 137 c 128,-1,37
 203 106 203 106 246 106 c 0,38,39
 288 106 288 106 319.5 137 c 128,-1,40
 351 168 351 168 358 214 c 0,41,42
 365 256 365 256 345 289 c 128,-1,43
 325 322 325 322 282 322 c 256,44,45
 239 322 239 322 207 290 c 128,-1,46
 175 258 175 258 168 214 c 0,35,36
EndSplineSet
EndChar

StartChar: nine
Encoding: 57 57 28
Width: 550
GlyphClass: 2
Flags: W
LayerCount: 2
Fore
SplineSet
216 500 m 0,0,1
 206 441 206 441 223.5 406.5 c 128,-1,2
 241 372 241 372 284 372 c 0,3,4
 325 372 325 372 354.5 407 c 128,-1,5
 384 442 384 442 394 501 c 0,6,7
 403 556 403 556 385.5 592 c 128,-1,8
 368 628 368 628 326 628 c 256,9,10
 284 628 284 628 254.5 591.5 c 128,-1,11
 225 555 225 555 216 500 c 0,0,1
5 146 m 1,12,-1
 129 185 l 1,13,14
 157 106 157 106 216 106 c 0,15,16
 247 106 247 106 274 124.5 c 128,-1,17
 301 143 301 143 318.5 173.5 c 128,-1,18
 336 204 336 204 347.5 235 c 128,-1,19
 359 266 359 266 367 299 c 1,20,21
 314 249 314 249 243 249 c 0,22,23
 151 249 151 249 100.5 317.5 c 128,-1,24
 50 386 50 386 68 499 c 0,25,26
 86 610 86 610 163 680.5 c 128,-1,27
 240 751 240 751 345 751 c 0,28,29
 433 751 433 751 482.5 694 c 128,-1,30
 532 637 532 637 538 542 c 0,31,32
 541 479 541 479 528 400 c 0,33,34
 494 197 494 197 409.5 90.5 c 128,-1,35
 325 -16 325 -16 195 -16 c 0,36,37
 116 -16 116 -16 66 33.5 c 128,-1,38
 16 83 16 83 5 146 c 1,12,-1
EndSplineSet
EndChar

StartChar: colon
Encoding: 58 58 29
Width: 275
GlyphClass: 2
Flags: W
LayerCount: 2
Fore
SplineSet
3 0 m 1,0,-1
 29 162 l 1,1,-1
 202 162 l 1,2,-1
 175 0 l 1,3,-1
 3 0 l 1,0,-1
68 396 m 1,4,-1
 95 559 l 1,5,-1
 268 559 l 1,6,-1
 241 396 l 1,7,-1
 68 396 l 1,4,-1
EndSplineSet
EndChar

StartChar: semicolon
Encoding: 59 59 30
Width: 275
GlyphClass: 2
Flags: W
LayerCount: 2
Fore
SplineSet
-71 -147 m 1,0,-1
 74 162 l 1,1,-1
 222 162 l 1,2,-1
 43 -147 l 1,3,-1
 -71 -147 l 1,0,-1
80 396 m 1,4,-1
 107 559 l 1,5,-1
 280 559 l 1,6,-1
 253 396 l 1,7,-1
 80 396 l 1,4,-1
EndSplineSet
EndChar

StartChar: less
Encoding: 60 60 31
Width: 539
GlyphClass: 2
Flags: W
LayerCount: 2
Fore
SplineSet
30 290 m 1,0,-1
 52 423 l 1,1,-1
 495 723 l 1,2,-1
 554 616 l 1,3,-1
 179 357 l 1,4,-1
 468 98 l 1,5,-1
 373 -11 l 1,6,-1
 30 290 l 1,0,-1
EndSplineSet
EndChar

StartChar: equal
Encoding: 61 61 32
Width: 538
GlyphClass: 2
Flags: W
LayerCount: 2
Fore
SplineSet
29 193 m 1,0,-1
 49 319 l 1,1,-1
 501 319 l 1,2,-1
 480 193 l 1,3,-1
 29 193 l 1,0,-1
64 404 m 1,4,-1
 85 531 l 1,5,-1
 536 531 l 1,6,-1
 515 404 l 1,7,-1
 64 404 l 1,4,-1
EndSplineSet
Substitution2: "'sups' Superscript lookup 5 subtable" uni207C
Substitution2: "'aalt' Access All Alternates lookup 0 subtable" uni207C
EndChar

StartChar: greater
Encoding: 62 62 33
Width: 539
GlyphClass: 2
Flags: W
LayerCount: 2
Fore
SplineSet
69 -11 m 1,0,-1
 10 98 l 1,1,-1
 383 357 l 1,2,-1
 96 616 l 1,3,-1
 190 723 l 1,4,-1
 533 423 l 1,5,-1
 511 290 l 1,6,-1
 69 -11 l 1,0,-1
EndSplineSet
EndChar

StartChar: question
Encoding: 63 63 34
Width: 562
GlyphClass: 2
Flags: W
LayerCount: 2
Fore
SplineSet
99 567 m 1,0,1
 131 645 131 645 201.5 701 c 128,-1,2
 272 757 272 757 366 757 c 0,3,4
 464 757 464 757 517.5 698 c 128,-1,5
 571 639 571 639 555 543 c 0,6,7
 548 499 548 499 526 464.5 c 128,-1,8
 504 430 504 430 476.5 406.5 c 128,-1,9
 449 383 449 383 422 361.5 c 128,-1,10
 395 340 395 340 374 311 c 128,-1,11
 353 282 353 282 347 246 c 2,12,-1
 341 210 l 1,13,-1
 193 210 l 1,14,-1
 201 258 l 2,15,16
 207 295 207 295 224.5 327 c 128,-1,17
 242 359 242 359 263 379.5 c 128,-1,18
 284 400 284 400 307 421 c 128,-1,19
 330 442 330 442 350.5 459.5 c 128,-1,20
 371 477 371 477 386 500.5 c 128,-1,21
 401 524 401 524 406 550 c 0,22,23
 412 586 412 586 396 608 c 128,-1,24
 380 630 380 630 347 630 c 0,25,26
 276 630 276 630 222 524 c 1,27,-1
 99 567 l 1,0,1
146 -2 m 1,28,-1
 172 156 l 1,29,-1
 346 156 l 1,30,-1
 320 -2 l 1,31,-1
 146 -2 l 1,28,-1
EndSplineSet
EndChar

StartChar: at
Encoding: 64 64 35
Width: 902
GlyphClass: 2
Flags: W
LayerCount: 2
Fore
SplineSet
49 345 m 0,0,1
 80 532 80 532 221 653.5 c 128,-1,2
 362 775 362 775 551 775 c 0,3,4
 723 775 723 775 816.5 667 c 128,-1,5
 910 559 910 559 883 398 c 0,6,7
 870 321 870 321 839.5 263 c 128,-1,8
 809 205 809 205 769.5 173.5 c 128,-1,9
 730 142 730 142 690.5 127 c 128,-1,10
 651 112 651 112 612 112 c 256,11,12
 574 112 574 112 549 132 c 128,-1,13
 524 152 524 152 519 183 c 1,14,-1
 518 183 l 1,15,16
 502 156 502 156 463.5 134.5 c 128,-1,17
 425 113 425 113 384 113 c 0,18,19
 313 113 313 113 273 169 c 128,-1,20
 233 225 233 225 248 316 c 0,21,22
 268 438 268 438 339.5 506.5 c 128,-1,23
 411 575 411 575 495 575 c 0,24,25
 522 575 522 575 544.5 563 c 128,-1,26
 567 551 567 551 577 537 c 1,27,-1
 584 569 l 1,28,-1
 691 569 l 1,29,-1
 625 268 l 2,30,31
 624 264 624 264 624 261 c 0,32,33
 617 220 617 220 639 220 c 0,34,35
 672 220 672 220 709 266.5 c 128,-1,36
 746 313 746 313 759 392 c 0,37,38
 779 515 779 515 717.5 592.5 c 128,-1,39
 656 670 656 670 532 670 c 0,40,41
 398 670 398 670 297.5 577 c 128,-1,42
 197 484 197 484 174 345 c 0,43,44
 149 196 149 196 217.5 109 c 128,-1,45
 286 22 286 22 418 22 c 0,46,47
 518 22 518 22 619 50 c 1,48,-1
 623 -47 l 1,49,50
 524 -82 524 -82 401 -82 c 0,51,52
 208 -82 208 -82 112.5 36 c 128,-1,53
 17 154 17 154 49 345 c 0,0,1
380 318 m 0,54,55
 374 284 374 284 384.5 256 c 128,-1,56
 395 228 395 228 423 228 c 0,57,58
 455 228 455 228 486.5 268 c 128,-1,59
 518 308 518 308 533 398 c 0,60,61
 539 432 539 432 527.5 450 c 128,-1,62
 516 468 516 468 490 468 c 0,63,64
 459 468 459 468 425 425.5 c 128,-1,65
 391 383 391 383 380 318 c 0,54,55
EndSplineSet
EndChar

StartChar: A
Encoding: 65 65 36
Width: 657
GlyphClass: 2
Flags: W
LayerCount: 2
Fore
SplineSet
237 284 m 1,0,-1
 419 284 l 1,1,-1
 399 440 l 2,2,3
 388 533 388 533 381 590 c 1,4,-1
 376 590 l 1,5,6
 343 512 343 512 310 440 c 2,7,-1
 237 284 l 1,0,-1
-51 0 m 1,8,-1
 326 735 l 1,9,-1
 482 735 l 1,10,-1
 614 0 l 1,11,-1
 460 0 l 1,12,-1
 436 164 l 1,13,-1
 182 164 l 1,14,-1
 103 0 l 1,15,-1
 -51 0 l 1,8,-1
EndSplineSet
Substitution2: "Single Substitution lookup 12 subtable" ordfeminine
EndChar

StartChar: B
Encoding: 66 66 37
Width: 639
GlyphClass: 2
Flags: W
LayerCount: 2
Fore
SplineSet
18 0 m 1,0,-1
 139 735 l 1,1,-1
 418 735 l 2,2,3
 540 735 540 735 589.5 682.5 c 128,-1,4
 639 630 639 630 624 538 c 0,5,6
 616 488 616 488 587.5 450 c 128,-1,7
 559 412 559 412 519 390 c 1,8,9
 556 373 556 373 582 328.5 c 128,-1,10
 608 284 608 284 597 219 c 0,11,12
 581 123 581 123 510 61.5 c 128,-1,13
 439 0 439 0 331 0 c 2,14,-1
 18 0 l 1,0,-1
185 127 m 1,15,-1
 332 127 l 2,16,17
 370 127 370 127 403 150.5 c 128,-1,18
 436 174 436 174 444 219 c 0,19,20
 451 260 451 260 429.5 287.5 c 128,-1,21
 408 315 408 315 359 315 c 2,22,-1
 216 315 l 1,23,-1
 185 127 l 1,15,-1
237 441 m 1,24,-1
 358 441 l 2,25,26
 402 441 402 441 432.5 462.5 c 128,-1,27
 463 484 463 484 470 526 c 0,28,29
 483 607 483 607 388 607 c 2,30,-1
 264 607 l 1,31,-1
 237 441 l 1,24,-1
EndSplineSet
EndChar

StartChar: C
Encoding: 67 67 38
Width: 654
GlyphClass: 2
Flags: W
LayerCount: 2
Fore
SplineSet
43 368 m 0,0,1
 72 543 72 543 180.5 647 c 128,-1,2
 289 751 289 751 432 751 c 0,3,4
 528 751 528 751 588.5 697.5 c 128,-1,5
 649 644 649 644 668 564 c 1,6,-1
 536 522 l 1,7,8
 519 567 519 567 491 595 c 128,-1,9
 463 623 463 623 410 623 c 0,10,11
 331 623 331 623 272 553.5 c 128,-1,12
 213 484 213 484 194 368 c 0,13,14
 174 250 174 250 210 180.5 c 128,-1,15
 246 111 246 111 325 111 c 0,16,17
 378 111 378 111 426 146 c 128,-1,18
 474 181 474 181 499 231 c 1,19,-1
 624 188 l 1,20,21
 609 162 609 162 590 135.5 c 128,-1,22
 571 109 571 109 541 81 c 128,-1,23
 511 53 511 53 477.5 32 c 128,-1,24
 444 11 444 11 399 -2.5 c 128,-1,25
 354 -16 354 -16 305 -16 c 0,26,27
 165 -16 165 -16 89 86 c 128,-1,28
 13 188 13 188 43 368 c 0,0,1
EndSplineSet
EndChar

StartChar: D
Encoding: 68 68 39
Width: 662
GlyphClass: 2
Flags: W
LayerCount: 2
Fore
SplineSet
18 0 m 1,0,-1
 139 735 l 1,1,-1
 365 735 l 2,2,3
 533 735 533 735 605 639.5 c 128,-1,4
 677 544 677 544 648 368 c 0,5,6
 639 311 639 311 621.5 262 c 128,-1,7
 604 213 604 213 571 163.5 c 128,-1,8
 538 114 538 114 495 79 c 128,-1,9
 452 44 452 44 386.5 22 c 128,-1,10
 321 0 321 0 243 0 c 2,11,-1
 18 0 l 1,0,-1
184 126 m 1,12,-1
 249 126 l 2,13,14
 352 126 352 126 412.5 183.5 c 128,-1,15
 473 241 473 241 494 368 c 0,16,17
 516 499 516 499 472.5 553.5 c 128,-1,18
 429 608 429 608 331 608 c 2,19,-1
 264 608 l 1,20,-1
 184 126 l 1,12,-1
EndSplineSet
EndChar

StartChar: E
Encoding: 69 69 40
Width: 581
GlyphClass: 2
Flags: W
LayerCount: 2
Fore
SplineSet
18 0 m 1,0,-1
 139 735 l 1,1,-1
 625 735 l 1,2,-1
 604 607 l 1,3,-1
 264 607 l 1,4,-1
 237 442 l 1,5,-1
 543 442 l 1,6,-1
 522 317 l 1,7,-1
 216 317 l 1,8,-1
 185 127 l 1,9,-1
 535 127 l 1,10,-1
 513 0 l 1,11,-1
 18 0 l 1,0,-1
EndSplineSet
EndChar

StartChar: F
Encoding: 70 70 41
Width: 547
GlyphClass: 2
Flags: W
LayerCount: 2
Fore
SplineSet
18 0 m 1,0,-1
 139 735 l 1,1,-1
 612 735 l 1,2,-1
 590 607 l 1,3,-1
 264 607 l 1,4,-1
 235 431 l 1,5,-1
 527 431 l 1,6,-1
 506 304 l 1,7,-1
 214 304 l 1,8,-1
 164 0 l 1,9,-1
 18 0 l 1,0,-1
EndSplineSet
EndChar

StartChar: G
Encoding: 71 71 42
Width: 687
GlyphClass: 2
Flags: W
LayerCount: 2
Fore
SplineSet
43 368 m 0,0,1
 71 536 71 536 179 643.5 c 128,-1,2
 287 751 287 751 439 751 c 0,3,4
 498 751 498 751 544.5 731 c 128,-1,5
 591 711 591 711 618 678.5 c 128,-1,6
 645 646 645 646 659.5 618 c 128,-1,7
 674 590 674 590 680 564 c 1,8,-1
 547 523 l 1,9,10
 537 545 537 545 529 557.5 c 128,-1,11
 521 570 521 570 506 588 c 128,-1,12
 491 606 491 606 469 614.5 c 128,-1,13
 447 623 447 623 418 623 c 0,14,15
 332 623 332 623 272.5 554 c 128,-1,16
 213 485 213 485 194 368 c 256,17,18
 175 251 175 251 213 181 c 128,-1,19
 251 111 251 111 328 111 c 0,20,21
 393 111 393 111 436.5 145 c 128,-1,22
 480 179 480 179 498 237 c 0,23,24
 505 260 505 260 510 292 c 1,25,-1
 350 292 l 1,26,-1
 371 419 l 1,27,-1
 673 419 l 1,28,-1
 603 0 l 1,29,-1
 503 0 l 1,30,-1
 500 56 l 1,31,32
 429 -16 429 -16 302 -16 c 0,33,34
 166 -16 166 -16 90 88.5 c 128,-1,35
 14 193 14 193 43 368 c 0,0,1
EndSplineSet
EndChar

StartChar: H
Encoding: 72 72 43
Width: 671
GlyphClass: 2
Flags: W
LayerCount: 2
Fore
SplineSet
18 0 m 1,0,-1
 139 735 l 1,1,-1
 284 735 l 1,2,-1
 236 441 l 1,3,-1
 488 441 l 1,4,-1
 537 735 l 1,5,-1
 682 735 l 1,6,-1
 561 0 l 1,7,-1
 415 0 l 1,8,-1
 467 314 l 1,9,-1
 215 314 l 1,10,-1
 163 0 l 1,11,-1
 18 0 l 1,0,-1
EndSplineSet
EndChar

StartChar: I
Encoding: 73 73 44
Width: 274
GlyphClass: 2
Flags: W
LayerCount: 2
Fore
SplineSet
18 0 m 1,0,-1
 139 735 l 1,1,-1
 285 735 l 1,2,-1
 164 0 l 1,3,-1
 18 0 l 1,0,-1
EndSplineSet
EndChar

StartChar: J
Encoding: 74 74 45
Width: 507
GlyphClass: 2
Flags: W
LayerCount: 2
Fore
SplineSet
-17 148 m 1,0,-1
 110 197 l 1,1,2
 112 164 112 164 131.5 137.5 c 128,-1,3
 151 111 151 111 187 111 c 0,4,5
 268 111 268 111 288 232 c 2,6,-1
 371 735 l 1,7,-1
 518 735 l 1,8,-1
 432 214 l 2,9,10
 414 106 414 106 344.5 45 c 128,-1,11
 275 -16 275 -16 168 -16 c 0,12,13
 81 -16 81 -16 35.5 33.5 c 128,-1,14
 -10 83 -10 83 -17 148 c 1,0,-1
EndSplineSet
EndChar

StartChar: K
Encoding: 75 75 46
Width: 642
GlyphClass: 2
Flags: W
LayerCount: 2
Fore
SplineSet
18 0 m 1,0,-1
 139 735 l 1,1,-1
 285 735 l 1,2,-1
 236 437 l 1,3,-1
 239 437 l 1,4,-1
 538 735 l 1,5,-1
 721 735 l 1,6,-1
 386 412 l 1,7,-1
 602 0 l 1,8,-1
 427 0 l 1,9,-1
 277 307 l 1,10,-1
 203 235 l 1,11,-1
 164 0 l 1,12,-1
 18 0 l 1,0,-1
EndSplineSet
EndChar

StartChar: L
Encoding: 76 76 47
Width: 536
GlyphClass: 2
Flags: W
LayerCount: 2
Fore
SplineSet
18 0 m 1,0,-1
 139 735 l 1,1,-1
 285 735 l 1,2,-1
 185 127 l 1,3,-1
 501 127 l 1,4,-1
 480 0 l 1,5,-1
 18 0 l 1,0,-1
EndSplineSet
EndChar

StartChar: M
Encoding: 77 77 48
Width: 814
GlyphClass: 2
Flags: W
LayerCount: 2
Fore
SplineSet
18 0 m 1,0,-1
 139 735 l 1,1,-1
 315 735 l 1,2,-1
 370 425 l 2,3,4
 377 389 377 389 385.5 323.5 c 128,-1,5
 394 258 394 258 397 236 c 1,6,-1
 401 236 l 1,7,8
 473 384 473 384 494 425 c 2,9,-1
 648 735 l 1,10,-1
 825 735 l 1,11,-1
 704 0 l 1,12,-1
 559 0 l 1,13,-1
 606 284 l 2,14,15
 618 354 618 354 659 513 c 1,16,-1
 654 513 l 1,17,-1
 562 321 l 1,18,-1
 417 34 l 1,19,-1
 315 34 l 1,20,-1
 267 321 l 1,21,-1
 236 515 l 1,22,-1
 231 515 l 1,23,24
 225 383 225 383 209 284 c 2,25,-1
 162 0 l 1,26,-1
 18 0 l 1,0,-1
EndSplineSet
EndChar

StartChar: N
Encoding: 78 78 49
Width: 676
GlyphClass: 2
Flags: W
LayerCount: 2
Fore
SplineSet
18 0 m 1,0,-1
 139 735 l 1,1,-1
 288 735 l 1,2,-1
 467 225 l 1,3,-1
 470 225 l 1,4,5
 473 324 473 324 492 440 c 2,6,-1
 541 735 l 1,7,-1
 687 735 l 1,8,-1
 565 0 l 1,9,-1
 417 0 l 1,10,-1
 287 351 l 1,11,-1
 236 506 l 1,12,-1
 232 506 l 1,13,14
 229 396 229 396 212 291 c 2,15,-1
 164 0 l 1,16,-1
 18 0 l 1,0,-1
EndSplineSet
EndChar

StartChar: O
Encoding: 79 79 50
Width: 688
GlyphClass: 2
Flags: W
LayerCount: 2
Fore
SplineSet
43 367 m 256,0,1
 72 540 72 540 176 645.5 c 128,-1,2
 280 751 280 751 422 751 c 0,3,4
 563 751 563 751 632.5 645.5 c 128,-1,5
 702 540 702 540 673 367 c 256,6,7
 644 194 644 194 540 89 c 128,-1,8
 436 -16 436 -16 295 -16 c 0,9,10
 152 -16 152 -16 83 89 c 128,-1,11
 14 194 14 194 43 367 c 256,0,1
195 367 m 0,12,13
 175 248 175 248 207 179.5 c 128,-1,14
 239 111 239 111 316 111 c 256,15,16
 393 111 393 111 447.5 180 c 128,-1,17
 502 249 502 249 521 367 c 256,18,19
 541 485 541 485 509.5 554 c 128,-1,20
 478 623 478 623 401 623 c 256,21,22
 324 623 324 623 269.5 554 c 128,-1,23
 215 485 215 485 195 367 c 0,12,13
EndSplineSet
Substitution2: "Single Substitution lookup 12 subtable" ordmasculine
EndChar

StartChar: P
Encoding: 80 80 51
Width: 624
GlyphClass: 2
Flags: W
LayerCount: 2
Fore
SplineSet
18 0 m 1,0,-1
 139 735 l 1,1,-1
 426 735 l 2,2,3
 545 735 545 735 599 671.5 c 128,-1,4
 653 608 653 608 636 504 c 0,5,6
 618 398 618 398 541 335.5 c 128,-1,7
 464 273 464 273 354 273 c 2,8,-1
 209 273 l 1,9,-1
 164 0 l 1,10,-1
 18 0 l 1,0,-1
230 401 m 1,11,-1
 354 401 l 2,12,13
 408 401 408 401 442.5 428 c 128,-1,14
 477 455 477 455 485 504 c 0,15,16
 502 607 502 607 390 607 c 2,17,-1
 264 607 l 1,18,-1
 230 401 l 1,11,-1
EndSplineSet
EndChar

StartChar: Q
Encoding: 81 81 52
Width: 688
GlyphClass: 2
Flags: W
LayerCount: 2
Fore
SplineSet
43 367 m 0,0,1
 72 540 72 540 176 645.5 c 128,-1,2
 280 751 280 751 422 751 c 0,3,4
 563 751 563 751 632.5 645.5 c 128,-1,5
 702 540 702 540 673 367 c 0,6,7
 646 205 646 205 553 103 c 1,8,-1
 616 21 l 1,9,-1
 524 -51 l 1,10,-1
 463 28 l 1,11,12
 387 -16 387 -16 295 -16 c 0,13,14
 152 -16 152 -16 83.5 89.5 c 128,-1,15
 15 195 15 195 43 367 c 0,0,1
302 236 m 1,16,-1
 394 310 l 1,17,-1
 469 212 l 1,18,19
 506 274 506 274 521 367 c 0,20,21
 541 485 541 485 509.5 554 c 128,-1,22
 478 623 478 623 401 623 c 256,23,24
 324 623 324 623 269 554 c 128,-1,25
 214 485 214 485 195 367 c 256,26,27
 175 249 175 249 207 180 c 128,-1,28
 239 111 239 111 316 111 c 0,29,30
 354 111 354 111 386 128 c 1,31,-1
 302 236 l 1,16,-1
EndSplineSet
EndChar

StartChar: R
Encoding: 82 82 53
Width: 650
GlyphClass: 2
Flags: W
LayerCount: 2
Fore
SplineSet
231 406 m 1,0,-1
 356 406 l 2,1,2
 469 406 469 406 486 510 c 0,3,4
 493 555 493 555 467.5 581 c 128,-1,5
 442 607 442 607 389 607 c 2,6,-1
 264 607 l 1,7,-1
 231 406 l 1,0,-1
18 0 m 1,8,-1
 139 735 l 1,9,-1
 437 735 l 2,10,11
 552 735 552 735 603.5 675 c 128,-1,12
 655 615 655 615 639 522 c 0,13,14
 627 447 627 447 589.5 400.5 c 128,-1,15
 552 354 552 354 508 336 c 1,16,17
 535 311 535 311 544 286.5 c 128,-1,18
 553 262 553 262 553 207 c 0,19,20
 555 107 555 107 601 0 c 1,21,-1
 437 0 l 1,22,23
 401 83 401 83 397 197 c 0,24,25
 395 240 395 240 383 259.5 c 128,-1,26
 371 279 371 279 337 279 c 2,27,-1
 210 279 l 1,28,-1
 164 0 l 1,29,-1
 18 0 l 1,8,-1
EndSplineSet
EndChar

StartChar: S
Encoding: 83 83 54
Width: 593
GlyphClass: 2
Flags: W
LayerCount: 2
Fore
SplineSet
-5 168 m 1,0,-1
 129 212 l 1,1,2
 145 169 145 169 187.5 140 c 128,-1,3
 230 111 230 111 281 111 c 0,4,5
 331 111 331 111 365.5 136 c 128,-1,6
 400 161 400 161 406 198 c 0,7,8
 413 241 413 241 383 267 c 128,-1,9
 353 293 353 293 290 316 c 0,10,11
 192 351 192 351 160 370 c 0,12,13
 65 428 65 428 84 542 c 0,14,15
 99 635 99 635 181.5 693 c 128,-1,16
 264 751 264 751 379 751 c 0,17,18
 477 751 477 751 537.5 704 c 128,-1,19
 598 657 598 657 619 582 c 1,20,-1
 488 541 l 1,21,22
 444 623 444 623 357 623 c 0,23,24
 307 623 307 623 274 601 c 128,-1,25
 241 579 241 579 235 543 c 0,26,27
 233 528 233 528 235 515.5 c 128,-1,28
 237 503 237 503 248 492 c 128,-1,29
 259 481 259 481 267 474 c 128,-1,30
 275 467 275 467 296 458 c 128,-1,31
 317 449 317 449 327.5 445 c 128,-1,32
 338 441 338 441 366 432 c 128,-1,33
 394 423 394 423 402 419 c 0,34,35
 440 406 440 406 469 389.5 c 128,-1,36
 498 373 498 373 522.5 348.5 c 128,-1,37
 547 324 547 324 557 287 c 128,-1,38
 567 250 567 250 559 205 c 0,39,40
 542 100 542 100 456.5 42 c 128,-1,41
 371 -16 371 -16 256 -16 c 0,42,43
 157 -16 157 -16 86.5 33.5 c 128,-1,44
 16 83 16 83 -5 168 c 1,0,-1
EndSplineSet
EndChar

StartChar: T
Encoding: 84 84 55
Width: 563
GlyphClass: 2
Flags: W
LayerCount: 2
Fore
SplineSet
62 607 m 1,0,-1
 83 735 l 1,1,-1
 630 735 l 1,2,-1
 609 607 l 1,3,-1
 409 607 l 1,4,-1
 308 0 l 1,5,-1
 162 0 l 1,6,-1
 263 607 l 1,7,-1
 62 607 l 1,0,-1
EndSplineSet
EndChar

StartChar: U
Encoding: 85 85 56
Width: 667
GlyphClass: 2
Flags: W
LayerCount: 2
Fore
SplineSet
59 280 m 2,0,-1
 135 735 l 1,1,-1
 282 735 l 1,2,-1
 206 279 l 2,3,4
 178 111 178 111 305 111 c 0,5,6
 432 111 432 111 460 279 c 2,7,-1
 536 735 l 1,8,-1
 683 735 l 1,9,-1
 607 280 l 2,10,11
 583 136 583 136 502 60 c 128,-1,12
 421 -16 421 -16 284 -16 c 0,13,14
 154 -16 154 -16 94 57 c 128,-1,15
 34 130 34 130 59 280 c 2,0,-1
EndSplineSet
EndChar

StartChar: V
Encoding: 86 86 57
Width: 616
GlyphClass: 2
Flags: W
LayerCount: 2
Fore
SplineSet
77 735 m 1,0,-1
 235 735 l 1,1,-1
 273 360 l 2,2,3
 280 260 280 260 286 159 c 1,4,-1
 290 158 l 1,5,6
 306 196 306 196 332.5 264 c 128,-1,7
 359 332 359 332 369 360 c 2,8,-1
 530 735 l 1,9,-1
 689 735 l 1,10,-1
 341 0 l 1,11,-1
 181 0 l 1,12,-1
 77 735 l 1,0,-1
EndSplineSet
EndChar

StartChar: W
Encoding: 87 87 58
Width: 869
GlyphClass: 2
Flags: W
LayerCount: 2
Fore
SplineSet
87 735 m 1,0,-1
 238 735 l 1,1,-1
 237 386 l 2,2,3
 236 257 236 257 233 160 c 1,4,-1
 239 160 l 1,5,6
 260 228 260 228 315 386 c 2,7,-1
 437 735 l 1,8,-1
 582 735 l 1,9,-1
 589 386 l 2,10,11
 591 318 591 318 591 160 c 1,12,-1
 595 160 l 1,13,14
 601 177 601 177 628.5 261.5 c 128,-1,15
 656 346 656 346 669 386 c 2,16,-1
 781 735 l 1,17,-1
 934 735 l 1,18,-1
 653 0 l 1,19,-1
 488 0 l 1,20,-1
 483 344 l 2,21,22
 481 512 481 512 482 556 c 1,23,-1
 477 556 l 1,24,25
 474 541 474 541 408 344 c 2,26,-1
 288 0 l 1,27,-1
 124 0 l 1,28,-1
 87 735 l 1,0,-1
EndSplineSet
EndChar

StartChar: X
Encoding: 88 88 59
Width: 626
GlyphClass: 2
Flags: W
LayerCount: 2
Fore
SplineSet
-43 0 m 1,0,-1
 246 377 l 1,1,-1
 91 735 l 1,2,-1
 260 735 l 1,3,-1
 311 586 l 2,4,5
 314 580 314 580 327.5 543 c 128,-1,6
 341 506 341 506 346 487 c 1,7,-1
 350 487 l 1,8,9
 375 525 375 525 417 586 c 2,10,-1
 519 735 l 1,11,-1
 688 735 l 1,12,-1
 414 377 l 1,13,-1
 579 0 l 1,14,-1
 411 0 l 1,15,-1
 350 164 l 2,16,17
 342 184 342 184 329 219 c 128,-1,18
 316 254 316 254 313 264 c 1,19,-1
 309 264 l 1,20,21
 307 260 307 260 280 220 c 128,-1,22
 253 180 253 180 241 164 c 2,23,-1
 125 0 l 1,24,-1
 -43 0 l 1,0,-1
EndSplineSet
EndChar

StartChar: Y
Encoding: 89 89 60
Width: 636
GlyphClass: 2
Flags: W
LayerCount: 2
Fore
SplineSet
74 735 m 1,0,-1
 240 735 l 1,1,-1
 307 523 l 2,2,3
 315 498 315 498 338 414 c 1,4,-1
 343 414 l 1,5,6
 377 468 377 468 412 523 c 2,7,-1
 548 735 l 1,8,-1
 715 735 l 1,9,-1
 394 296 l 1,10,-1
 345 0 l 1,11,-1
 199 0 l 1,12,-1
 248 296 l 1,13,-1
 74 735 l 1,0,-1
EndSplineSet
EndChar

StartChar: Z
Encoding: 90 90 61
Width: 584
GlyphClass: 2
Flags: W
LayerCount: 2
Fore
SplineSet
-8 108 m 1,0,-1
 428 607 l 1,1,-1
 104 607 l 1,2,-1
 125 735 l 1,3,-1
 632 735 l 1,4,-1
 613 625 l 1,5,-1
 177 127 l 1,6,-1
 541 127 l 1,7,-1
 520 0 l 1,8,-1
 -26 0 l 1,9,-1
 -8 108 l 1,0,-1
EndSplineSet
EndChar

StartChar: bracketleft
Encoding: 91 91 62
Width: 419
GlyphClass: 2
Flags: W
LayerCount: 2
Fore
SplineSet
33 -115 m 1,0,-1
 188 823 l 1,1,-1
 438 823 l 1,2,-1
 419 704 l 1,3,-1
 310 704 l 1,4,-1
 194 4 l 1,5,-1
 303 4 l 1,6,-1
 283 -115 l 1,7,-1
 33 -115 l 1,0,-1
EndSplineSet
EndChar

StartChar: backslash
Encoding: 92 92 63
Width: 382
GlyphClass: 2
Flags: W
LayerCount: 2
Fore
SplineSet
68 783 m 1,0,-1
 214 783 l 1,1,-1
 342 -51 l 1,2,-1
 196 -51 l 1,3,-1
 68 783 l 1,0,-1
EndSplineSet
EndChar

StartChar: bracketright
Encoding: 93 93 64
Width: 419
GlyphClass: 2
Flags: W
LayerCount: 2
Fore
SplineSet
24 4 m 1,0,-1
 133 4 l 1,1,-1
 248 704 l 1,2,-1
 140 704 l 1,3,-1
 159 823 l 1,4,-1
 410 823 l 1,5,-1
 255 -115 l 1,6,-1
 4 -115 l 1,7,-1
 24 4 l 1,0,-1
EndSplineSet
EndChar

StartChar: asciicircum
Encoding: 94 94 65
Width: 538
GlyphClass: 2
Flags: W
LayerCount: 2
Fore
SplineSet
34 450 m 1,0,-1
 290 810 l 1,1,-1
 421 810 l 1,2,-1
 559 450 l 1,3,-1
 413 450 l 1,4,-1
 357 628 l 1,5,-1
 338 696 l 1,6,-1
 337 696 l 1,7,-1
 293 626 l 1,8,-1
 178 450 l 1,9,-1
 34 450 l 1,0,-1
EndSplineSet
EndChar

StartChar: underscore
Encoding: 95 95 66
Width: 499
GlyphClass: 2
Flags: W
LayerCount: 2
Fore
SplineSet
-43 -4 m 1,0,-1
 448 -4 l 1,1,-1
 428 -122 l 1,2,-1
 -63 -122 l 1,3,-1
 -43 -4 l 1,0,-1
EndSplineSet
EndChar

StartChar: grave
Encoding: 96 96 67
Width: 355
GlyphClass: 2
Flags: W
LayerCount: 2
Fore
SplineSet
200 503 m 1,0,-1
 123 812 l 1,1,-1
 272 812 l 1,2,-1
 314 503 l 1,3,-1
 200 503 l 1,0,-1
EndSplineSet
EndChar

StartChar: a
Encoding: 97 97 68
Width: 511
GlyphClass: 2
Flags: W
LayerCount: 2
Fore
SplineSet
140 160 m 0,0,1
 136 136 136 136 151.5 119 c 128,-1,2
 167 102 167 102 195 102 c 0,3,4
 240 102 240 102 277 134.5 c 128,-1,5
 314 167 314 167 323 221 c 2,6,-1
 329 257 l 1,7,8
 277 244 277 244 248 240 c 0,9,10
 151 225 151 225 140 160 c 0,0,1
2 147 m 0,11,12
 14 221 14 221 75.5 269.5 c 128,-1,13
 137 318 137 318 243 334 c 0,14,15
 330 348 330 348 345 353 c 1,16,-1
 350 380 l 2,17,18
 356 414 356 414 336.5 429.5 c 128,-1,19
 317 445 317 445 282 445 c 0,20,21
 202 445 202 445 133 379 c 1,22,-1
 65 451 l 1,23,24
 165 556 165 556 298 556 c 0,25,26
 415 556 415 556 454.5 497 c 128,-1,27
 494 438 494 438 476 329 c 2,28,-1
 421 0 l 1,29,-1
 291 0 l 1,30,-1
 300 56 l 1,31,32
 280 25 280 25 241 4.5 c 128,-1,33
 202 -16 202 -16 156 -16 c 0,34,35
 73 -16 73 -16 31.5 29 c 128,-1,36
 -10 74 -10 74 2 147 c 0,11,12
EndSplineSet
Substitution2: "Single Substitution lookup 12 subtable" ordfeminine
EndChar

StartChar: b
Encoding: 98 98 69
Width: 548
GlyphClass: 2
Flags: W
LayerCount: 2
Fore
SplineSet
9 0 m 1,0,-1
 134 757 l 1,1,-1
 267 757 l 1,2,-1
 225 502 l 1,3,4
 284 556 284 556 351 556 c 0,5,6
 444 556 444 556 494 480.5 c 128,-1,7
 544 405 544 405 522 271 c 0,8,9
 510 196 510 196 480 138 c 128,-1,10
 450 80 450 80 412.5 47.5 c 128,-1,11
 375 15 375 15 336 -0.5 c 128,-1,12
 297 -16 297 -16 259 -16 c 0,13,14
 219 -16 219 -16 188.5 4.5 c 128,-1,15
 158 25 158 25 147 53 c 1,16,-1
 138 0 l 1,17,-1
 9 0 l 1,0,-1
186 271 m 0,18,19
 173 194 173 194 192 150 c 128,-1,20
 211 106 211 106 257 106 c 0,21,22
 301 106 301 106 335 147 c 128,-1,23
 369 188 369 188 383 271 c 0,24,25
 396 347 396 347 377 390.5 c 128,-1,26
 358 434 358 434 312 434 c 0,27,28
 263 434 263 434 230.5 389.5 c 128,-1,29
 198 345 198 345 186 271 c 0,18,19
EndSplineSet
EndChar

StartChar: c
Encoding: 99 99 70
Width: 492
GlyphClass: 2
Flags: W
LayerCount: 2
Fore
SplineSet
23 270 m 0,0,1
 45 403 45 403 125.5 479.5 c 128,-1,2
 206 556 206 556 312 556 c 0,3,4
 393 556 393 556 438 503 c 128,-1,5
 483 450 483 450 484 385 c 1,6,-1
 364 352 l 1,7,8
 361 385 361 385 343.5 409.5 c 128,-1,9
 326 434 326 434 293 434 c 0,10,11
 243 434 243 434 208.5 387.5 c 128,-1,12
 174 341 174 341 162 270 c 0,13,14
 149 190 149 190 171.5 148 c 128,-1,15
 194 106 194 106 239 106 c 0,16,17
 277 106 277 106 307 133 c 128,-1,18
 337 160 337 160 350 195 c 1,19,-1
 460 162 l 1,20,21
 434 92 434 92 365.5 38 c 128,-1,22
 297 -16 297 -16 217 -16 c 0,23,24
 110 -16 110 -16 55.5 62 c 128,-1,25
 1 140 1 140 23 270 c 0,0,1
EndSplineSet
EndChar

StartChar: d
Encoding: 100 100 71
Width: 548
GlyphClass: 2
Flags: W
LayerCount: 2
Fore
SplineSet
23 271 m 0,0,1
 45 405 45 405 119 480.5 c 128,-1,2
 193 556 193 556 290 556 c 0,3,4
 362 556 362 556 395 501 c 1,5,-1
 438 757 l 1,6,-1
 572 757 l 1,7,-1
 447 0 l 1,8,-1
 316 0 l 1,9,-1
 325 54 l 1,10,11
 305 26 305 26 268.5 5 c 128,-1,12
 232 -16 232 -16 194 -16 c 0,13,14
 153 -16 153 -16 118 0 c 128,-1,15
 83 16 83 16 56.5 48.5 c 128,-1,16
 30 81 30 81 20.5 138.5 c 128,-1,17
 11 196 11 196 23 271 c 0,0,1
162 271 m 0,18,19
 149 191 149 191 168.5 148.5 c 128,-1,20
 188 106 188 106 234 106 c 256,21,22
 280 106 280 106 312.5 150 c 128,-1,23
 345 194 345 194 358 271 c 0,24,25
 370 345 370 345 353 389.5 c 128,-1,26
 336 434 336 434 287 434 c 0,27,28
 239 434 239 434 206.5 389.5 c 128,-1,29
 174 345 174 345 162 271 c 0,18,19
EndSplineSet
EndChar

StartChar: e
Encoding: 101 101 72
Width: 526
GlyphClass: 2
Flags: W
LayerCount: 2
Fore
SplineSet
24 272 m 256,0,1
 46 404 46 404 127.5 480 c 128,-1,2
 209 556 209 556 312 556 c 0,3,4
 411 556 411 556 467 477.5 c 128,-1,5
 523 399 523 399 502 272 c 0,6,7
 498 246 498 246 491 220 c 1,8,-1
 151 220 l 1,9,10
 143 169 143 169 168 133.5 c 128,-1,11
 193 98 193 98 245 98 c 0,12,13
 283 98 283 98 314.5 118 c 128,-1,14
 346 138 346 138 366 170 c 1,15,-1
 472 127 l 1,16,17
 437 67 437 67 372 25.5 c 128,-1,18
 307 -16 307 -16 221 -16 c 0,19,20
 113 -16 113 -16 57.5 62 c 128,-1,21
 2 140 2 140 24 272 c 256,0,1
168 318 m 1,22,-1
 373 318 l 1,23,24
 382 370 382 370 361.5 407 c 128,-1,25
 341 444 341 444 293 444 c 0,26,27
 245 444 245 444 210.5 406.5 c 128,-1,28
 176 369 176 369 168 318 c 1,22,-1
EndSplineSet
EndChar

StartChar: f
Encoding: 102 102 73
Width: 334
GlyphClass: 2
Flags: W
LayerCount: 2
Fore
SplineSet
42 419 m 1,0,-1
 62 540 l 1,1,-1
 136 540 l 1,2,-1
 143 585 l 2,3,4
 157 670 157 670 204 713.5 c 128,-1,5
 251 757 251 757 325 757 c 2,6,-1
 415 757 l 1,7,-1
 395 634 l 1,8,-1
 325 634 l 2,9,10
 304 634 304 634 292.5 621 c 128,-1,11
 281 608 281 608 276 576 c 2,12,-1
 270 540 l 1,13,-1
 368 540 l 1,14,-1
 348 419 l 1,15,-1
 250 419 l 1,16,-1
 181 0 l 1,17,-1
 46 0 l 1,18,-1
 116 419 l 1,19,-1
 42 419 l 1,0,-1
EndSplineSet
EndChar

StartChar: g
Encoding: 103 103 74
Width: 532
GlyphClass: 2
Flags: W
LayerCount: 2
Fore
SplineSet
167 281 m 0,0,1
 155 206 155 206 173.5 167 c 128,-1,2
 192 128 192 128 234 128 c 256,3,4
 276 128 276 128 307 167 c 128,-1,5
 338 206 338 206 350 281 c 0,6,7
 362 355 362 355 343.5 394.5 c 128,-1,8
 325 434 325 434 284 434 c 0,9,10
 242 434 242 434 210.5 394 c 128,-1,11
 179 354 179 354 167 281 c 0,0,1
28 280 m 0,12,13
 49 407 49 407 122 481.5 c 128,-1,14
 195 556 195 556 288 556 c 0,15,16
 328 556 328 556 352.5 536.5 c 128,-1,17
 377 517 377 517 385 494 c 1,18,-1
 393 540 l 1,19,-1
 528 540 l 1,20,-1
 453 82 l 2,21,22
 428 -71 428 -71 356.5 -143 c 128,-1,23
 285 -215 285 -215 166 -215 c 0,24,25
 33 -215 33 -215 -21 -108 c 1,26,-1
 78 -41 l 1,27,28
 115 -101 115 -101 187 -101 c 0,29,30
 226 -101 226 -101 259.5 -71.5 c 128,-1,31
 293 -42 293 -42 304 4 c 0,32,33
 311 37 311 37 315 57 c 1,34,35
 296 35 296 35 263 20.5 c 128,-1,36
 230 6 230 6 201 6 c 0,37,38
 105 6 105 6 56 80.5 c 128,-1,39
 7 155 7 155 28 280 c 0,12,13
EndSplineSet
EndChar

StartChar: h
Encoding: 104 104 75
Width: 526
GlyphClass: 2
Flags: W
LayerCount: 2
Fore
SplineSet
9 0 m 1,0,-1
 134 757 l 1,1,-1
 267 757 l 1,2,-1
 226 505 l 1,3,-1
 228 505 l 1,4,5
 282 556 282 556 353 556 c 0,6,7
 386 556 386 556 413.5 545.5 c 128,-1,8
 441 535 441 535 463.5 512 c 128,-1,9
 486 489 486 489 494 446.5 c 128,-1,10
 502 404 502 404 492 346 c 2,11,-1
 435 0 l 1,12,-1
 301 0 l 1,13,-1
 355 330 l 2,14,15
 372 434 372 434 309 434 c 0,16,17
 267 434 267 434 234 395 c 128,-1,18
 201 356 201 356 192 303 c 2,19,-1
 142 0 l 1,20,-1
 9 0 l 1,0,-1
EndSplineSet
Substitution2: "'sups' Superscript lookup 5 subtable" uni02B0
Substitution2: "'aalt' Access All Alternates lookup 0 subtable" uni02B0
EndChar

StartChar: i
Encoding: 105 105 76
Width: 247
GlyphClass: 2
Flags: W
LayerCount: 2
Fore
SplineSet
108 598 m 1,0,-1
 132 745 l 1,1,-1
 268 745 l 1,2,-1
 244 598 l 1,3,-1
 108 598 l 1,0,-1
10 0 m 1,4,-1
 100 540 l 1,5,-1
 233 540 l 1,6,-1
 144 0 l 1,7,-1
 10 0 l 1,4,-1
EndSplineSet
EndChar

StartChar: j
Encoding: 106 106 77
Width: 256
GlyphClass: 2
Flags: W
LayerCount: 2
Fore
SplineSet
115 598 m 1,0,-1
 140 745 l 1,1,-1
 279 745 l 1,2,-1
 254 598 l 1,3,-1
 115 598 l 1,0,-1
-71 -80 m 1,4,-1
 -56 -80 l 2,5,6
 -25 -80 -25 -80 -6.5 -58 c 128,-1,7
 12 -36 12 -36 20 13 c 2,8,-1
 107 540 l 1,9,-1
 243 540 l 1,10,-1
 155 8 l 2,11,12
 138 -97 138 -97 84 -150.5 c 128,-1,13
 30 -204 30 -204 -55 -204 c 2,14,-1
 -92 -204 l 1,15,-1
 -71 -80 l 1,4,-1
EndSplineSet
Substitution2: "'sups' Superscript lookup 5 subtable" uni02B2
Substitution2: "'aalt' Access All Alternates lookup 0 subtable" uni02B2
EndChar

StartChar: k
Encoding: 107 107 78
Width: 508
GlyphClass: 2
Flags: W
LayerCount: 2
Fore
SplineSet
9 0 m 1,0,-1
 134 757 l 1,1,-1
 267 757 l 1,2,-1
 201 359 l 1,3,-1
 389 540 l 1,4,-1
 557 540 l 1,5,-1
 328 319 l 1,6,-1
 474 0 l 1,7,-1
 317 0 l 1,8,-1
 223 218 l 1,9,-1
 169 166 l 1,10,-1
 142 0 l 1,11,-1
 9 0 l 1,0,-1
EndSplineSet
EndChar

StartChar: l
Encoding: 108 108 79
Width: 251
GlyphClass: 2
Flags: W
LayerCount: 2
Fore
SplineSet
12 0 m 1,0,-1
 137 757 l 1,1,-1
 272 757 l 1,2,-1
 147 0 l 1,3,-1
 12 0 l 1,0,-1
EndSplineSet
Substitution2: "'sups' Superscript lookup 5 subtable" uni02E1
Substitution2: "'aalt' Access All Alternates lookup 0 subtable" uni02E1
EndChar

StartChar: m
Encoding: 109 109 80
Width: 776
GlyphClass: 2
Flags: W
LayerCount: 2
Fore
SplineSet
4 0 m 1,0,-1
 93 540 l 1,1,-1
 222 540 l 1,2,-1
 214 489 l 1,3,-1
 215 489 l 1,4,5
 226 502 226 502 241 515 c 128,-1,6
 256 528 256 528 287 542 c 128,-1,7
 318 556 318 556 349 556 c 0,8,9
 428 556 428 556 455 476 c 1,10,11
 517 556 517 556 616 556 c 0,12,13
 661 556 661 556 691 539 c 128,-1,14
 721 522 721 522 734 491 c 128,-1,15
 747 460 747 460 748.5 424.5 c 128,-1,16
 750 389 750 389 743 346 c 2,17,-1
 686 0 l 1,18,-1
 550 0 l 1,19,-1
 607 344 l 2,20,21
 614 389 614 389 605.5 411.5 c 128,-1,22
 597 434 597 434 567 434 c 0,23,24
 528 434 528 434 499.5 399.5 c 128,-1,25
 471 365 471 365 463 318 c 2,26,-1
 411 0 l 1,27,-1
 277 0 l 1,28,-1
 335 347 l 2,29,30
 342 388 342 388 331.5 411 c 128,-1,31
 321 434 321 434 294 434 c 0,32,33
 252 434 252 434 226 402.5 c 128,-1,34
 200 371 200 371 191 318 c 2,35,-1
 138 0 l 1,36,-1
 4 0 l 1,0,-1
EndSplineSet
EndChar

StartChar: n
Encoding: 110 110 81
Width: 523
GlyphClass: 2
Flags: W
LayerCount: 2
Fore
SplineSet
4 0 m 1,0,-1
 93 540 l 1,1,-1
 222 540 l 1,2,-1
 213 487 l 1,3,-1
 214 487 l 1,4,5
 267 556 267 556 355 556 c 0,6,7
 524 556 524 556 490 346 c 2,8,-1
 432 0 l 1,9,-1
 298 0 l 1,10,-1
 352 329 l 2,11,12
 362 387 362 387 350.5 410.5 c 128,-1,13
 339 434 339 434 306 434 c 0,14,15
 263 434 263 434 230.5 398 c 128,-1,16
 198 362 198 362 189 307 c 2,17,-1
 138 0 l 1,18,-1
 4 0 l 1,0,-1
EndSplineSet
Substitution2: "'sups' Superscript lookup 5 subtable" uni207F
Substitution2: "'aalt' Access All Alternates lookup 0 subtable" uni207F
EndChar

StartChar: o
Encoding: 111 111 82
Width: 528
GlyphClass: 2
Flags: W
LayerCount: 2
Fore
SplineSet
161 270 m 0,0,1
 146 181 146 181 171.5 143.5 c 128,-1,2
 197 106 197 106 236 106 c 0,3,4
 252 106 252 106 269 113.5 c 128,-1,5
 286 121 286 121 305 137.5 c 128,-1,6
 324 154 324 154 340 188.5 c 128,-1,7
 356 223 356 223 364 270 c 0,8,9
 372 318 372 318 367.5 352 c 128,-1,10
 363 386 363 386 349 403 c 128,-1,11
 335 420 335 420 320.5 427 c 128,-1,12
 306 434 306 434 290 434 c 0,13,14
 251 434 251 434 213.5 397 c 128,-1,15
 176 360 176 360 161 270 c 0,0,1
23 270 m 0,16,17
 32 326 32 326 54 375.5 c 128,-1,18
 76 425 76 425 110.5 466.5 c 128,-1,19
 145 508 145 508 196.5 532 c 128,-1,20
 248 556 248 556 310 556 c 0,21,22
 372 556 372 556 415.5 532 c 128,-1,23
 459 508 459 508 479.5 466.5 c 128,-1,24
 500 425 500 425 505.5 375.5 c 128,-1,25
 511 326 511 326 502 270 c 0,26,27
 496 234 496 234 484 198.5 c 128,-1,28
 472 163 472 163 449 123 c 128,-1,29
 426 83 426 83 395.5 53 c 128,-1,30
 365 23 365 23 318 3.5 c 128,-1,31
 271 -16 271 -16 216 -16 c 256,32,33
 160 -16 160 -16 120 3 c 128,-1,34
 80 22 80 22 58.5 51 c 128,-1,35
 37 80 37 80 27 119 c 128,-1,36
 17 158 17 158 17 195 c 128,-1,37
 17 232 17 232 23 270 c 0,16,17
EndSplineSet
Substitution2: "Single Substitution lookup 12 subtable" ordmasculine
EndChar

StartChar: p
Encoding: 112 112 83
Width: 548
GlyphClass: 2
Flags: W
LayerCount: 2
Fore
SplineSet
186 271 m 0,0,1
 173 195 173 195 192 150.5 c 128,-1,2
 211 106 211 106 257 106 c 0,3,4
 303 106 303 106 336.5 148.5 c 128,-1,5
 370 191 370 191 383 271 c 0,6,7
 396 348 396 348 377 391 c 128,-1,8
 358 434 358 434 312 434 c 0,9,10
 264 434 264 434 231 389.5 c 128,-1,11
 198 345 198 345 186 271 c 0,0,1
-27 -212 m 1,12,-1
 98 540 l 1,13,-1
 227 540 l 1,14,-1
 218 487 l 1,15,16
 277 556 277 556 351 556 c 0,17,18
 445 556 445 556 494.5 480 c 128,-1,19
 544 404 544 404 522 271 c 0,20,21
 510 196 510 196 479.5 138 c 128,-1,22
 449 80 449 80 410.5 47.5 c 128,-1,23
 372 15 372 15 333 -0.5 c 128,-1,24
 294 -16 294 -16 257 -16 c 0,25,26
 212 -16 212 -16 186 3 c 128,-1,27
 160 22 160 22 150 45 c 1,28,-1
 108 -212 l 1,29,-1
 -27 -212 l 1,12,-1
EndSplineSet
EndChar

StartChar: q
Encoding: 113 113 84
Width: 547
GlyphClass: 2
Flags: W
LayerCount: 2
Fore
SplineSet
162 271 m 0,0,1
 149 191 149 191 168 148.5 c 128,-1,2
 187 106 187 106 232 106 c 0,3,4
 278 106 278 106 312 149.5 c 128,-1,5
 346 193 346 193 359 271 c 0,6,7
 371 344 371 344 353 389 c 128,-1,8
 335 434 335 434 287 434 c 256,9,10
 240 434 240 434 207 389.5 c 128,-1,11
 174 345 174 345 162 271 c 0,0,1
23 271 m 0,12,13
 45 404 45 404 119.5 480 c 128,-1,14
 194 556 194 556 288 556 c 0,15,16
 361 556 361 556 398 487 c 1,17,-1
 406 540 l 1,18,-1
 536 540 l 1,19,-1
 412 -212 l 1,20,-1
 277 -212 l 1,21,-1
 320 46 l 1,22,23
 270 -16 270 -16 193 -16 c 0,24,25
 155 -16 155 -16 121.5 -0.5 c 128,-1,26
 88 15 88 15 60 47 c 128,-1,27
 32 79 32 79 21 137 c 128,-1,28
 10 195 10 195 23 271 c 0,12,13
EndSplineSet
EndChar

StartChar: r
Encoding: 114 114 85
Width: 355
GlyphClass: 2
Flags: W
LayerCount: 2
Fore
SplineSet
4 0 m 1,0,-1
 93 540 l 1,1,-1
 222 540 l 1,2,-1
 215 494 l 1,3,4
 235 520 235 520 268.5 538 c 128,-1,5
 302 556 302 556 339 556 c 0,6,7
 384 556 384 556 401 547 c 1,8,-1
 379 415 l 1,9,10
 350 425 350 425 317 425 c 0,11,12
 263 425 263 425 228.5 380.5 c 128,-1,13
 194 336 194 336 181 260 c 2,14,-1
 138 0 l 1,15,-1
 4 0 l 1,0,-1
EndSplineSet
Substitution2: "'sups' Superscript lookup 5 subtable" uni02B3
Substitution2: "'aalt' Access All Alternates lookup 0 subtable" uni02B3
EndChar

StartChar: s
Encoding: 115 115 86
Width: 470
GlyphClass: 2
Flags: W
LayerCount: 2
Fore
SplineSet
-11 117 m 1,0,-1
 93 176 l 1,1,2
 132 99 132 99 211 99 c 0,3,4
 243 99 243 99 263.5 113.5 c 128,-1,5
 284 128 284 128 287 150 c 0,6,7
 288 157 288 157 287.5 164 c 128,-1,8
 287 171 287 171 283 177 c 128,-1,9
 279 183 279 183 275 187.5 c 128,-1,10
 271 192 271 192 262.5 197 c 128,-1,11
 254 202 254 202 248 205 c 128,-1,12
 242 208 242 208 231.5 212.5 c 128,-1,13
 221 217 221 217 214 219.5 c 128,-1,14
 207 222 207 222 194 226.5 c 128,-1,15
 181 231 181 231 174 233 c 0,16,17
 114 256 114 256 81 292 c 128,-1,18
 48 328 48 328 60 397 c 0,19,20
 72 470 72 470 139 513 c 128,-1,21
 206 556 206 556 287 556 c 0,22,23
 350 556 350 556 402 520.5 c 128,-1,24
 454 485 454 485 473 428 c 1,25,-1
 376 372 l 1,26,27
 334 442 334 442 269 442 c 0,28,29
 239 442 239 442 219 428.5 c 128,-1,30
 199 415 199 415 196 394 c 0,31,32
 194 384 194 384 196.5 375.5 c 128,-1,33
 199 367 199 367 205.5 360 c 128,-1,34
 212 353 212 353 218.5 347.5 c 128,-1,35
 225 342 225 342 237.5 336.5 c 128,-1,36
 250 331 250 331 258 328 c 128,-1,37
 266 325 266 325 282.5 319 c 128,-1,38
 299 313 299 313 307 311 c 0,39,40
 445 258 445 258 426 148 c 0,41,42
 415 80 415 80 354 32 c 128,-1,43
 293 -16 293 -16 195 -16 c 0,44,45
 119 -16 119 -16 64 20.5 c 128,-1,46
 9 57 9 57 -11 117 c 1,0,-1
EndSplineSet
Substitution2: "'hist' Historical Forms lookup 11 subtable" longs
Substitution2: "'sups' Superscript lookup 5 subtable" uni02E2
AlternateSubs2: "'aalt' Access All Alternates lookup 1 subtable" uni02E2 longs
EndChar

StartChar: t
Encoding: 116 116 87
Width: 351
GlyphClass: 2
Flags: W
LayerCount: 2
Fore
SplineSet
36 419 m 1,0,-1
 56 540 l 1,1,-1
 129 540 l 1,2,-1
 155 694 l 1,3,-1
 288 694 l 1,4,-1
 263 540 l 1,5,-1
 369 540 l 1,6,-1
 349 419 l 1,7,-1
 243 419 l 1,8,-1
 203 181 l 2,9,10
 193 122 193 122 243 122 c 2,11,-1
 301 122 l 1,12,-1
 281 0 l 1,13,-1
 206 0 l 2,14,15
 40 0 40 0 68 173 c 2,16,-1
 109 419 l 1,17,-1
 36 419 l 1,0,-1
EndSplineSet
EndChar

StartChar: u
Encoding: 117 117 88
Width: 521
GlyphClass: 2
Flags: W
LayerCount: 2
Fore
SplineSet
30 199 m 2,0,-1
 86 540 l 1,1,-1
 221 540 l 1,2,-1
 167 214 l 2,3,4
 149 106 149 106 219 106 c 0,5,6
 260 106 260 106 290 146 c 128,-1,7
 320 186 320 186 329 241 c 2,8,-1
 378 540 l 1,9,-1
 514 540 l 1,10,-1
 424 0 l 1,11,-1
 294 0 l 1,12,-1
 302 48 l 1,13,-1
 300 48 l 1,14,15
 281 22 281 22 245.5 3 c 128,-1,16
 210 -16 210 -16 169 -16 c 0,17,18
 147 -16 147 -16 127 -12 c 128,-1,19
 107 -8 107 -8 84 6 c 128,-1,20
 61 20 61 20 46.5 42.5 c 128,-1,21
 32 65 32 65 26.5 105.5 c 128,-1,22
 21 146 21 146 30 199 c 2,0,-1
EndSplineSet
EndChar

StartChar: v
Encoding: 118 118 89
Width: 508
GlyphClass: 2
Flags: W
LayerCount: 2
Fore
SplineSet
50 540 m 1,0,-1
 197 540 l 1,1,-1
 216 300 l 2,2,3
 223 186 223 186 226 120 c 1,4,-1
 228 120 l 1,5,6
 238 144 238 144 264 208.5 c 128,-1,7
 290 273 290 273 300 300 c 2,8,-1
 396 540 l 1,9,-1
 545 540 l 1,10,-1
 283 0 l 1,11,-1
 131 0 l 1,12,-1
 50 540 l 1,0,-1
EndSplineSet
EndChar

StartChar: w
Encoding: 119 119 90
Width: 716
GlyphClass: 2
Flags: W
LayerCount: 2
Fore
SplineSet
51 540 m 1,0,-1
 195 540 l 1,1,-1
 196 307 l 2,2,3
 195 285 195 285 194.5 232 c 128,-1,4
 194 179 194 179 195 142 c 1,5,-1
 197 142 l 1,6,7
 206 170 206 170 228.5 235.5 c 128,-1,8
 251 301 251 301 253 307 c 2,9,-1
 333 540 l 1,10,-1
 470 540 l 1,11,-1
 472 306 l 2,12,13
 471 284 471 284 472 227 c 128,-1,14
 473 170 473 170 472 142 c 1,15,-1
 476 142 l 1,16,17
 500 218 500 218 529 307 c 2,18,-1
 607 540 l 1,19,-1
 752 540 l 1,20,-1
 525 0 l 1,21,-1
 379 0 l 1,22,-1
 377 226 l 2,23,24
 376 251 376 251 376.5 306 c 128,-1,25
 377 361 377 361 377 385 c 1,26,-1
 374 385 l 1,27,28
 365 356 365 356 345 295.5 c 128,-1,29
 325 235 325 235 322 226 c 2,30,-1
 244 0 l 1,31,-1
 98 0 l 1,32,-1
 51 540 l 1,0,-1
EndSplineSet
Substitution2: "'sups' Superscript lookup 5 subtable" uni02B7
Substitution2: "'aalt' Access All Alternates lookup 0 subtable" uni02B7
EndChar

StartChar: x
Encoding: 120 120 91
Width: 533
GlyphClass: 2
Flags: W
LayerCount: 2
Fore
SplineSet
-42 0 m 1,0,-1
 186 276 l 1,1,-1
 56 540 l 1,2,-1
 222 540 l 1,3,-1
 257 437 l 2,4,5
 272 389 272 389 279 372 c 1,6,-1
 282 372 l 2,7,8
 283 373 283 373 300.5 399 c 128,-1,9
 318 425 318 425 325 437 c 2,10,-1
 396 540 l 1,11,-1
 561 540 l 1,12,-1
 343 276 l 1,13,-1
 480 0 l 1,14,-1
 319 0 l 1,15,-1
 277 111 l 2,16,17
 263 152 263 152 251 183 c 1,18,-1
 248 183 l 1,19,20
 212 131 212 131 198 111 c 2,21,-1
 119 0 l 1,22,-1
 -42 0 l 1,0,-1
EndSplineSet
Substitution2: "'sups' Superscript lookup 5 subtable" uni02E3
Substitution2: "'aalt' Access All Alternates lookup 0 subtable" uni02E3
EndChar

StartChar: y
Encoding: 121 121 92
Width: 510
GlyphClass: 2
Flags: W
LayerCount: 2
Fore
SplineSet
47 540 m 1,0,-1
 194 540 l 1,1,-1
 229 285 l 2,2,3
 236 228 236 228 239 169 c 1,4,-1
 242 169 l 1,5,6
 262 221 262 221 289 285 c 2,7,-1
 400 540 l 1,8,-1
 547 540 l 1,9,-1
 239 -59 l 2,10,11
 196 -144 196 -144 141.5 -178 c 128,-1,12
 87 -212 87 -212 13 -212 c 2,13,-1
 -26 -212 l 1,14,-1
 -6 -92 l 1,15,-1
 10 -92 l 2,16,17
 53 -92 53 -92 79.5 -76.5 c 128,-1,18
 106 -61 106 -61 126 -23 c 2,19,-1
 150 25 l 1,20,-1
 47 540 l 1,0,-1
EndSplineSet
Substitution2: "'sups' Superscript lookup 5 subtable" uni02B8
Substitution2: "'aalt' Access All Alternates lookup 0 subtable" uni02B8
EndChar

StartChar: z
Encoding: 122 122 93
Width: 469
GlyphClass: 2
Flags: W
LayerCount: 2
Fore
SplineSet
-29 0 m 1,0,-1
 -13 94 l 1,1,-1
 285 419 l 1,2,-1
 59 419 l 1,3,-1
 79 540 l 1,4,-1
 483 540 l 1,5,-1
 469 451 l 1,6,-1
 167 122 l 1,7,-1
 426 122 l 1,8,-1
 405 0 l 1,9,-1
 -29 0 l 1,0,-1
EndSplineSet
EndChar

StartChar: braceleft
Encoding: 123 123 94
Width: 423
GlyphClass: 2
Flags: W
CounterMasks: 1 e0
LayerCount: 2
Fore
SplineSet
50 299 m 1,0,-1
 68 409 l 1,1,-1
 102 409 l 2,2,3
 141 409 141 409 157 500 c 2,4,-1
 185 674 l 2,5,6
 197 745 197 745 243.5 784 c 128,-1,7
 290 823 290 823 359 823 c 2,8,-1
 444 823 l 1,9,-1
 425 704 l 1,10,-1
 366 704 l 2,11,12
 350 704 350 704 338 691 c 128,-1,13
 326 678 326 678 323 658 c 2,14,-1
 294 485 l 2,15,16
 280 403 280 403 205 354 c 1,17,18
 229 337 229 337 244 305 c 128,-1,19
 259 273 259 273 251 225 c 2,20,-1
 222 49 l 2,21,22
 215 4 215 4 252 4 c 2,23,-1
 309 4 l 1,24,-1
 289 -115 l 1,25,-1
 204 -115 l 2,26,27
 138 -115 138 -115 102.5 -78 c 128,-1,28
 67 -41 67 -41 79 33 c 2,29,-1
 108 209 l 2,30,31
 123 299 123 299 84 299 c 2,32,-1
 50 299 l 1,0,-1
EndSplineSet
EndChar

StartChar: bar
Encoding: 124 124 95
Width: 292
GlyphClass: 2
Flags: W
LayerCount: 2
Fore
SplineSet
4 -150 m 1,0,-1
 170 856 l 1,1,-1
 311 856 l 1,2,-1
 145 -150 l 1,3,-1
 4 -150 l 1,0,-1
EndSplineSet
EndChar

StartChar: braceright
Encoding: 125 125 96
Width: 423
GlyphClass: 2
Flags: W
CounterMasks: 1 e0
LayerCount: 2
Fore
SplineSet
22 4 m 1,0,-1
 82 4 l 2,1,2
 117 4 117 4 124 49 c 2,3,-1
 154 225 l 2,4,5
 160 260 160 260 178.5 289.5 c 128,-1,6
 197 319 197 319 209.5 329.5 c 128,-1,7
 222 340 222 340 243 355 c 1,8,9
 183 401 183 401 197 485 c 2,10,-1
 225 658 l 2,11,12
 228 678 228 678 221 691 c 128,-1,13
 214 704 214 704 198 704 c 2,14,-1
 138 704 l 1,15,-1
 157 823 l 1,16,-1
 243 823 l 2,17,18
 312 823 312 823 346.5 784 c 128,-1,19
 381 745 381 745 369 674 c 2,20,-1
 340 500 l 2,21,22
 325 409 325 409 363 409 c 2,23,-1
 397 409 l 1,24,-1
 378 299 l 1,25,-1
 345 299 l 2,26,27
 307 299 307 299 292 209 c 2,28,-1
 263 33 l 2,29,30
 251 -40 251 -40 202.5 -77.5 c 128,-1,31
 154 -115 154 -115 87 -115 c 2,32,-1
 2 -115 l 1,33,-1
 22 4 l 1,0,-1
EndSplineSet
EndChar

StartChar: asciitilde
Encoding: 126 126 97
Width: 783
GlyphClass: 2
Flags: W
LayerCount: 2
Fore
SplineSet
56 294 m 1,0,1
 153 486 153 486 309 486 c 0,2,3
 343 486 343 486 370.5 473 c 128,-1,4
 398 460 398 460 416 441.5 c 128,-1,5
 434 423 434 423 449.5 404 c 128,-1,6
 465 385 465 385 482.5 372 c 128,-1,7
 500 359 500 359 518 359 c 0,8,9
 545 359 545 359 569.5 377.5 c 128,-1,10
 594 396 594 396 606.5 415 c 128,-1,11
 619 434 619 434 636 466 c 1,12,-1
 750 412 l 1,13,14
 657 222 657 222 499 222 c 0,15,16
 460 222 460 222 426.5 242 c 128,-1,17
 393 262 393 262 374.5 286 c 128,-1,18
 356 310 356 310 333 330 c 128,-1,19
 310 350 310 350 287 350 c 0,20,21
 254 350 254 350 223.5 319 c 128,-1,22
 193 288 193 288 171 243 c 1,23,-1
 56 294 l 1,0,1
EndSplineSet
EndChar

StartChar: exclamdown
Encoding: 161 161 99
Width: 295
GlyphClass: 2
Flags: W
LayerCount: 2
Fore
SplineSet
-10 -198 m 1,0,-1
 87 332 l 1,1,-1
 225 332 l 1,2,-1
 144 -198 l 1,3,-1
 -10 -198 l 1,0,-1
77 387 m 1,4,-1
 103 545 l 1,5,-1
 278 545 l 1,6,-1
 252 387 l 1,7,-1
 77 387 l 1,4,-1
EndSplineSet
EndChar

StartChar: cent
Encoding: 162 162 100
Width: 508
GlyphClass: 2
Flags: W
LayerCount: 2
Fore
SplineSet
23 270 m 0,0,1
 40 372 40 372 98.5 448 c 128,-1,2
 157 524 157 524 247 547 c 1,3,-1
 260 624 l 1,4,-1
 388 624 l 1,5,-1
 375 549 l 1,6,7
 434 534 434 534 466.5 486.5 c 128,-1,8
 499 439 499 439 501 385 c 1,9,-1
 376 352 l 1,10,11
 364 434 364 434 303 434 c 0,12,13
 250 434 250 434 215 387 c 128,-1,14
 180 340 180 340 168 270 c 0,15,16
 156 195 156 195 177 150.5 c 128,-1,17
 198 106 198 106 247 106 c 0,18,19
 286 106 286 106 316.5 132 c 128,-1,20
 347 158 347 158 363 195 c 1,21,-1
 476 162 l 1,22,23
 455 109 455 109 404.5 60 c 128,-1,24
 354 11 354 11 283 -9 c 1,25,-1
 269 -92 l 1,26,-1
 142 -92 l 1,27,-1
 156 -7 l 1,28,29
 81 13 81 13 43 87 c 128,-1,30
 5 161 5 161 23 270 c 0,0,1
EndSplineSet
EndChar

StartChar: sterling
Encoding: 163 163 101
Width: 598
GlyphClass: 2
Flags: W
LayerCount: 2
Fore
SplineSet
38 297 m 1,0,-1
 59 424 l 1,1,-1
 161 424 l 1,2,-1
 183 555 l 2,3,4
 199 651 199 651 271 701 c 128,-1,5
 343 751 343 751 448 751 c 0,6,7
 518 751 518 751 566 713 c 128,-1,8
 614 675 614 675 630 627 c 1,9,-1
 508 572 l 1,10,11
 479 620 479 620 428 620 c 0,12,13
 390 620 390 620 360.5 601 c 128,-1,14
 331 582 331 582 325 541 c 2,15,-1
 305 424 l 1,16,-1
 488 424 l 1,17,-1
 467 297 l 1,18,-1
 284 297 l 1,19,-1
 272 224 l 2,20,21
 263 170 263 170 245 143 c 1,22,23
 270 146 270 146 279 146 c 0,24,25
 307 146 307 146 349.5 128.5 c 128,-1,26
 392 111 392 111 425 111 c 0,27,28
 476 111 476 111 532 139 c 1,29,-1
 548 16 l 1,30,31
 467 -16 467 -16 404 -16 c 0,32,33
 371 -16 371 -16 306.5 2 c 128,-1,34
 242 20 242 20 211 20 c 0,35,36
 176 20 176 20 126 12 c 128,-1,37
 76 4 76 4 45 -4 c 2,38,-1
 14 -11 l 1,39,-1
 -2 94 l 1,40,41
 51 105 51 105 84 131 c 128,-1,42
 117 157 117 157 127 216 c 2,43,-1
 140 297 l 1,44,-1
 38 297 l 1,0,-1
EndSplineSet
EndChar

StartChar: currency
Encoding: 164 164 102
Width: 654
GlyphClass: 2
Flags: W
LayerCount: 2
Fore
SplineSet
-5 152 m 1,0,-1
 118 252 l 1,1,2
 111 268 111 268 106.5 299 c 128,-1,3
 102 330 102 330 108 362 c 0,4,5
 113 393 113 393 127 424.5 c 128,-1,6
 141 456 141 456 154 472 c 1,7,-1
 65 572 l 1,8,-1
 178 666 l 1,9,-1
 260 566 l 1,10,11
 323 598 323 598 381 598 c 0,12,13
 437 598 437 598 489 566 c 1,14,-1
 606 666 l 1,15,-1
 685 572 l 1,16,-1
 564 472 l 1,17,18
 585 425 585 425 574 362 c 0,19,20
 569 330 569 330 554.5 299 c 128,-1,21
 540 268 540 268 527 252 c 1,22,-1
 616 152 l 1,23,-1
 505 58 l 1,24,-1
 422 158 l 1,25,26
 355 125 355 125 303 125 c 0,27,28
 245 125 245 125 192 158 c 1,29,-1
 77 58 l 1,30,-1
 -5 152 l 1,0,-1
235 362 m 0,31,32
 228 318 228 318 252 285.5 c 128,-1,33
 276 253 276 253 324 253 c 0,34,35
 370 253 370 253 404.5 285 c 128,-1,36
 439 317 439 317 447 362 c 256,37,38
 454 407 454 407 429.5 438.5 c 128,-1,39
 405 470 405 470 360 470 c 0,40,41
 312 470 312 470 277 437 c 128,-1,42
 242 404 242 404 235 362 c 0,31,32
EndSplineSet
EndChar

StartChar: yen
Encoding: 165 165 103
Width: 636
GlyphClass: 2
Flags: W
LayerCount: 2
Fore
SplineSet
74 735 m 1,0,-1
 240 735 l 1,1,-1
 304 571 l 2,2,3
 334 494 334 494 346 459 c 1,4,-1
 350 459 l 1,5,6
 362 478 362 478 389.5 515 c 128,-1,7
 417 552 417 552 429 571 c 2,8,-1
 548 735 l 1,9,-1
 715 735 l 1,10,-1
 470 431 l 1,11,-1
 603 431 l 1,12,-1
 585 325 l 1,13,-1
 399 325 l 1,14,-1
 385 239 l 1,15,-1
 571 239 l 1,16,-1
 553 133 l 1,17,-1
 367 133 l 1,18,-1
 345 0 l 1,19,-1
 199 0 l 1,20,-1
 221 133 l 1,21,-1
 36 133 l 1,22,-1
 53 239 l 1,23,-1
 239 239 l 1,24,-1
 253 325 l 1,25,-1
 68 325 l 1,26,-1
 85 431 l 1,27,-1
 217 431 l 1,28,-1
 74 735 l 1,0,-1
EndSplineSet
EndChar

StartChar: brokenbar
Encoding: 166 166 104
Width: 292
GlyphClass: 2
Flags: W
LayerCount: 2
Fore
SplineSet
103 450 m 1,0,-1
 170 856 l 1,1,-1
 311 856 l 1,2,-1
 244 450 l 1,3,-1
 103 450 l 1,0,-1
4 -150 m 1,4,-1
 71 257 l 1,5,-1
 212 257 l 1,6,-1
 145 -150 l 1,7,-1
 4 -150 l 1,4,-1
EndSplineSet
EndChar

StartChar: section
Encoding: 167 167 105
Width: 530
GlyphClass: 2
Flags: W
LayerCount: 2
Fore
SplineSet
-14 58 m 1,0,-1
 92 131 l 1,1,2
 135 72 135 72 209 72 c 0,3,4
 283 72 283 72 290 108 c 0,5,6
 293 129 293 129 260 146 c 2,7,-1
 166 195 l 2,8,9
 41 258 41 258 58 362 c 0,10,11
 65 403 65 403 93.5 438 c 128,-1,12
 122 473 122 473 149 492 c 1,13,14
 109 533 109 533 119 594 c 0,15,16
 131 664 131 664 193.5 707.5 c 128,-1,17
 256 751 256 751 370 751 c 0,18,19
 506 751 506 751 568 649 c 1,20,-1
 464 573 l 1,21,22
 420 627 420 627 346 627 c 0,23,24
 272 627 272 627 267 592 c 0,25,26
 266 583 266 583 269 575.5 c 128,-1,27
 272 568 272 568 283 560.5 c 128,-1,28
 294 553 294 553 302.5 548.5 c 128,-1,29
 311 544 311 544 332.5 534 c 128,-1,30
 354 524 354 524 366 519 c 0,31,32
 369 517 369 517 384.5 509.5 c 128,-1,33
 400 502 400 502 406.5 499 c 128,-1,34
 413 496 413 496 427.5 487.5 c 128,-1,35
 442 479 442 479 449 473.5 c 128,-1,36
 456 468 456 468 468.5 458 c 128,-1,37
 481 448 481 448 486.5 439.5 c 128,-1,38
 492 431 492 431 499.5 418 c 128,-1,39
 507 405 507 405 510 392 c 128,-1,40
 513 379 513 379 513.5 362.5 c 128,-1,41
 514 346 514 346 511 328 c 0,42,43
 505 291 505 291 480.5 256 c 128,-1,44
 456 221 456 221 422 197 c 1,45,46
 445 157 445 157 437 109 c 0,47,48
 424 33 424 33 361.5 -9.5 c 128,-1,49
 299 -52 299 -52 190 -52 c 0,50,51
 120 -52 120 -52 63 -19.5 c 128,-1,52
 6 13 6 13 -14 58 c 1,0,-1
206 365 m 0,53,54
 202 339 202 339 215 324 c 128,-1,55
 228 309 228 309 255 293 c 2,56,-1
 321 261 l 1,57,58
 358 298 358 298 363 328 c 0,59,60
 370 368 370 368 314 395 c 2,61,-1
 250 430 l 1,62,63
 212 404 212 404 206 365 c 0,53,54
EndSplineSet
EndChar

StartChar: dieresis
Encoding: 168 168 106
Width: 514
GlyphClass: 2
Flags: W
LayerCount: 2
Fore
SplineSet
135 587 m 1,0,-1
 159 735 l 1,1,-1
 301 735 l 1,2,-1
 277 587 l 1,3,-1
 135 587 l 1,0,-1
339 587 m 1,4,-1
 363 735 l 1,5,-1
 505 735 l 1,6,-1
 481 587 l 1,7,-1
 339 587 l 1,4,-1
EndSplineSet
EndChar

StartChar: copyright
Encoding: 169 169 107
Width: 818
GlyphClass: 2
Flags: W
LayerCount: 2
Fore
SplineSet
232 372 m 0,0,1
 251 487 251 487 317.5 545 c 128,-1,2
 384 603 384 603 473 603 c 0,3,4
 545 603 545 603 580.5 561 c 128,-1,5
 616 519 616 519 617 463 c 1,6,-1
 517 436 l 1,7,8
 509 503 509 503 457 503 c 0,9,10
 412 503 412 503 386.5 471.5 c 128,-1,11
 361 440 361 440 350 372 c 0,12,13
 329 243 329 243 414 243 c 0,14,15
 447 243 447 243 471 265 c 128,-1,16
 495 287 495 287 507 316 c 1,17,-1
 598 289 l 1,18,19
 575 225 575 225 521.5 184 c 128,-1,20
 468 143 468 143 397 143 c 0,21,22
 307 143 307 143 260 201.5 c 128,-1,23
 213 260 213 260 232 372 c 0,0,1
43 372 m 0,24,25
 73 556 73 556 199.5 664.5 c 128,-1,26
 326 773 326 773 490 773 c 0,27,28
 658 773 658 773 747 663 c 128,-1,29
 836 553 836 553 806 372 c 256,30,31
 776 191 776 191 650.5 80.5 c 128,-1,32
 525 -30 525 -30 357 -30 c 0,33,34
 250 -30 250 -30 172.5 17 c 128,-1,35
 95 64 95 64 59 156.5 c 128,-1,36
 23 249 23 249 43 372 c 0,24,25
146 372 m 0,37,38
 122 226 122 226 185 144 c 128,-1,39
 248 62 248 62 373 62 c 0,40,41
 492 62 492 62 585.5 141 c 128,-1,42
 679 220 679 220 704 372 c 0,43,44
 728 519 728 519 664 600.5 c 128,-1,45
 600 682 600 682 475 682 c 0,46,47
 349 682 349 682 259.5 599 c 128,-1,48
 170 516 170 516 146 372 c 0,37,38
EndSplineSet
EndChar

StartChar: ordfeminine
Encoding: 170 170 108
Width: 373
GlyphClass: 2
Flags: W
LayerCount: 2
Fore
SplineSet
16 258 m 1,0,-1
 30 346 l 1,1,-1
 365 346 l 1,2,-1
 350 258 l 1,3,-1
 16 258 l 1,0,-1
156 530 m 0,4,5
 153 512 153 512 164.5 499.5 c 128,-1,6
 176 487 176 487 198 487 c 0,7,8
 232 487 232 487 260 510.5 c 128,-1,9
 288 534 288 534 294 573 c 2,10,-1
 299 602 l 1,11,12
 288 599 288 599 266 595 c 128,-1,13
 244 591 244 591 235.5 589.5 c 128,-1,14
 227 588 227 588 212.5 584 c 128,-1,15
 198 580 198 580 190.5 576 c 128,-1,16
 183 572 183 572 174.5 565 c 128,-1,17
 166 558 166 558 162 549.5 c 128,-1,18
 158 541 158 541 156 530 c 0,4,5
57 521 m 0,19,20
 63 558 63 558 86 585 c 128,-1,21
 109 612 109 612 141 625.5 c 128,-1,22
 173 639 173 639 202.5 646 c 128,-1,23
 232 653 232 653 265.5 658 c 128,-1,24
 299 663 299 663 310 667 c 1,25,-1
 313 688 l 2,26,27
 321 737 321 737 262 737 c 0,28,29
 204 737 204 737 152 690 c 1,30,-1
 104 739 l 1,31,32
 136 773 136 773 181.5 792 c 128,-1,33
 227 811 227 811 273 811 c 0,34,35
 359 811 359 811 387.5 769.5 c 128,-1,36
 416 728 416 728 404 652 c 2,37,-1
 365 418 l 1,38,-1
 273 418 l 1,39,-1
 280 465 l 1,40,41
 237 407 237 407 170 407 c 0,42,43
 109 407 109 407 79 438.5 c 128,-1,44
 49 470 49 470 57 521 c 0,19,20
EndSplineSet
EndChar

StartChar: guillemotleft
Encoding: 171 171 109
Width: 538
GlyphClass: 2
Flags: W
LayerCount: 2
Fore
SplineSet
32 274 m 1,0,-1
 241 533 l 1,1,-1
 330 465 l 1,2,-1
 180 274 l 1,3,-1
 266 88 l 1,4,-1
 155 17 l 1,5,-1
 32 274 l 1,0,-1
240 274 m 1,6,-1
 446 518 l 1,7,-1
 531 442 l 1,8,-1
 389 274 l 1,9,-1
 475 104 l 1,10,-1
 365 30 l 1,11,-1
 240 274 l 1,6,-1
EndSplineSet
EndChar

StartChar: logicalnot
Encoding: 172 172 110
Width: 544
GlyphClass: 2
Flags: W
LayerCount: 2
Fore
SplineSet
42 283 m 1,0,-1
 63 410 l 1,1,-1
 526 410 l 1,2,-1
 477 115 l 1,3,-1
 343 115 l 1,4,-1
 371 283 l 1,5,-1
 42 283 l 1,0,-1
EndSplineSet
EndChar

StartChar: uni00AD
Encoding: 173 173 111
Width: 547
GlyphClass: 2
Flags: W
LayerCount: 2
Fore
SplineSet
53 303 m 1,0,-1
 74 431 l 1,1,-1
 522 431 l 1,2,-1
 501 303 l 1,3,-1
 53 303 l 1,0,-1
EndSplineSet
EndChar

StartChar: registered
Encoding: 174 174 112
Width: 819
GlyphClass: 2
Flags: W
LayerCount: 2
Fore
SplineSet
42 373 m 0,0,1
 73 558 73 558 199.5 665.5 c 128,-1,2
 326 773 326 773 490 773 c 0,3,4
 658 773 658 773 747.5 662.5 c 128,-1,5
 837 552 837 552 807 373 c 0,6,7
 777 193 777 193 651 82 c 128,-1,8
 525 -29 525 -29 358 -29 c 0,9,10
 251 -29 251 -29 173 18.5 c 128,-1,11
 95 66 95 66 58.5 158 c 128,-1,12
 22 250 22 250 42 373 c 0,0,1
225 143 m 1,13,-1
 300 594 l 1,14,-1
 490 594 l 2,15,16
 560 594 560 594 591 554 c 128,-1,17
 622 514 622 514 613 458 c 0,18,19
 601 383 601 383 544 350 c 1,20,21
 557 334 557 334 560.5 319 c 128,-1,22
 564 304 564 304 566 276 c 0,23,24
 567 257 567 257 571 236.5 c 128,-1,25
 575 216 575 216 578.5 205.5 c 128,-1,26
 582 195 582 195 591 172 c 0,27,28
 595 161 595 161 598 153 c 1,29,30
 681 230 681 230 705 373 c 0,31,32
 730 524 730 524 664 600 c 128,-1,33
 598 676 598 676 474 676 c 0,34,35
 346 676 346 676 258 596.5 c 128,-1,36
 170 517 170 517 146 373 c 0,37,38
 122 226 122 226 183.5 147.5 c 128,-1,39
 245 69 245 69 374 69 c 0,40,41
 496 69 496 69 585 143 c 1,42,-1
 471 143 l 1,43,44
 446 188 446 188 445 266 c 0,45,46
 444 302 444 302 438 309 c 0,47,48
 435 312 435 312 427 312 c 2,49,-1
 370 312 l 1,50,-1
 342 143 l 1,51,-1
 225 143 l 1,13,-1
385 401 m 1,52,-1
 442 401 l 2,53,54
 484 401 484 401 491 446 c 0,55,56
 494 462 494 462 484 476 c 128,-1,57
 474 490 474 490 456 490 c 2,58,-1
 400 490 l 1,59,-1
 385 401 l 1,52,-1
EndSplineSet
EndChar

StartChar: macron
Encoding: 175 175 113
Width: 475
GlyphClass: 2
Flags: W
LayerCount: 2
Fore
SplineSet
66 661 m 1,0,-1
 87 787 l 1,1,-1
 556 787 l 1,2,-1
 535 661 l 1,3,-1
 66 661 l 1,0,-1
EndSplineSet
EndChar

StartChar: degree
Encoding: 176 176 114
Width: 418
GlyphClass: 2
Flags: W
LayerCount: 2
Fore
SplineSet
125 602 m 256,0,1
 135 660 135 660 181 700 c 128,-1,2
 227 740 227 740 285 740 c 0,3,4
 342 740 342 740 375 701 c 128,-1,5
 408 662 408 662 398 602 c 0,6,7
 388 544 388 544 341.5 504.5 c 128,-1,8
 295 465 295 465 239 465 c 256,9,10
 183 465 183 465 149 504.5 c 128,-1,11
 115 544 115 544 125 602 c 256,0,1
215 602 m 0,12,13
 212 582 212 582 222 567.5 c 128,-1,14
 232 553 232 553 254 553 c 0,15,16
 275 553 275 553 290 567.5 c 128,-1,17
 305 582 305 582 309 602 c 0,18,19
 313 624 313 624 302 638 c 128,-1,20
 291 652 291 652 270 652 c 256,21,22
 249 652 249 652 233.5 637.5 c 128,-1,23
 218 623 218 623 215 602 c 0,12,13
EndSplineSet
EndChar

StartChar: plusminus
Encoding: 177 177 115
Width: 550
GlyphClass: 2
Flags: W
LayerCount: 2
Fore
SplineSet
49 396 m 1,0,-1
 70 519 l 1,1,-1
 245 519 l 1,2,-1
 271 672 l 1,3,-1
 410 672 l 1,4,-1
 384 519 l 1,5,-1
 559 519 l 1,6,-1
 539 396 l 1,7,-1
 364 396 l 1,8,-1
 339 243 l 1,9,-1
 200 243 l 1,10,-1
 225 396 l 1,11,-1
 49 396 l 1,0,-1
-2 69 m 1,12,-1
 19 192 l 1,13,-1
 502 192 l 1,14,-1
 481 69 l 1,15,-1
 -2 69 l 1,12,-1
EndSplineSet
EndChar

StartChar: twosuperior
Encoding: 178 178 116
Width: 323
GlyphClass: 2
Flags: W
LayerCount: 2
Fore
SplineSet
86 682 m 1,0,1
 135 813 135 813 250 813 c 0,2,3
 311 813 311 813 343 776.5 c 128,-1,4
 375 740 375 740 365 681 c 0,5,6
 355 620 355 620 290 561 c 0,7,8
 280 552 280 552 253 529 c 128,-1,9
 226 506 226 506 207.5 488 c 128,-1,10
 189 470 189 470 175 450 c 1,11,-1
 325 450 l 1,12,-1
 311 366 l 1,13,-1
 39 366 l 1,14,15
 50 434 50 434 87.5 481.5 c 128,-1,16
 125 529 125 529 212 602 c 0,17,18
 259 641 259 641 265 682 c 0,19,20
 269 704 269 704 260.5 716.5 c 128,-1,21
 252 729 252 729 235 729 c 0,22,23
 192 729 192 729 165 657 c 1,24,-1
 86 682 l 1,0,1
EndSplineSet
EndChar

StartChar: threesuperior
Encoding: 179 179 117
Width: 325
GlyphClass: 2
Flags: W
LayerCount: 2
Fore
SplineSet
42 469 m 1,0,-1
 125 498 l 1,1,2
 139 439 139 439 184 439 c 0,3,4
 206 439 206 439 223 453.5 c 128,-1,5
 240 468 240 468 245 494 c 0,6,7
 249 518 249 518 234.5 533.5 c 128,-1,8
 220 549 220 549 192 549 c 0,9,10
 169 549 169 549 144 547 c 1,11,-1
 157 631 l 1,12,13
 192 629 192 629 203 629 c 0,14,15
 224 629 224 629 241 642.5 c 128,-1,16
 258 656 258 656 262 680 c 0,17,18
 265 701 265 701 255.5 714 c 128,-1,19
 246 727 246 727 227 727 c 0,20,21
 191 727 191 727 163 667 c 1,22,-1
 88 692 l 1,23,24
 103 731 103 731 125.5 757 c 128,-1,25
 148 783 148 783 173 794 c 128,-1,26
 198 805 198 805 214 808 c 128,-1,27
 230 811 230 811 245 811 c 0,28,29
 307 811 307 811 339.5 776.5 c 128,-1,30
 372 742 372 742 363 689 c 0,31,32
 353 631 353 631 303 595 c 1,33,34
 356 562 356 562 346 494 c 0,35,36
 335 430 335 430 287.5 392.5 c 128,-1,37
 240 355 240 355 170 355 c 0,38,39
 121 355 121 355 83 383.5 c 128,-1,40
 45 412 45 412 42 469 c 1,0,-1
EndSplineSet
EndChar

StartChar: acute
Encoding: 180 180 118
Width: 393
GlyphClass: 2
Flags: W
LayerCount: 2
Fore
SplineSet
140 643 m 1,0,-1
 271 821 l 1,1,-1
 436 821 l 1,2,-1
 257 643 l 1,3,-1
 140 643 l 1,0,-1
EndSplineSet
EndChar

StartChar: uni00B5
Encoding: 181 181 119
Width: 526
GlyphClass: 2
Flags: W
LayerCount: 2
Fore
SplineSet
-27 -212 m 1,0,-1
 98 540 l 1,1,-1
 232 540 l 1,2,-1
 178 214 l 2,3,4
 160 106 160 106 229 106 c 0,5,6
 270 106 270 106 300.5 146.5 c 128,-1,7
 331 187 331 187 340 241 c 2,8,-1
 389 540 l 1,9,-1
 523 540 l 1,10,-1
 434 0 l 1,11,-1
 306 0 l 1,12,-1
 314 45 l 1,13,-1
 313 45 l 1,14,15
 298 24 298 24 263.5 4 c 128,-1,16
 229 -16 229 -16 185 -16 c 0,17,18
 158 -16 158 -16 142 -6 c 1,19,-1
 108 -212 l 1,20,-1
 -27 -212 l 1,0,-1
EndSplineSet
EndChar

StartChar: paragraph
Encoding: 182 182 120
Width: 612
GlyphClass: 2
Flags: W
LayerCount: 2
Fore
SplineSet
85 551 m 0,0,1
 102 651 102 651 164.5 712.5 c 128,-1,2
 227 774 227 774 328 774 c 2,3,-1
 627 774 l 1,4,-1
 487 -72 l 1,5,-1
 372 -72 l 1,6,-1
 490 643 l 1,7,-1
 437 643 l 1,8,-1
 318 -72 l 1,9,-1
 203 -72 l 1,10,-1
 267 320 l 1,11,12
 254 317 254 317 239 317 c 0,13,14
 158 317 158 317 112 377 c 128,-1,15
 66 437 66 437 85 551 c 0,0,1
EndSplineSet
EndChar

StartChar: periodcentered
Encoding: 183 183 121
Width: 335
GlyphClass: 2
Flags: W
LayerCount: 2
Fore
SplineSet
80 274 m 1,0,-1
 107 433 l 1,1,-1
 279 433 l 1,2,-1
 253 274 l 1,3,-1
 80 274 l 1,0,-1
EndSplineSet
EndChar

StartChar: cedilla
Encoding: 184 184 122
Width: 304
GlyphClass: 2
Flags: W
LayerCount: 2
Fore
SplineSet
-27 -112 m 1,0,1
 12 -121 12 -121 30 -121 c 0,2,3
 71 -121 71 -121 74 -103 c 0,4,5
 79 -74 79 -74 -5 -71 c 1,6,-1
 78 56 l 1,7,-1
 201 56 l 1,8,-1
 161 -7 l 1,9,10
 217 -31 217 -31 204 -105 c 0,11,12
 196 -151 196 -151 155 -186.5 c 128,-1,13
 114 -222 114 -222 26 -222 c 0,14,15
 -19 -222 -19 -222 -44 -214 c 1,16,-1
 -27 -112 l 1,0,1
EndSplineSet
EndChar

StartChar: onesuperior
Encoding: 185 185 123
Width: 317
GlyphClass: 2
Flags: W
LayerCount: 2
Fore
SplineSet
94 648 m 1,0,-1
 107 727 l 1,1,-1
 133 727 l 2,2,3
 176 727 176 727 198 745 c 128,-1,4
 220 763 220 763 224 789 c 2,5,-1
 227 805 l 1,6,-1
 314 805 l 1,7,-1
 241 367 l 1,8,-1
 142 367 l 1,9,-1
 189 648 l 1,10,-1
 94 648 l 1,0,-1
EndSplineSet
EndChar

StartChar: ordmasculine
Encoding: 186 186 124
Width: 384
GlyphClass: 2
Flags: W
LayerCount: 2
Fore
SplineSet
169 609 m 0,0,1
 158 545 158 545 177.5 517.5 c 128,-1,2
 197 490 197 490 226 490 c 0,3,4
 255 490 255 490 283.5 517.5 c 128,-1,5
 312 545 312 545 323 609 c 0,6,7
 334 674 334 674 314.5 701.5 c 128,-1,8
 295 729 295 729 265 729 c 256,9,10
 236 729 236 729 208 701.5 c 128,-1,11
 180 674 180 674 169 609 c 0,0,1
71 609 m 0,12,13
 78 649 78 649 93.5 684 c 128,-1,14
 109 719 109 719 134 748.5 c 128,-1,15
 159 778 159 778 196.5 795 c 128,-1,16
 234 812 234 812 279 812 c 0,17,18
 367 812 367 812 401 753 c 128,-1,19
 435 694 435 694 421 609 c 0,20,21
 417 584 417 584 408.5 559 c 128,-1,22
 400 534 400 534 383.5 505.5 c 128,-1,23
 367 477 367 477 344.5 456 c 128,-1,24
 322 435 322 435 288 421 c 128,-1,25
 254 407 254 407 212 407 c 0,26,27
 162 407 162 407 129.5 426.5 c 128,-1,28
 97 446 97 446 83.5 478 c 128,-1,29
 70 510 70 510 67.5 542 c 128,-1,30
 65 574 65 574 71 609 c 0,12,13
17 267 m 1,31,-1
 32 355 l 1,32,-1
 377 355 l 1,33,-1
 362 267 l 1,34,-1
 17 267 l 1,31,-1
EndSplineSet
EndChar

StartChar: guillemotright
Encoding: 187 187 125
Width: 538
GlyphClass: 2
Flags: W
LayerCount: 2
Fore
SplineSet
61 442 m 1,0,-1
 169 518 l 1,1,-1
 296 274 l 1,2,-1
 89 30 l 1,3,-1
 5 104 l 1,4,-1
 147 274 l 1,5,-1
 61 442 l 1,0,-1
209 89 m 1,6,-1
 355 274 l 1,7,-1
 269 465 l 1,8,-1
 382 533 l 1,9,-1
 505 274 l 1,10,-1
 296 17 l 1,11,-1
 209 89 l 1,6,-1
EndSplineSet
EndChar

StartChar: onequarter
Encoding: 188 188 126
Width: 954
GlyphClass: 2
Flags: W
LayerCount: 2
Fore
SplineSet
652 149 m 1,0,-1
 721 149 l 1,1,-1
 731 208 l 2,2,3
 732 217 732 217 737 243 c 128,-1,4
 742 269 742 269 742 272 c 1,5,-1
 652 149 l 1,0,-1
98 604 m 1,6,-1
 114 703 l 1,7,-1
 149 703 l 2,8,9
 236 703 236 703 247 769 c 2,10,-1
 251 792 l 1,11,-1
 359 792 l 1,12,-1
 275 284 l 1,13,-1
 153 284 l 1,14,-1
 206 604 l 1,15,-1
 98 604 l 1,6,-1
112 -52 m 1,16,-1
 709 783 l 1,17,-1
 839 783 l 1,18,-1
 245 -52 l 1,19,-1
 112 -52 l 1,16,-1
531 139 m 1,20,-1
 792 460 l 1,21,-1
 891 460 l 1,22,-1
 840 149 l 1,23,-1
 892 149 l 1,24,-1
 874 45 l 1,25,-1
 822 45 l 1,26,-1
 806 -55 l 1,27,-1
 687 -55 l 1,28,-1
 704 45 l 1,29,-1
 516 45 l 1,30,-1
 531 139 l 1,20,-1
EndSplineSet
Ligature2: "'frac' Diagonal Fractions lookup 7 subtable" one fraction four
Ligature2: "'frac' Diagonal Fractions lookup 7 subtable" one slash four
EndChar

StartChar: onehalf
Encoding: 189 189 127
Width: 953
GlyphClass: 2
Flags: W
LayerCount: 2
Fore
SplineSet
93 -52 m 1,0,-1
 699 783 l 1,1,-1
 828 783 l 1,2,-1
 226 -52 l 1,3,-1
 93 -52 l 1,0,-1
572 313 m 1,4,5
 578 332 578 332 584 345 c 128,-1,6
 590 358 590 358 606.5 383.5 c 128,-1,7
 623 409 623 409 642.5 425.5 c 128,-1,8
 662 442 662 442 694 455.5 c 128,-1,9
 726 469 726 469 763 469 c 0,10,11
 835 469 835 469 873 427 c 128,-1,12
 911 385 911 385 899 315 c 0,13,14
 894 286 894 286 883.5 262.5 c 128,-1,15
 873 239 873 239 849 213.5 c 128,-1,16
 825 188 825 188 814 177.5 c 128,-1,17
 803 167 803 167 769 137 c 0,18,19
 709 86 709 86 686 57 c 1,20,-1
 855 57 l 1,21,-1
 837 -48 l 1,22,-1
 519 -48 l 1,23,24
 532 31 532 31 572 85.5 c 128,-1,25
 612 140 612 140 719 229 c 0,26,27
 770 271 770 271 777 317 c 0,28,29
 781 339 781 339 771.5 351.5 c 128,-1,30
 762 364 762 364 745 364 c 0,31,32
 725 364 725 364 708.5 349 c 128,-1,33
 692 334 692 334 685 319 c 128,-1,34
 678 304 678 304 669 281 c 1,35,-1
 572 313 l 1,4,5
98 604 m 1,36,-1
 114 703 l 1,37,-1
 149 703 l 2,38,39
 236 703 236 703 247 769 c 2,40,-1
 251 792 l 1,41,-1
 359 792 l 1,42,-1
 275 284 l 1,43,-1
 153 284 l 1,44,-1
 206 604 l 1,45,-1
 98 604 l 1,36,-1
EndSplineSet
Ligature2: "'frac' Diagonal Fractions lookup 7 subtable" one fraction two
Ligature2: "'frac' Diagonal Fractions lookup 7 subtable" one slash two
EndChar

StartChar: threequarters
Encoding: 190 190 128
Width: 955
GlyphClass: 2
Flags: W
LayerCount: 2
Fore
SplineSet
60 407 m 1,0,-1
 163 442 l 1,1,2
 166 428 166 428 168.5 421 c 128,-1,3
 171 414 171 414 178 401 c 128,-1,4
 185 388 185 388 197 381.5 c 128,-1,5
 209 375 209 375 227 375 c 0,6,7
 250 375 250 375 268 390 c 128,-1,8
 286 405 286 405 291 433 c 0,9,10
 295 458 295 458 280.5 474.5 c 128,-1,11
 266 491 266 491 235 491 c 0,12,13
 221 491 221 491 176 486 c 1,14,-1
 194 592 l 1,15,16
 215 590 215 590 249 590 c 0,17,18
 270 590 270 590 288 604 c 128,-1,19
 306 618 306 618 310 644 c 0,20,21
 314 666 314 666 304 679.5 c 128,-1,22
 294 693 294 693 274 693 c 0,23,24
 250 693 250 693 235 675 c 128,-1,25
 220 657 220 657 205 624 c 1,26,-1
 111 654 l 1,27,28
 128 699 128 699 154.5 730.5 c 128,-1,29
 181 762 181 762 209.5 775 c 128,-1,30
 238 788 238 788 258.5 793 c 128,-1,31
 279 798 279 798 299 798 c 0,32,33
 372 798 372 798 408.5 757.5 c 128,-1,34
 445 717 445 717 435 654 c 0,35,36
 424 590 424 590 370 548 c 1,37,38
 427 508 427 508 415 433 c 0,39,40
 402 357 402 357 347 313.5 c 128,-1,41
 292 270 292 270 210 270 c 0,42,43
 152 270 152 270 108.5 303.5 c 128,-1,44
 65 337 65 337 60 407 c 1,0,-1
532 138 m 1,45,-1
 793 460 l 1,46,-1
 893 460 l 1,47,-1
 842 149 l 1,48,-1
 893 149 l 1,49,-1
 876 45 l 1,50,-1
 825 45 l 1,51,-1
 808 -55 l 1,52,-1
 689 -55 l 1,53,-1
 705 45 l 1,54,-1
 517 45 l 1,55,-1
 532 138 l 1,45,-1
654 149 m 1,56,-1
 722 149 l 1,57,-1
 731 201 l 2,58,59
 732 210 732 210 737.5 239.5 c 128,-1,60
 743 269 743 269 744 272 c 1,61,-1
 654 149 l 1,56,-1
153 -52 m 1,62,-1
 765 783 l 1,63,-1
 895 783 l 1,64,-1
 285 -52 l 1,65,-1
 153 -52 l 1,62,-1
EndSplineSet
Ligature2: "'frac' Diagonal Fractions lookup 7 subtable" three fraction four
Ligature2: "'frac' Diagonal Fractions lookup 7 subtable" three slash four
EndChar

StartChar: questiondown
Encoding: 191 191 129
Width: 562
GlyphClass: 2
Flags: W
LayerCount: 2
Fore
SplineSet
4 1 m 0,0,1
 11 45 11 45 33 80 c 128,-1,2
 55 115 55 115 82 138 c 128,-1,3
 109 161 109 161 136 182.5 c 128,-1,4
 163 204 163 204 184 233.5 c 128,-1,5
 205 263 205 263 211 299 c 2,6,-1
 217 333 l 1,7,-1
 365 333 l 1,8,-1
 357 285 l 2,9,10
 350 241 350 241 328 205 c 128,-1,11
 306 169 306 169 279 145.5 c 128,-1,12
 252 122 252 122 225.5 101 c 128,-1,13
 199 80 199 80 179 52.5 c 128,-1,14
 159 25 159 25 154 -7 c 0,15,16
 148 -43 148 -43 164 -64.5 c 128,-1,17
 180 -86 180 -86 212 -86 c 0,18,19
 249 -86 249 -86 278.5 -60 c 128,-1,20
 308 -34 308 -34 337 21 c 1,21,-1
 460 -23 l 1,22,23
 428 -101 428 -101 357 -157.5 c 128,-1,24
 286 -214 286 -214 191 -214 c 0,25,26
 93 -214 93 -214 40.5 -154.5 c 128,-1,27
 -12 -95 -12 -95 4 1 c 0,0,1
213 387 m 1,28,-1
 239 545 l 1,29,-1
 412 545 l 1,30,-1
 386 387 l 1,31,-1
 213 387 l 1,28,-1
EndSplineSet
EndChar

StartChar: AE
Encoding: 198 198 136
Width: 947
GlyphClass: 3
Flags: W
LayerCount: 2
Fore
SplineSet
284 284 m 1,0,-1
 444 284 l 1,1,-1
 495 592 l 1,2,-1
 486 592 l 1,3,-1
 284 284 l 1,0,-1
-51 0 m 1,4,-1
 436 735 l 1,5,-1
 991 735 l 1,6,-1
 970 608 l 1,7,-1
 644 608 l 1,8,-1
 616 442 l 1,9,-1
 908 442 l 1,10,-1
 888 317 l 1,11,-1
 586 317 l 1,12,-1
 554 127 l 1,13,-1
 900 127 l 1,14,-1
 879 0 l 1,15,-1
 397 0 l 1,16,-1
 424 164 l 1,17,-1
 208 164 l 1,18,-1
 102 0 l 1,19,-1
 -51 0 l 1,4,-1
EndSplineSet
EndChar

StartChar: multiply
Encoding: 215 215 153
Width: 540
GlyphClass: 2
Flags: W
LayerCount: 2
Fore
SplineSet
16 214 m 1,0,-1
 196 365 l 1,1,-1
 66 515 l 1,2,-1
 173 606 l 1,3,-1
 298 454 l 1,4,-1
 475 606 l 1,5,-1
 553 515 l 1,6,-1
 372 365 l 1,7,-1
 503 214 l 1,8,-1
 395 124 l 1,9,-1
 269 276 l 1,10,-1
 93 124 l 1,11,-1
 16 214 l 1,0,-1
EndSplineSet
EndChar

StartChar: Oslash
Encoding: 216 216 154
Width: 688
GlyphClass: 2
Flags: W
LayerCount: 2
Fore
SplineSet
43 367 m 0,0,1
 71 539 71 539 176 645 c 128,-1,2
 281 751 281 751 422 751 c 0,3,4
 494 751 494 751 548 722 c 1,5,-1
 592 786 l 1,6,-1
 710 786 l 1,7,-1
 622 660 l 1,8,9
 705 554 705 554 674 367 c 0,10,11
 646 195 646 195 541 89.5 c 128,-1,12
 436 -16 436 -16 295 -16 c 0,13,14
 221 -16 221 -16 174 8 c 1,15,-1
 131 -51 l 1,16,-1
 16 -51 l 1,17,-1
 99 66 l 1,18,19
 11 174 11 174 43 367 c 0,0,1
520 519 m 1,20,-1
 257 125 l 1,21,22
 275 111 275 111 316 111 c 0,23,24
 393 111 393 111 447.5 180 c 128,-1,25
 502 249 502 249 521 367 c 0,26,27
 536 457 536 457 520 519 c 1,20,-1
466 605 m 1,28,29
 438 623 438 623 401 623 c 0,30,31
 324 623 324 623 269 554 c 128,-1,32
 214 485 214 485 195 367 c 0,33,34
 180 276 180 276 198 206 c 1,35,-1
 466 605 l 1,28,29
EndSplineSet
EndChar

StartChar: Thorn
Encoding: 222 222 160
Width: 554
GlyphClass: 2
Flags: W
LayerCount: 2
Fore
SplineSet
18 0 m 1,0,-1
 139 735 l 1,1,-1
 284 735 l 1,2,-1
 265 617 l 1,3,-1
 310 617 l 2,4,5
 387 617 387 617 440 595.5 c 128,-1,6
 493 574 493 574 516 537 c 128,-1,7
 539 500 539 500 545.5 459.5 c 128,-1,8
 552 419 552 419 545 372 c 0,9,10
 525 249 525 249 442.5 185 c 128,-1,11
 360 121 360 121 236 121 c 2,12,-1
 183 121 l 1,13,-1
 163 0 l 1,14,-1
 18 0 l 1,0,-1
204 249 m 1,15,-1
 243 249 l 2,16,17
 310 249 310 249 345.5 280 c 128,-1,18
 381 311 381 311 391 374 c 0,19,20
 410 491 410 491 279 491 c 2,21,-1
 244 491 l 1,22,-1
 204 249 l 1,15,-1
EndSplineSet
EndChar

StartChar: germandbls
Encoding: 223 223 161
Width: 596
GlyphClass: 3
Flags: W
LayerCount: 2
Fore
SplineSet
18 0 m 1,0,-1
 105 525 l 2,1,2
 123 635 123 635 195.5 693 c 128,-1,3
 268 751 268 751 361 751 c 0,4,5
 468 751 468 751 522.5 697 c 128,-1,6
 577 643 577 643 561 548 c 0,7,8
 545 452 545 452 461 403 c 1,9,-1
 461 401 l 1,10,11
 576 354 576 354 552 209 c 0,12,13
 534 101 534 101 463.5 42.5 c 128,-1,14
 393 -16 393 -16 287 -16 c 0,15,16
 222 -16 222 -16 182 -2 c 1,17,-1
 204 131 l 1,18,19
 250 110 250 110 303 110 c 0,20,21
 340 110 340 110 371 139.5 c 128,-1,22
 402 169 402 169 409 210 c 0,23,24
 428 323 428 323 313 323 c 2,25,-1
 247 323 l 1,26,-1
 268 449 l 1,27,-1
 321 449 l 2,28,29
 354 449 354 449 381 472 c 128,-1,30
 408 495 408 495 415 540 c 0,31,32
 421 578 421 578 402.5 600.5 c 128,-1,33
 384 623 384 623 346 623 c 0,34,35
 305 623 305 623 278 593.5 c 128,-1,36
 251 564 251 564 243 513 c 2,37,-1
 158 0 l 1,38,-1
 18 0 l 1,0,-1
EndSplineSet
EndChar

StartChar: ae
Encoding: 230 230 168
Width: 827
GlyphClass: 3
Flags: W
LayerCount: 2
Fore
SplineSet
2 150 m 0,0,1
 14 224 14 224 81.5 272.5 c 128,-1,2
 149 321 149 321 260 337 c 0,3,4
 319 346 319 346 345 351 c 1,5,-1
 350 384 l 2,6,7
 355 413 355 413 333.5 429 c 128,-1,8
 312 445 312 445 282 445 c 0,9,10
 206 445 206 445 132 379 c 1,11,-1
 65 450 l 1,12,13
 164 556 164 556 301 556 c 0,14,15
 405 556 405 556 452 497 c 1,16,17
 522 556 522 556 616 556 c 0,18,19
 711 556 711 556 767 477 c 128,-1,20
 823 398 823 398 802 270 c 0,21,22
 801 263 801 263 792 220 c 1,23,-1
 454 220 l 1,24,-1
 452 211 l 2,25,26
 446 169 446 169 468 133.5 c 128,-1,27
 490 98 490 98 544 98 c 0,28,29
 617 98 617 98 668 170 c 1,30,-1
 771 127 l 1,31,32
 739 69 739 69 673 26.5 c 128,-1,33
 607 -16 607 -16 524 -16 c 0,34,35
 402 -16 402 -16 351 77 c 1,36,37
 306 31 306 31 259.5 7.5 c 128,-1,38
 213 -16 213 -16 155 -16 c 0,39,40
 72 -16 72 -16 31 29.5 c 128,-1,41
 -10 75 -10 75 2 150 c 0,0,1
140 160 m 0,42,43
 136 138 136 138 151 120 c 128,-1,44
 166 102 166 102 193 102 c 0,45,46
 239 102 239 102 277 136 c 128,-1,47
 315 170 315 170 323 218 c 2,48,-1
 329 256 l 1,49,50
 323 255 323 255 299 249.5 c 128,-1,51
 275 244 275 244 258 241 c 0,52,53
 151 227 151 227 140 160 c 0,42,43
470 318 m 1,54,-1
 673 318 l 1,55,56
 673 320 673 320 674 322 c 0,57,58
 682 372 682 372 661 408 c 128,-1,59
 640 444 640 444 599 444 c 0,60,61
 514 444 514 444 475 343 c 1,62,-1
 470 318 l 1,54,-1
EndSplineSet
EndChar

StartChar: eth
Encoding: 240 240 178
Width: 523
GlyphClass: 2
Flags: W
LayerCount: 2
Fore
SplineSet
16 228 m 0,0,1
 35 345 35 345 110 416 c 128,-1,2
 185 487 185 487 285 487 c 0,3,4
 343 487 343 487 375 464 c 1,5,6
 371 515 371 515 333 562 c 1,7,-1
 241 498 l 1,8,-1
 178 589 l 1,9,-1
 245 636 l 1,10,11
 210 654 210 654 173 661 c 1,12,-1
 241 777 l 1,13,14
 284 770 284 770 324 755 c 0,15,16
 348 745 348 745 375 727 c 1,17,-1
 482 802 l 1,18,-1
 543 710 l 1,19,-1
 455 648 l 1,20,21
 466 633 466 633 474 616 c 0,22,23
 500 564 500 564 509 478.5 c 128,-1,24
 518 393 518 393 500 285 c 0,25,26
 477 148 477 148 399 66 c 128,-1,27
 321 -16 321 -16 204 -16 c 0,28,29
 102 -16 102 -16 50 51 c 128,-1,30
 -2 118 -2 118 16 228 c 0,0,1
155 234 m 0,31,32
 146 178 146 178 166 142 c 128,-1,33
 186 106 186 106 230 106 c 0,34,35
 271 106 271 106 302 140.5 c 128,-1,36
 333 175 333 175 343 234 c 0,37,38
 353 292 353 292 333.5 327.5 c 128,-1,39
 314 363 314 363 271 363 c 0,40,41
 229 363 229 363 196.5 327 c 128,-1,42
 164 291 164 291 155 234 c 0,31,32
EndSplineSet
EndChar

StartChar: divide
Encoding: 247 247 185
Width: 541
GlyphClass: 2
Flags: W
LayerCount: 2
Fore
SplineSet
225 485 m 1,0,-1
 250 639 l 1,1,-1
 406 639 l 1,2,-1
 380 485 l 1,3,-1
 225 485 l 1,0,-1
26 298 m 1,4,-1
 47 425 l 1,5,-1
 541 425 l 1,6,-1
 520 298 l 1,7,-1
 26 298 l 1,4,-1
158 83 m 1,8,-1
 184 239 l 1,9,-1
 340 239 l 1,10,-1
 314 83 l 1,11,-1
 158 83 l 1,8,-1
EndSplineSet
EndChar

StartChar: oslash
Encoding: 248 248 186
Width: 528
GlyphClass: 2
Flags: W
LayerCount: 2
Fore
SplineSet
23 269 m 0,0,1
 32 325 32 325 54 374.5 c 128,-1,2
 76 424 76 424 110.5 466 c 128,-1,3
 145 508 145 508 196.5 532 c 128,-1,4
 248 556 248 556 311 556 c 0,5,6
 362 556 362 556 402 539 c 1,7,-1
 447 607 l 1,8,-1
 547 607 l 1,9,-1
 467 488 l 1,10,11
 525 409 525 409 502 269 c 0,12,13
 496 233 496 233 484 197.5 c 128,-1,14
 472 162 472 162 449 122.5 c 128,-1,15
 426 83 426 83 395.5 53 c 128,-1,16
 365 23 365 23 318 3.5 c 128,-1,17
 271 -16 271 -16 215 -16 c 0,18,19
 160 -16 160 -16 125 -2 c 1,20,-1
 88 -54 l 1,21,-1
 -11 -54 l 1,22,-1
 60 48 l 1,23,24
 -1 127 -1 127 23 269 c 0,0,1
366 345 m 1,25,-1
 203 113 l 1,26,27
 218 106 218 106 236 106 c 0,28,29
 252 106 252 106 269 113 c 128,-1,30
 286 120 286 120 305 137 c 128,-1,31
 324 154 324 154 340 188.5 c 128,-1,32
 356 223 356 223 364 269 c 0,33,34
 371 311 371 311 366 345 c 1,25,-1
324 425 m 1,35,36
 306 434 306 434 290 434 c 0,37,38
 251 434 251 434 213.5 396.5 c 128,-1,39
 176 359 176 359 161 269 c 0,40,41
 154 229 154 229 160 189 c 1,42,-1
 324 425 l 1,35,36
EndSplineSet
EndChar

StartChar: thorn
Encoding: 254 254 192
Width: 555
GlyphClass: 2
Flags: W
LayerCount: 2
Fore
SplineSet
194 270 m 0,0,1
 181 194 181 194 200 150 c 128,-1,2
 219 106 219 106 265 106 c 256,3,4
 311 106 311 106 344 148 c 128,-1,5
 377 190 377 190 391 270 c 0,6,7
 404 346 404 346 385 390 c 128,-1,8
 366 434 366 434 319 434 c 256,9,10
 272 434 272 434 239 389.5 c 128,-1,11
 206 345 206 345 194 270 c 0,0,1
-19 -212 m 1,12,-1
 141 757 l 1,13,-1
 276 757 l 1,14,-1
 232 496 l 1,15,16
 249 520 249 520 283.5 538 c 128,-1,17
 318 556 318 556 359 556 c 0,18,19
 452 556 452 556 501.5 479 c 128,-1,20
 551 402 551 402 529 270 c 0,21,22
 517 195 517 195 487 137 c 128,-1,23
 457 79 457 79 419 47 c 128,-1,24
 381 15 381 15 342 -0.5 c 128,-1,25
 303 -16 303 -16 264 -16 c 0,26,27
 185 -16 185 -16 158 42 c 1,28,-1
 116 -212 l 1,29,-1
 -19 -212 l 1,12,-1
EndSplineSet
EndChar

StartChar: dcroat
Encoding: 273 273 211
Width: 550
GlyphClass: 2
Flags: W
LayerCount: 2
Fore
SplineSet
22 263 m 0,0,1
 44 398 44 398 118 469.5 c 128,-1,2
 192 541 192 541 285 541 c 0,3,4
 324 541 324 541 352.5 526 c 128,-1,5
 381 511 381 511 392 489 c 1,6,-1
 407 575 l 1,7,-1
 218 575 l 1,8,-1
 236 685 l 1,9,-1
 425 685 l 1,10,-1
 437 757 l 1,11,-1
 572 757 l 1,12,-1
 560 685 l 1,13,-1
 607 685 l 1,14,-1
 589 575 l 1,15,-1
 542 575 l 1,16,-1
 447 0 l 1,17,-1
 316 0 l 1,18,-1
 325 54 l 1,19,20
 302 23 302 23 267 3.5 c 128,-1,21
 232 -16 232 -16 193 -16 c 0,22,23
 102 -16 102 -16 50.5 55.5 c 128,-1,24
 -1 127 -1 127 22 263 c 0,0,1
161 263 m 0,25,26
 148 185 148 185 169 145.5 c 128,-1,27
 190 106 190 106 233 106 c 0,28,29
 278 106 278 106 311.5 148.5 c 128,-1,30
 345 191 345 191 357 263 c 0,31,32
 369 333 369 333 349.5 376 c 128,-1,33
 330 419 330 419 285 419 c 0,34,35
 241 419 241 419 207 376.5 c 128,-1,36
 173 334 173 334 161 263 c 0,25,26
EndSplineSet
EndChar

StartChar: uni0123
Encoding: 291 291 229
Width: 535
GlyphClass: 2
Flags: W
LayerCount: 2
Fore
SplineSet
241 621 m 1,0,-1
 363 817 l 1,1,-1
 455 817 l 1,2,-1
 386 621 l 1,3,-1
 241 621 l 1,0,-1
167 281 m 0,4,5
 155 206 155 206 173.5 167 c 128,-1,6
 192 128 192 128 233 128 c 0,7,8
 274 128 274 128 306 167 c 128,-1,9
 338 206 338 206 350 281 c 0,10,11
 362 354 362 354 343.5 394 c 128,-1,12
 325 434 325 434 283 434 c 0,13,14
 241 434 241 434 210 394 c 128,-1,15
 179 354 179 354 167 281 c 0,4,5
28 280 m 0,16,17
 49 407 49 407 121.5 481.5 c 128,-1,18
 194 556 194 556 287 556 c 0,19,20
 327 556 327 556 352 536.5 c 128,-1,21
 377 517 377 517 385 494 c 1,22,-1
 393 540 l 1,23,-1
 528 540 l 1,24,-1
 453 82 l 2,25,26
 428 -72 428 -72 356.5 -143.5 c 128,-1,27
 285 -215 285 -215 166 -215 c 0,28,29
 103 -215 103 -215 54 -187.5 c 128,-1,30
 5 -160 5 -160 -21 -108 c 1,31,-1
 78 -41 l 1,32,33
 115 -101 115 -101 187 -101 c 0,34,35
 226 -101 226 -101 259.5 -71.5 c 128,-1,36
 293 -42 293 -42 304 4 c 0,37,38
 311 37 311 37 315 57 c 1,39,40
 296 34 296 34 263 20 c 128,-1,41
 230 6 230 6 201 6 c 0,42,43
 105 6 105 6 56 80 c 128,-1,44
 7 154 7 154 28 280 c 0,16,17
EndSplineSet
EndChar

StartChar: Hbar
Encoding: 294 294 232
Width: 680
GlyphClass: 2
Flags: W
LayerCount: 2
Fore
SplineSet
47 534 m 1,0,-1
 66 652 l 1,1,-1
 130 652 l 1,2,-1
 144 735 l 1,3,-1
 289 735 l 1,4,-1
 275 652 l 1,5,-1
 528 652 l 1,6,-1
 542 735 l 1,7,-1
 687 735 l 1,8,-1
 673 652 l 1,9,-1
 738 652 l 1,10,-1
 718 534 l 1,11,-1
 653 534 l 1,12,-1
 565 0 l 1,13,-1
 420 0 l 1,14,-1
 472 314 l 1,15,-1
 219 314 l 1,16,-1
 167 0 l 1,17,-1
 22 0 l 1,18,-1
 111 534 l 1,19,-1
 47 534 l 1,0,-1
508 534 m 1,20,-1
 256 534 l 1,21,-1
 240 441 l 1,22,-1
 493 441 l 1,23,-1
 508 534 l 1,20,-1
EndSplineSet
EndChar

StartChar: hbar
Encoding: 295 295 233
Width: 529
GlyphClass: 2
Flags: W
LayerCount: 2
Fore
SplineSet
47 575 m 1,0,-1
 65 684 l 1,1,-1
 124 684 l 1,2,-1
 136 757 l 1,3,-1
 270 757 l 1,4,-1
 258 684 l 1,5,-1
 436 684 l 1,6,-1
 418 575 l 1,7,-1
 240 575 l 1,8,-1
 223 474 l 1,9,-1
 224 474 l 1,10,11
 282 526 282 526 350 526 c 0,12,13
 381 526 381 526 408 516.5 c 128,-1,14
 435 507 435 507 458 485 c 128,-1,15
 481 463 481 463 490.5 419.5 c 128,-1,16
 500 376 500 376 490 316 c 2,17,-1
 438 0 l 1,18,-1
 303 0 l 1,19,-1
 353 302 l 2,20,21
 370 403 370 403 305 403 c 0,22,23
 263 403 263 403 230.5 364 c 0,24,25
 197 325 197 325 189 272 c 2,26,-1
 144 0 l 1,27,-1
 11 0 l 1,28,-1
 106 575 l 1,29,-1
 47 575 l 1,0,-1
EndSplineSet
EndChar

StartChar: dotlessi
Encoding: 305 305 243
Width: 245
GlyphClass: 2
Flags: W
LayerCount: 2
Fore
SplineSet
9 0 m 1,0,-1
 98 540 l 1,1,-1
 232 540 l 1,2,-1
 143 0 l 1,3,-1
 9 0 l 1,0,-1
EndSplineSet
EndChar

StartChar: kgreenlandic
Encoding: 312 312 250
Width: 522
GlyphClass: 2
Flags: W
LayerCount: 2
Fore
SplineSet
9 0 m 1,0,-1
 98 540 l 1,1,-1
 231 540 l 1,2,-1
 202 364 l 1,3,-1
 205 364 l 1,4,-1
 404 540 l 1,5,-1
 575 540 l 1,6,-1
 306 303 l 1,7,-1
 486 0 l 1,8,-1
 325 0 l 1,9,-1
 202 200 l 1,10,-1
 170 168 l 1,11,-1
 142 0 l 1,12,-1
 9 0 l 1,0,-1
EndSplineSet
EndChar

StartChar: Lslash
Encoding: 321 321 259
Width: 546
GlyphClass: 2
Flags: W
LayerCount: 2
Fore
SplineSet
228 329 m 1,0,-1
 195 127 l 1,1,-1
 511 127 l 1,2,-1
 490 0 l 1,3,-1
 28 0 l 1,4,-1
 67 239 l 1,5,-1
 -13 193 l 1,6,-1
 -61 304 l 1,7,-1
 92 390 l 1,8,-1
 149 735 l 1,9,-1
 295 735 l 1,10,-1
 253 480 l 1,11,-1
 368 547 l 1,12,-1
 416 437 l 1,13,-1
 228 329 l 1,0,-1
EndSplineSet
EndChar

StartChar: lslash
Encoding: 322 322 260
Width: 263
GlyphClass: 2
Flags: W
LayerCount: 2
Fore
SplineSet
209 345 m 1,0,-1
 152 0 l 1,1,-1
 18 0 l 1,2,-1
 61 262 l 1,3,-1
 -19 217 l 1,4,-1
 -65 328 l 1,5,-1
 86 413 l 1,6,-1
 143 757 l 1,7,-1
 278 757 l 1,8,-1
 234 496 l 1,9,-1
 315 540 l 1,10,-1
 359 430 l 1,11,-1
 209 345 l 1,0,-1
EndSplineSet
EndChar

StartChar: Eng
Encoding: 330 330 268
Width: 675
GlyphClass: 2
Flags: W
LayerCount: 2
Fore
SplineSet
18 0 m 1,0,-1
 139 735 l 1,1,-1
 288 735 l 1,2,-1
 467 225 l 1,3,-1
 470 225 l 1,4,5
 471 312 471 312 492 437 c 2,6,-1
 541 735 l 1,7,-1
 688 735 l 1,8,-1
 570 20 l 2,9,10
 560 -43 560 -43 535.5 -89 c 128,-1,11
 511 -135 511 -135 478.5 -158.5 c 128,-1,12
 446 -182 446 -182 413.5 -193 c 128,-1,13
 381 -204 381 -204 345 -204 c 0,14,15
 303 -204 303 -204 243 -192 c 1,16,-1
 263 -68 l 1,17,18
 295 -76 295 -76 335 -76 c 0,19,20
 371 -76 371 -76 389.5 -59.5 c 128,-1,21
 408 -43 408 -43 419 -3 c 1,22,-1
 278 377 l 1,23,-1
 236 506 l 1,24,-1
 232 506 l 1,25,26
 225 367 225 367 212 294 c 2,27,-1
 164 0 l 1,28,-1
 18 0 l 1,0,-1
EndSplineSet
EndChar

StartChar: eng
Encoding: 331 331 269
Width: 523
GlyphClass: 2
Flags: W
LayerCount: 2
Fore
SplineSet
4 0 m 1,0,-1
 93 540 l 1,1,-1
 222 540 l 1,2,-1
 214 488 l 1,3,-1
 214 488 l 1,4,5
 271 556 271 556 355 556 c 0,6,7
 524 556 524 556 490 346 c 2,8,-1
 434 8 l 2,9,10
 424 -55 424 -55 398 -101 c 128,-1,11
 372 -147 372 -147 339.5 -170.5 c 128,-1,12
 307 -194 307 -194 276 -204.5 c 128,-1,13
 245 -215 245 -215 215 -215 c 0,14,15
 182 -215 182 -215 127 -205 c 1,16,-1
 148 -79 l 1,17,18
 187 -89 187 -89 213 -89 c 0,19,20
 283 -89 283 -89 296 -11 c 2,21,-1
 352 329 l 2,22,23
 360 379 360 379 351.5 406.5 c 128,-1,24
 343 434 343 434 306 434 c 0,25,26
 263 434 263 434 230.5 398 c 128,-1,27
 198 362 198 362 189 307 c 2,28,-1
 138 0 l 1,29,-1
 4 0 l 1,0,-1
EndSplineSet
EndChar

StartChar: OE
Encoding: 338 338 276
Width: 961
GlyphClass: 3
Flags: W
LayerCount: 2
Fore
SplineSet
43 367 m 256,0,1
 71 539 71 539 176 645 c 128,-1,2
 281 751 281 751 423 751 c 0,3,4
 486 751 486 751 520 735 c 1,5,-1
 1004 735 l 1,6,-1
 983 607 l 1,7,-1
 639 607 l 1,8,-1
 612 442 l 1,9,-1
 922 442 l 1,10,-1
 901 317 l 1,11,-1
 591 317 l 1,12,-1
 560 127 l 1,13,-1
 915 127 l 1,14,-1
 894 0 l 1,15,-1
 401 0 l 1,16,17
 350 -16 350 -16 296 -16 c 0,18,19
 152 -16 152 -16 83.5 89.5 c 128,-1,20
 15 195 15 195 43 367 c 256,0,1
195 367 m 256,21,22
 175 249 175 249 207.5 180 c 128,-1,23
 240 111 240 111 317 111 c 0,24,25
 369 111 369 111 416 148 c 1,26,-1
 489 586 l 1,27,28
 459 623 459 623 402 623 c 0,29,30
 325 623 325 623 270 554 c 128,-1,31
 215 485 215 485 195 367 c 256,21,22
EndSplineSet
EndChar

StartChar: uni0163
Encoding: 355 355 293
Width: 350
GlyphClass: 2
Flags: W
LayerCount: 2
Fore
SplineSet
36 419 m 1,0,-1
 56 540 l 1,1,-1
 129 540 l 1,2,-1
 155 694 l 1,3,-1
 288 694 l 1,4,-1
 263 540 l 1,5,-1
 368 540 l 1,6,-1
 348 419 l 1,7,-1
 243 419 l 1,8,-1
 203 181 l 2,9,10
 193 122 193 122 242 122 c 2,11,-1
 300 122 l 1,12,-1
 280 0 l 1,13,-1
 233 0 l 1,14,-1
 222 -25 l 1,15,16
 254 -33 254 -33 269.5 -55 c 128,-1,17
 285 -77 285 -77 280 -109 c 0,18,19
 273 -153 273 -153 231.5 -185 c 128,-1,20
 190 -217 190 -217 109 -217 c 0,21,22
 64 -217 64 -217 27 -207 c 1,23,-1
 42 -119 l 1,24,25
 85 -128 85 -128 119 -128 c 0,26,27
 172 -128 172 -128 177 -100 c 0,28,29
 181 -74 181 -74 93 -71 c 2,30,-1
 85 -71 l 1,31,-1
 120 17 l 1,32,33
 49 55 49 55 68 173 c 2,34,-1
 109 419 l 1,35,-1
 36 419 l 1,0,-1
EndSplineSet
Substitution2: "'locl' Localized Forms in Latin lookup 3 subtable" uni021B
Substitution2: "'locl' Localized Forms in Latin lookup 2 subtable" uni021B
Substitution2: "'aalt' Access All Alternates lookup 0 subtable" uni021B
EndChar

StartChar: tbar
Encoding: 359 359 297
Width: 351
GlyphClass: 2
Flags: W
LayerCount: 2
Fore
SplineSet
37 419 m 1,0,-1
 57 540 l 1,1,-1
 130 540 l 1,2,-1
 155 694 l 1,3,-1
 289 694 l 1,4,-1
 263 540 l 1,5,-1
 370 540 l 1,6,-1
 350 419 l 1,7,-1
 243 419 l 1,8,-1
 235 367 l 1,9,-1
 338 367 l 1,10,-1
 319 249 l 1,11,-1
 215 249 l 1,12,-1
 204 181 l 2,13,14
 194 122 194 122 243 122 c 2,15,-1
 301 122 l 1,16,-1
 281 0 l 1,17,-1
 207 0 l 2,18,19
 41 0 41 0 69 173 c 2,20,-1
 82 249 l 1,21,-1
 -5 249 l 1,22,-1
 15 367 l 1,23,-1
 101 367 l 1,24,-1
 110 419 l 1,25,-1
 37 419 l 1,0,-1
EndSplineSet
EndChar

StartChar: longs
Encoding: 383 383 321
Width: 299
GlyphClass: 2
Flags: W
LayerCount: 2
Fore
SplineSet
13 0 m 1,0,-1
 110 585 l 2,1,2
 124 670 124 670 171.5 713.5 c 128,-1,3
 219 757 219 757 293 757 c 2,4,-1
 381 757 l 1,5,-1
 361 634 l 1,6,-1
 300 634 l 2,7,8
 275 634 275 634 261.5 620 c 128,-1,9
 248 606 248 606 242 572 c 2,10,-1
 147 0 l 1,11,-1
 13 0 l 1,0,-1
EndSplineSet
EndChar

StartChar: uni0180
Encoding: 384 384 322
Width: 550
GlyphClass: 2
Flags: W
LayerCount: 2
Fore
SplineSet
187 265 m 0,0,1
 175 192 175 192 194.5 149 c 128,-1,2
 214 106 214 106 261 106 c 0,3,4
 304 106 304 106 337.5 147 c 128,-1,5
 371 188 371 188 384 265 c 0,6,7
 396 337 396 337 376.5 380.5 c 128,-1,8
 357 424 357 424 313 424 c 0,9,10
 267 424 267 424 233 380 c 128,-1,11
 199 336 199 336 187 265 c 0,0,1
47 575 m 1,12,-1
 66 686 l 1,13,-1
 125 686 l 1,14,-1
 136 757 l 1,15,-1
 270 757 l 1,16,-1
 258 686 l 1,17,-1
 431 686 l 1,18,-1
 413 575 l 1,19,-1
 240 575 l 1,20,-1
 225 489 l 1,21,22
 286 546 286 546 353 546 c 0,23,24
 446 546 446 546 495.5 471 c 128,-1,25
 545 396 545 396 523 265 c 0,26,27
 511 191 511 191 481.5 134.5 c 128,-1,28
 452 78 452 78 414 46.5 c 128,-1,29
 376 15 376 15 337.5 -0.5 c 128,-1,30
 299 -16 299 -16 262 -16 c 0,31,32
 219 -16 219 -16 189 5 c 128,-1,33
 159 26 159 26 149 53 c 1,34,-1
 141 0 l 1,35,-1
 11 0 l 1,36,-1
 106 575 l 1,37,-1
 47 575 l 1,12,-1
EndSplineSet
EndChar

StartChar: uni0182
Encoding: 386 386 324
Width: 638
GlyphClass: 2
Flags: W
LayerCount: 2
Fore
SplineSet
185 127 m 1,0,-1
 334 127 l 2,1,2
 374 127 374 127 405.5 149.5 c 128,-1,3
 437 172 437 172 445 219 c 0,4,5
 451 258 451 258 432 286 c 128,-1,6
 413 314 413 314 365 314 c 2,7,-1
 216 314 l 1,8,-1
 185 127 l 1,0,-1
18 0 m 1,9,-1
 139 735 l 1,10,-1
 598 735 l 1,11,-1
 577 607 l 1,12,-1
 264 607 l 1,13,-1
 237 441 l 1,14,-1
 395 441 l 2,15,16
 511 441 511 441 562 377.5 c 128,-1,17
 613 314 613 314 597 219 c 0,18,19
 582 127 582 127 510.5 63.5 c 128,-1,20
 439 0 439 0 332 0 c 2,21,-1
 18 0 l 1,9,-1
EndSplineSet
EndChar

StartChar: uni0183
Encoding: 387 387 325
Width: 548
GlyphClass: 2
Flags: W
LayerCount: 2
Fore
SplineSet
186 270 m 0,0,1
 173 193 173 193 192.5 149.5 c 128,-1,2
 212 106 212 106 258 106 c 0,3,4
 302 106 302 106 335.5 147.5 c 128,-1,5
 369 189 369 189 382 270 c 0,6,7
 395 346 395 346 376.5 390 c 128,-1,8
 358 434 358 434 313 434 c 0,9,10
 264 434 264 434 231 389 c 128,-1,11
 198 344 198 344 186 270 c 0,0,1
9 0 m 1,12,-1
 132 746 l 1,13,-1
 515 746 l 1,14,-1
 494 623 l 1,15,-1
 245 623 l 1,16,-1
 225 502 l 1,17,18
 278 556 278 556 352 556 c 0,19,20
 446 556 446 556 495 479.5 c 128,-1,21
 544 403 544 403 522 270 c 0,22,23
 510 196 510 196 480.5 138 c 128,-1,24
 451 80 451 80 413.5 47.5 c 128,-1,25
 376 15 376 15 337.5 -0.5 c 128,-1,26
 299 -16 299 -16 259 -16 c 0,27,28
 217 -16 217 -16 187 5.5 c 128,-1,29
 157 27 157 27 147 53 c 1,30,-1
 138 0 l 1,31,-1
 9 0 l 1,12,-1
EndSplineSet
EndChar

StartChar: uni0184
Encoding: 388 388 326
Width: 645
GlyphClass: 2
Flags: W
LayerCount: 2
Fore
SplineSet
41 655 m 1,0,-1
 213 735 l 1,1,-1
 292 735 l 1,2,-1
 243 440 l 1,3,-1
 403 440 l 2,4,5
 520 440 520 440 570 377 c 128,-1,6
 620 314 620 314 604 219 c 0,7,8
 589 126 589 126 518 63 c 128,-1,9
 447 0 447 0 340 0 c 2,10,-1
 24 0 l 1,11,-1
 120 581 l 1,12,-1
 41 655 l 1,0,-1
191 127 m 1,13,-1
 340 127 l 2,14,15
 380 127 380 127 412 149 c 128,-1,16
 444 171 444 171 452 219 c 0,17,18
 458 258 458 258 439.5 286 c 128,-1,19
 421 314 421 314 371 314 c 2,20,-1
 222 314 l 1,21,-1
 191 127 l 1,13,-1
EndSplineSet
EndChar

StartChar: uni0185
Encoding: 389 389 327
Width: 551
GlyphClass: 2
Flags: W
LayerCount: 2
Fore
SplineSet
43 676 m 1,0,-1
 199 757 l 1,1,-1
 271 757 l 1,2,-1
 229 502 l 1,3,4
 242 520 242 520 277 538 c 128,-1,5
 312 556 312 556 356 556 c 0,6,7
 451 556 451 556 499 479.5 c 128,-1,8
 547 403 547 403 525 270 c 0,9,10
 513 197 513 197 484.5 140 c 128,-1,11
 456 83 456 83 419 50 c 128,-1,12
 382 17 382 17 342.5 0.5 c 128,-1,13
 303 -16 303 -16 263 -16 c 0,14,15
 222 -16 222 -16 192.5 4.5 c 128,-1,16
 163 25 163 25 150 53 c 1,17,-1
 142 0 l 1,18,-1
 12 0 l 1,19,-1
 112 603 l 1,20,-1
 43 676 l 1,0,-1
189 270 m 0,21,22
 176 193 176 193 195.5 149.5 c 128,-1,23
 215 106 215 106 262 106 c 0,24,25
 307 106 307 106 340 148.5 c 128,-1,26
 373 191 373 191 386 270 c 0,27,28
 398 345 398 345 381 389.5 c 128,-1,29
 364 434 364 434 316 434 c 0,30,31
 268 434 268 434 235 390 c 128,-1,32
 202 346 202 346 189 270 c 0,21,22
EndSplineSet
EndChar

StartChar: uni0186
Encoding: 390 390 328
Width: 654
GlyphClass: 2
Flags: W
LayerCount: 2
Fore
SplineSet
-1 188 m 1,0,-1
 138 231 l 1,1,2
 147 181 147 181 183 146 c 128,-1,3
 219 111 219 111 272 111 c 0,4,5
 351 111 351 111 410 180.5 c 128,-1,6
 469 250 469 250 488 368 c 0,7,8
 507 484 507 484 471.5 553.5 c 128,-1,9
 436 623 436 623 357 623 c 0,10,11
 304 623 304 623 267 595 c 128,-1,12
 230 567 230 567 197 522 c 1,13,-1
 79 564 l 1,14,15
 125 644 125 644 203 697.5 c 128,-1,16
 281 751 281 751 377 751 c 0,17,18
 520 751 520 751 594.5 647 c 128,-1,19
 669 543 669 543 640 368 c 0,20,21
 610 188 610 188 500 86 c 128,-1,22
 390 -16 390 -16 250 -16 c 0,23,24
 202 -16 202 -16 161.5 -2.5 c 128,-1,25
 121 11 121 11 94 32 c 128,-1,26
 67 53 67 53 46.5 81 c 128,-1,27
 26 109 26 109 15.5 135.5 c 128,-1,28
 5 162 5 162 -1 188 c 1,0,-1
EndSplineSet
EndChar

StartChar: uni018B
Encoding: 395 395 333
Width: 637
GlyphClass: 2
Flags: W
LayerCount: 2
Fore
SplineSet
171 219 m 0,0,1
 163 172 163 172 188.5 149.5 c 128,-1,2
 214 127 214 127 253 127 c 2,3,-1
 403 127 l 1,4,-1
 434 314 l 1,5,-1
 285 314 l 2,6,7
 237 314 237 314 207 286 c 128,-1,8
 177 258 177 258 171 219 c 0,0,1
20 219 m 0,9,10
 36 314 36 314 108 377.5 c 128,-1,11
 180 441 180 441 295 441 c 2,12,-1
 455 441 l 1,13,-1
 482 607 l 1,14,-1
 168 607 l 1,15,-1
 189 735 l 1,16,-1
 649 735 l 1,17,-1
 527 0 l 1,18,-1
 212 0 l 2,19,20
 106 0 106 0 55.5 63.5 c 128,-1,21
 5 127 5 127 20 219 c 0,9,10
EndSplineSet
EndChar

StartChar: uni018C
Encoding: 396 396 334
Width: 548
GlyphClass: 2
Flags: W
LayerCount: 2
Fore
SplineSet
161 270 m 0,0,1
 148 189 148 189 168 147.5 c 128,-1,2
 188 106 188 106 233 106 c 0,3,4
 281 106 281 106 313 150 c 128,-1,5
 345 194 345 194 358 270 c 0,6,7
 370 344 370 344 353 389 c 128,-1,8
 336 434 336 434 287 434 c 0,9,10
 240 434 240 434 207 390.5 c 128,-1,11
 174 347 174 347 161 270 c 0,0,1
23 270 m 0,12,13
 45 403 45 403 119 479.5 c 128,-1,14
 193 556 193 556 288 556 c 0,15,16
 362 556 362 556 394 501 c 1,17,-1
 417 635 l 1,18,-1
 168 635 l 1,19,-1
 188 757 l 1,20,-1
 572 757 l 1,21,-1
 447 0 l 1,22,-1
 316 0 l 1,23,-1
 325 53 l 1,24,25
 305 26 305 26 270 5 c 128,-1,26
 235 -16 235 -16 192 -16 c 0,27,28
 151 -16 151 -16 117.5 -0.5 c 128,-1,29
 84 15 84 15 57.5 48 c 128,-1,30
 31 81 31 81 21 138 c 128,-1,31
 11 195 11 195 23 270 c 0,12,13
EndSplineSet
EndChar

StartChar: uni018D
Encoding: 397 397 335
Width: 570
GlyphClass: 2
Flags: W
LayerCount: 2
Fore
SplineSet
171 322 m 0,0,1
 155 226 155 226 275 167 c 1,2,3
 331 194 331 194 368.5 233 c 128,-1,4
 406 272 406 272 414 319 c 0,5,6
 422 370 422 370 397 402.5 c 128,-1,7
 372 435 372 435 316 435 c 0,8,9
 255 435 255 435 217 402.5 c 128,-1,10
 179 370 179 370 171 322 c 0,0,1
31 319 m 0,11,12
 50 433 50 433 131 494.5 c 128,-1,13
 212 556 212 556 337 556 c 0,14,15
 458 556 458 556 515 491.5 c 128,-1,16
 572 427 572 427 555 325 c 0,17,18
 545 264 545 264 499 204 c 128,-1,19
 453 144 453 144 379 106 c 1,20,21
 412 81 412 81 424 43.5 c 128,-1,22
 436 6 436 6 430 -32 c 0,23,24
 415 -121 415 -121 343.5 -167.5 c 128,-1,25
 272 -214 272 -214 177 -214 c 0,26,27
 96 -214 96 -214 42.5 -177 c 128,-1,28
 -11 -140 -11 -140 -31 -78 c 1,29,-1
 76 -22 l 1,30,31
 91 -50 91 -50 122 -70.5 c 128,-1,32
 153 -91 153 -91 196 -91 c 0,33,34
 237 -91 237 -91 262 -75.5 c 128,-1,35
 287 -60 287 -60 291 -37 c 0,36,37
 292 -29 292 -29 289.5 -21 c 128,-1,38
 287 -13 287 -13 278.5 -4 c 128,-1,39
 270 5 270 5 263 11.5 c 128,-1,40
 256 18 256 18 238.5 29 c 128,-1,41
 221 40 221 40 212.5 45 c 128,-1,42
 204 50 204 50 182 64 c 0,43,44
 146 85 146 85 119.5 106 c 128,-1,45
 93 127 93 127 68 157.5 c 128,-1,46
 43 188 43 188 33 229 c 128,-1,47
 23 270 23 270 31 319 c 0,11,12
EndSplineSet
EndChar

StartChar: uni018E
Encoding: 398 398 336
Width: 580
GlyphClass: 2
Flags: W
LayerCount: 2
Fore
SplineSet
-16 0 m 1,0,-1
 5 127 l 1,1,-1
 347 127 l 1,2,-1
 378 317 l 1,3,-1
 71 317 l 1,4,-1
 92 442 l 1,5,-1
 399 442 l 1,6,-1
 426 607 l 1,7,-1
 77 607 l 1,8,-1
 98 735 l 1,9,-1
 593 735 l 1,10,-1
 472 0 l 1,11,-1
 -16 0 l 1,0,-1
EndSplineSet
EndChar

StartChar: uni018F
Encoding: 399 399 337
Width: 691
GlyphClass: 2
Flags: W
LayerCount: 2
Fore
SplineSet
42 370 m 0,0,1
 46 395 46 395 57 436 c 1,2,-1
 533 436 l 1,3,4
 539 529 539 529 500 576 c 128,-1,5
 461 623 461 623 396 623 c 0,6,7
 293 623 293 623 212 525 c 1,8,-1
 94 574 l 1,9,10
 151 661 151 661 235 706 c 128,-1,11
 319 751 319 751 420 751 c 0,12,13
 568 751 568 751 636.5 643 c 128,-1,14
 705 535 705 535 677 365 c 0,15,16
 650 199 650 199 542.5 91.5 c 128,-1,17
 435 -16 435 -16 293 -16 c 0,18,19
 154 -16 154 -16 83 87.5 c 128,-1,20
 12 191 12 191 42 370 c 0,0,1
187 308 m 1,21,22
 186 299 186 299 186 294 c 0,23,24
 182 217 182 217 215 164 c 128,-1,25
 248 111 248 111 316 111 c 0,26,27
 384 111 384 111 438.5 167 c 128,-1,28
 493 223 493 223 511 308 c 1,29,-1
 187 308 l 1,21,22
EndSplineSet
EndChar

StartChar: uni0190
Encoding: 400 400 338
Width: 598
GlyphClass: 2
Flags: W
LayerCount: 2
Fore
SplineSet
19 211 m 0,0,1
 30 278 30 278 74 322.5 c 128,-1,2
 118 367 118 367 169 386 c 1,3,4
 134 409 134 409 114 455 c 128,-1,5
 94 501 94 501 103 551 c 0,6,7
 118 642 118 642 193.5 696.5 c 128,-1,8
 269 751 269 751 376 751 c 0,9,10
 437 751 437 751 483 731.5 c 128,-1,11
 529 712 529 712 553.5 681 c 128,-1,12
 578 650 578 650 590 621 c 128,-1,13
 602 592 602 592 606 564 c 1,14,-1
 476 527 l 1,15,16
 446 628 446 628 364 628 c 0,17,18
 320 628 320 628 288.5 602 c 128,-1,19
 257 576 257 576 250 536 c 0,20,21
 243 491 243 491 276.5 463 c 128,-1,22
 310 435 310 435 353 435 c 0,23,24
 413 435 413 435 438 437 c 1,25,-1
 419 317 l 1,26,27
 378 319 378 319 334 319 c 0,28,29
 272 319 272 319 225 289 c 128,-1,30
 178 259 178 259 170 213 c 0,31,32
 161 161 161 161 193.5 133.5 c 128,-1,33
 226 106 226 106 281 106 c 0,34,35
 326 106 326 106 372.5 135.5 c 128,-1,36
 419 165 419 165 444 205 c 1,37,-1
 556 162 l 1,38,39
 511 76 511 76 433 30 c 128,-1,40
 355 -16 355 -16 254 -16 c 0,41,42
 130 -16 130 -16 66 45.5 c 128,-1,43
 2 107 2 107 19 211 c 0,0,1
EndSplineSet
EndChar

StartChar: uni0191
Encoding: 401 401 339
Width: 563
GlyphClass: 2
Flags: W
LayerCount: 2
Fore
SplineSet
-104 -82 m 1,0,1
 -73 -89 -73 -89 -53 -89 c 0,2,3
 12 -89 12 -89 28 11 c 2,4,-1
 148 735 l 1,5,-1
 620 735 l 1,6,-1
 599 607 l 1,7,-1
 271 607 l 1,8,-1
 242 431 l 1,9,-1
 535 431 l 1,10,-1
 514 304 l 1,11,-1
 221 304 l 1,12,-1
 173 11 l 2,13,14
 164 -42 164 -42 145.5 -83.5 c 128,-1,15
 127 -125 127 -125 104.5 -149 c 128,-1,16
 82 -173 82 -173 54.5 -189 c 128,-1,17
 27 -205 27 -205 3.5 -210 c 128,-1,18
 -20 -215 -20 -215 -44 -215 c 0,19,20
 -83 -215 -83 -215 -125 -207 c 1,21,-1
 -104 -82 l 1,0,1
EndSplineSet
EndChar

StartChar: florin
Encoding: 402 402 340
Width: 335
GlyphClass: 2
Flags: W
LayerCount: 2
Fore
SplineSet
-79 -83 m 1,0,1
 -54 -89 -54 -89 -30 -89 c 0,2,3
 33 -89 33 -89 50 10 c 2,4,-1
 117 419 l 1,5,-1
 44 419 l 1,6,-1
 64 540 l 1,7,-1
 137 540 l 1,8,-1
 145 585 l 2,9,10
 159 670 159 670 206 713.5 c 128,-1,11
 253 757 253 757 327 757 c 2,12,-1
 417 757 l 1,13,-1
 396 634 l 1,14,-1
 327 634 l 2,15,16
 305 634 305 634 294 621 c 128,-1,17
 283 608 283 608 278 576 c 2,18,-1
 272 540 l 1,19,-1
 370 540 l 1,20,-1
 349 419 l 1,21,-1
 252 419 l 1,22,-1
 184 11 l 2,23,24
 173 -55 173 -55 149 -102.5 c 128,-1,25
 125 -150 125 -150 95 -173 c 128,-1,26
 65 -196 65 -196 36.5 -205.5 c 128,-1,27
 8 -215 8 -215 -21 -215 c 0,28,29
 -59 -215 -59 -215 -99 -207 c 1,30,-1
 -79 -83 l 1,0,1
EndSplineSet
EndChar

StartChar: uni0194
Encoding: 404 404 342
Width: 639
GlyphClass: 2
Flags: W
LayerCount: 2
Fore
SplineSet
77 735 m 1,0,-1
 232 735 l 1,1,-1
 307 209 l 1,2,-1
 309 209 l 1,3,-1
 558 735 l 1,4,-1
 713 735 l 1,5,-1
 407 140 l 1,6,7
 474 43 474 43 460 -42 c 0,8,9
 447 -118 447 -118 384 -166.5 c 128,-1,10
 321 -215 321 -215 237 -215 c 0,11,12
 149 -215 149 -215 101.5 -168.5 c 128,-1,13
 54 -122 54 -122 67 -42 c 0,14,15
 71 -15 71 -15 84.5 12 c 128,-1,16
 98 39 98 39 120.5 66.5 c 128,-1,17
 143 94 143 94 154 106 c 128,-1,18
 165 118 165 118 186 140 c 1,19,-1
 77 735 l 1,0,-1
214 -36 m 0,20,21
 210 -62 210 -62 221.5 -79 c 128,-1,22
 233 -96 233 -96 256 -96 c 0,23,24
 279 -96 279 -96 295.5 -79.5 c 128,-1,25
 312 -63 312 -63 316 -35 c 0,26,27
 323 10 323 10 282 66 c 1,28,29
 223 17 223 17 214 -36 c 0,20,21
EndSplineSet
EndChar

StartChar: uni0195
Encoding: 405 405 343
Width: 820
GlyphClass: 2
Flags: W
LayerCount: 2
Fore
SplineSet
9 0 m 1,0,-1
 134 757 l 1,1,-1
 267 757 l 1,2,-1
 225 504 l 1,3,-1
 226 504 l 1,4,5
 284 556 284 556 353 556 c 0,6,7
 385 556 385 556 412.5 546.5 c 128,-1,8
 440 537 440 537 462.5 514.5 c 128,-1,9
 485 492 485 492 493.5 449 c 128,-1,10
 502 406 502 406 492 346 c 2,11,-1
 469 206 l 2,12,13
 461 159 461 159 474.5 132.5 c 128,-1,14
 488 106 488 106 536 106 c 0,15,16
 611 106 611 106 628 206 c 2,17,-1
 683 540 l 1,18,-1
 819 540 l 1,19,-1
 760 180 l 2,20,21
 753 138 753 138 735 104 c 128,-1,22
 717 70 717 70 693 48 c 128,-1,23
 669 26 669 26 638.5 11 c 128,-1,24
 608 -4 608 -4 577.5 -10 c 128,-1,25
 547 -16 547 -16 516 -16 c 0,26,27
 473 -16 473 -16 438.5 -7 c 128,-1,28
 404 2 404 2 374.5 22.5 c 128,-1,29
 345 43 345 43 333 84 c 128,-1,30
 321 125 321 125 331 181 c 2,31,-1
 355 330 l 2,32,33
 363 379 363 379 354.5 406.5 c 128,-1,34
 346 434 346 434 309 434 c 0,35,36
 267 434 267 434 234 395 c 128,-1,37
 201 356 201 356 192 303 c 2,38,-1
 142 0 l 1,39,-1
 9 0 l 1,0,-1
EndSplineSet
EndChar

StartChar: uni0196
Encoding: 406 406 344
Width: 349
GlyphClass: 2
Flags: W
LayerCount: 2
Fore
SplineSet
47 167 m 2,0,-1
 141 735 l 1,1,-1
 286 735 l 1,2,-1
 193 172 l 2,3,4
 188 139 188 139 197 125 c 128,-1,5
 206 111 206 111 236 111 c 0,6,7
 272 111 272 111 312 118 c 1,8,-1
 292 -6 l 1,9,10
 213 -16 213 -16 185 -16 c 0,11,12
 113 -16 113 -16 72 26.5 c 128,-1,13
 31 69 31 69 47 167 c 2,0,-1
EndSplineSet
EndChar

StartChar: uni0197
Encoding: 407 407 345
Width: 284
GlyphClass: 2
Flags: W
LayerCount: 2
Fore
SplineSet
10 309 m 1,0,-1
 29 425 l 1,1,-1
 93 425 l 1,2,-1
 144 735 l 1,3,-1
 290 735 l 1,4,-1
 239 425 l 1,5,-1
 302 425 l 1,6,-1
 283 309 l 1,7,-1
 219 309 l 1,8,-1
 168 0 l 1,9,-1
 22 0 l 1,10,-1
 73 309 l 1,11,-1
 10 309 l 1,0,-1
EndSplineSet
EndChar

StartChar: uni0198
Encoding: 408 408 346
Width: 644
GlyphClass: 2
Flags: W
LayerCount: 2
Fore
SplineSet
18 0 m 1,0,-1
 139 735 l 1,1,-1
 285 735 l 1,2,-1
 236 436 l 1,3,-1
 238 436 l 1,4,-1
 477 673 l 2,5,6
 558 751 558 751 662 751 c 0,7,8
 718 751 718 751 761 738 c 1,9,-1
 740 609 l 1,10,11
 698 623 698 623 646 623 c 0,12,13
 604 623 604 623 584 602 c 2,14,-1
 386 412 l 1,15,-1
 602 0 l 1,16,-1
 427 0 l 1,17,-1
 277 307 l 1,18,-1
 203 235 l 1,19,-1
 164 0 l 1,20,-1
 18 0 l 1,0,-1
EndSplineSet
EndChar

StartChar: uni0199
Encoding: 409 409 347
Width: 508
GlyphClass: 2
Flags: W
LayerCount: 2
Fore
SplineSet
9 0 m 1,0,-1
 111 621 l 2,1,2
 125 707 125 707 183.5 752.5 c 128,-1,3
 242 798 242 798 319 798 c 0,4,5
 355 798 355 798 417 792 c 1,6,-1
 396 666 l 1,7,8
 360 671 360 671 324 671 c 0,9,10
 296 671 296 671 271 649 c 128,-1,11
 246 627 246 627 240 592 c 2,12,-1
 201 358 l 1,13,-1
 389 540 l 1,14,-1
 557 540 l 1,15,-1
 327 319 l 1,16,-1
 474 0 l 1,17,-1
 317 0 l 1,18,-1
 223 218 l 1,19,-1
 169 166 l 1,20,-1
 142 0 l 1,21,-1
 9 0 l 1,0,-1
EndSplineSet
EndChar

StartChar: uni019A
Encoding: 410 410 348
Width: 258
GlyphClass: 2
Flags: W
LayerCount: 2
Fore
SplineSet
3 372 m 1,0,-1
 22 490 l 1,1,-1
 96 490 l 1,2,-1
 141 757 l 1,3,-1
 275 757 l 1,4,-1
 231 490 l 1,5,-1
 304 490 l 1,6,-1
 284 372 l 1,7,-1
 211 372 l 1,8,-1
 150 0 l 1,9,-1
 15 0 l 1,10,-1
 77 372 l 1,11,-1
 3 372 l 1,0,-1
EndSplineSet
EndChar

StartChar: uni019B
Encoding: 411 411 349
Width: 507
GlyphClass: 2
Flags: W
LayerCount: 2
Fore
SplineSet
-42 0 m 1,0,-1
 231 516 l 1,1,-1
 229 524 l 1,2,-1
 119 444 l 1,3,-1
 71 534 l 1,4,-1
 187 617 l 1,5,6
 174 631 174 631 132 631 c 2,7,-1
 112 631 l 1,8,-1
 132 752 l 1,9,-1
 175 752 l 2,10,11
 263 752 263 752 308 698 c 1,12,-1
 414 769 l 1,13,-1
 462 680 l 1,14,-1
 347 605 l 1,15,-1
 457 0 l 1,16,-1
 311 0 l 1,17,-1
 284 254 l 2,18,19
 277 345 277 345 276 372 c 1,20,-1
 273 372 l 1,21,22
 258 333 258 333 224 254 c 2,23,-1
 105 0 l 1,24,-1
 -42 0 l 1,0,-1
EndSplineSet
EndChar

StartChar: uni019C
Encoding: 412 412 350
Width: 931
GlyphClass: 2
Flags: W
LayerCount: 2
Fore
SplineSet
60 267 m 2,0,-1
 137 735 l 1,1,-1
 283 735 l 1,2,-1
 202 248 l 2,3,4
 179 111 179 111 254 111 c 0,5,6
 304 111 304 111 343 163 c 128,-1,7
 382 215 382 215 393 284 c 2,8,-1
 468 735 l 1,9,-1
 614 735 l 1,10,-1
 532 242 l 2,11,12
 525 202 525 202 528.5 173.5 c 128,-1,13
 532 145 532 145 542 132.5 c 128,-1,14
 552 120 552 120 562 115.5 c 128,-1,15
 572 111 572 111 585 111 c 0,16,17
 639 111 639 111 674.5 159 c 128,-1,18
 710 207 710 207 722 284 c 2,19,-1
 797 735 l 1,20,-1
 942 735 l 1,21,-1
 820 0 l 1,22,-1
 681 0 l 1,23,-1
 691 59 l 1,24,25
 658 20 658 20 614.5 1.5 c 128,-1,26
 571 -17 571 -17 531 -17 c 0,27,28
 467 -17 467 -17 436 6 c 128,-1,29
 405 29 405 29 394 76 c 1,30,31
 328 -16 328 -16 200 -16 c 0,32,33
 145 -16 145 -16 110 6.5 c 128,-1,34
 75 29 75 29 62.5 70 c 128,-1,35
 50 111 50 111 50 158.5 c 128,-1,36
 50 206 50 206 60 267 c 2,0,-1
EndSplineSet
EndChar

StartChar: uni019D
Encoding: 413 413 351
Width: 684
GlyphClass: 2
Flags: W
LayerCount: 2
Fore
SplineSet
147 734 m 1,0,-1
 296 734 l 1,1,-1
 427 364 l 1,2,-1
 475 225 l 1,3,-1
 478 225 l 1,4,5
 491 381 491 381 501 440 c 2,6,-1
 549 735 l 1,7,-1
 695 735 l 1,8,-1
 574 0 l 1,9,-1
 426 0 l 1,10,-1
 291 364 l 1,11,-1
 244 507 l 1,12,-1
 240 507 l 1,13,14
 235 384 235 384 220 292 c 2,15,-1
 173 9 l 2,16,17
 162 -57 162 -57 137 -104 c 128,-1,18
 112 -151 112 -151 79 -174 c 128,-1,19
 46 -197 46 -197 16 -206 c 128,-1,20
 -14 -215 -14 -215 -43 -215 c 0,21,22
 -86 -215 -86 -215 -125 -206 c 1,23,-1
 -104 -83 l 1,24,25
 -85 -88 -85 -88 -52 -88 c 0,26,27
 -20 -88 -20 -88 -0.5 -65.5 c 128,-1,28
 19 -43 19 -43 27 9 c 2,29,-1
 147 734 l 1,0,-1
EndSplineSet
EndChar

StartChar: uni019E
Encoding: 414 414 352
Width: 533
GlyphClass: 2
Flags: W
LayerCount: 2
Fore
SplineSet
4 0 m 1,0,-1
 93 540 l 1,1,-1
 222 540 l 1,2,-1
 214 490 l 1,3,-1
 216 490 l 1,4,5
 270 556 270 556 355 556 c 0,6,7
 524 556 524 556 490 346 c 2,8,-1
 397 -212 l 1,9,-1
 263 -212 l 1,10,-1
 352 329 l 2,11,12
 360 379 360 379 351.5 406.5 c 128,-1,13
 343 434 343 434 306 434 c 0,14,15
 263 434 263 434 230.5 398 c 128,-1,16
 198 362 198 362 189 307 c 2,17,-1
 138 0 l 1,18,-1
 4 0 l 1,0,-1
EndSplineSet
EndChar

StartChar: uni019F
Encoding: 415 415 353
Width: 688
GlyphClass: 2
Flags: W
LayerCount: 2
Fore
SplineSet
43 367 m 256,0,1
 72 540 72 540 176 645.5 c 128,-1,2
 280 751 280 751 422 751 c 0,3,4
 563 751 563 751 633 645.5 c 128,-1,5
 703 540 703 540 674 367 c 256,6,7
 645 194 645 194 540.5 89 c 128,-1,8
 436 -16 436 -16 295 -16 c 0,9,10
 152 -16 152 -16 83 89 c 128,-1,11
 14 194 14 194 43 367 c 256,0,1
507 302 m 1,12,-1
 187 302 l 1,13,14
 186 211 186 211 217.5 161 c 128,-1,15
 249 111 249 111 316 111 c 256,16,17
 383 111 383 111 432.5 162 c 128,-1,18
 482 213 482 213 507 302 c 1,12,-1
206 420 m 1,19,-1
 528 420 l 1,20,21
 533 515 533 515 500.5 569 c 128,-1,22
 468 623 468 623 401 623 c 0,23,24
 332 623 332 623 282 569.5 c 128,-1,25
 232 516 232 516 206 420 c 1,19,-1
EndSplineSet
EndChar

StartChar: uni01A2
Encoding: 418 418 356
Width: 928
GlyphClass: 2
Flags: W
LayerCount: 2
Fore
SplineSet
43 367 m 0,0,1
 72 540 72 540 175.5 645.5 c 128,-1,2
 279 751 279 751 422 751 c 0,3,4
 452 751 452 751 552 731 c 128,-1,5
 652 711 652 711 699 711 c 0,6,7
 824 711 824 711 941 735 c 1,8,-1
 819 0 l 1,9,-1
 674 0 l 1,10,-1
 772 590 l 1,11,12
 737 582 737 582 677 582 c 0,13,14
 644 582 644 582 601 590 c 1,15,-1
 514 66 l 1,16,17
 415 -16 415 -16 295 -16 c 0,18,19
 152 -16 152 -16 83.5 89.5 c 128,-1,20
 15 195 15 195 43 367 c 0,0,1
195 367 m 256,21,22
 175 249 175 249 206 180 c 128,-1,23
 237 111 237 111 316 111 c 0,24,25
 348 111 348 111 378 126 c 1,26,-1
 459 611 l 1,27,28
 429 623 429 623 401 623 c 0,29,30
 322 623 322 623 268.5 554 c 128,-1,31
 215 485 215 485 195 367 c 256,21,22
EndSplineSet
EndChar

StartChar: uni01A3
Encoding: 419 419 357
Width: 698
GlyphClass: 2
Flags: W
LayerCount: 2
Fore
SplineSet
23 269 m 0,0,1
 45 403 45 403 121.5 479.5 c 128,-1,2
 198 556 198 556 308 556 c 0,3,4
 344 556 344 556 413 542 c 128,-1,5
 482 528 482 528 507 528 c 0,6,7
 592 528 592 528 692 548 c 1,8,-1
 601 0 l 1,9,-1
 468 0 l 1,10,-1
 535 408 l 1,11,12
 507 405 507 405 486 405 c 0,13,14
 458 405 458 405 441 407 c 1,15,-1
 381 44 l 1,16,17
 314 -16 314 -16 213 -16 c 0,18,19
 101 -16 101 -16 51 60.5 c 128,-1,20
 1 137 1 137 23 269 c 0,0,1
161 269 m 0,21,22
 148 190 148 190 168.5 148 c 128,-1,23
 189 106 189 106 234 106 c 0,24,25
 240 106 240 106 258 114 c 1,26,-1
 311 431 l 1,27,28
 299 434 299 434 288 434 c 0,29,30
 242 434 242 434 208 392 c 128,-1,31
 174 350 174 350 161 269 c 0,21,22
EndSplineSet
EndChar

StartChar: uni01A5
Encoding: 421 421 359
Width: 548
GlyphClass: 2
Flags: W
LayerCount: 2
Fore
SplineSet
186 270 m 0,0,1
 174 195 174 195 192.5 150.5 c 128,-1,2
 211 106 211 106 257 106 c 0,3,4
 303 106 303 106 336.5 149 c 128,-1,5
 370 192 370 192 383 270 c 0,6,7
 395 345 395 345 377.5 389.5 c 128,-1,8
 360 434 360 434 312 434 c 256,9,10
 264 434 264 434 231 389 c 128,-1,11
 198 344 198 344 186 270 c 0,0,1
-27 -212 m 1,12,-1
 106 588 l 2,13,14
 120 673 120 673 178 719 c 128,-1,15
 236 765 236 765 314 765 c 0,16,17
 346 765 346 765 407 760 c 1,18,-1
 387 634 l 1,19,20
 358 637 358 637 319 637 c 0,21,22
 291 637 291 637 266.5 617 c 128,-1,23
 242 597 242 597 236 561 c 2,24,-1
 225 495 l 1,25,26
 283 556 283 556 352 556 c 0,27,28
 445 556 445 556 494 479 c 128,-1,29
 543 402 543 402 522 270 c 0,30,31
 510 195 510 195 480 137 c 128,-1,32
 450 79 450 79 411.5 47 c 128,-1,33
 373 15 373 15 334 -0.5 c 128,-1,34
 295 -16 295 -16 258 -16 c 0,35,36
 178 -16 178 -16 150 43 c 1,37,-1
 108 -212 l 1,38,-1
 -27 -212 l 1,12,-1
EndSplineSet
EndChar

StartChar: uni01A6
Encoding: 422 422 360
Width: 653
GlyphClass: 2
Flags: W
LayerCount: 2
Fore
SplineSet
217 333 m 1,0,-1
 356 333 l 2,1,2
 461 333 461 333 478 435 c 0,3,4
 493 524 493 524 387 524 c 2,5,-1
 249 524 l 1,6,-1
 217 333 l 1,0,-1
16 0 m 1,7,-1
 137 735 l 1,8,-1
 283 735 l 1,9,-1
 270 652 l 1,10,-1
 433 652 l 2,11,12
 546 652 546 652 595 593 c 128,-1,13
 644 534 644 534 630 447 c 0,14,15
 609 323 609 323 502 265 c 1,16,17
 524 245 524 245 533.5 223.5 c 128,-1,18
 543 202 543 202 544.5 187 c 128,-1,19
 546 172 546 172 546 135 c 0,20,21
 546 25 546 25 591 -87 c 1,22,-1
 427 -87 l 1,23,24
 393 -5 393 -5 391 121 c 1,25,-1
 388 159 l 2,26,27
 387 171 387 171 382.5 184 c 128,-1,28
 378 197 378 197 366.5 202 c 128,-1,29
 355 207 355 207 338 207 c 2,30,-1
 196 207 l 1,31,-1
 162 0 l 1,32,-1
 16 0 l 1,7,-1
EndSplineSet
EndChar

StartChar: uni01A7
Encoding: 423 423 361
Width: 592
GlyphClass: 2
Flags: W
LayerCount: 2
Fore
SplineSet
8 205 m 0,0,1
 14 241 14 241 31 272.5 c 128,-1,2
 48 304 48 304 69 326 c 128,-1,3
 90 348 90 348 119 366.5 c 128,-1,4
 148 385 148 385 175.5 396 c 128,-1,5
 203 407 203 407 236 418 c 0,6,7
 247 422 247 422 269 428.5 c 128,-1,8
 291 435 291 435 302 438.5 c 128,-1,9
 313 442 313 442 331.5 448.5 c 128,-1,10
 350 455 350 455 360 459.5 c 128,-1,11
 370 464 370 464 384.5 471 c 128,-1,12
 399 478 399 478 407 485.5 c 128,-1,13
 415 493 415 493 424 502 c 128,-1,14
 433 511 433 511 437.5 521 c 128,-1,15
 442 531 442 531 444 543 c 0,16,17
 450 579 450 579 424.5 601 c 128,-1,18
 399 623 399 623 350 623 c 0,19,20
 265 623 265 623 191 541 c 1,21,-1
 74 582 l 1,22,23
 120 656 120 656 196 703.5 c 128,-1,24
 272 751 272 751 371 751 c 0,25,26
 485 751 485 751 548 693 c 128,-1,27
 611 635 611 635 596 542 c 0,28,29
 587 490 587 490 563 452.5 c 128,-1,30
 539 415 539 415 495 389 c 128,-1,31
 451 363 451 363 422 351.5 c 128,-1,32
 393 340 393 340 335 322 c 0,33,34
 322 318 322 318 315 316 c 0,35,36
 243 292 243 292 205 267 c 128,-1,37
 167 242 167 242 160 198 c 0,38,39
 154 161 154 161 180 135.5 c 128,-1,40
 206 110 206 110 257 110 c 0,41,42
 306 110 306 110 358.5 139.5 c 128,-1,43
 411 169 411 169 440 211 c 1,44,-1
 559 168 l 1,45,46
 510 83 510 83 424 33.5 c 128,-1,47
 338 -16 338 -16 239 -16 c 0,48,49
 124 -16 124 -16 57.5 42 c 128,-1,50
 -9 100 -9 100 8 205 c 0,0,1
EndSplineSet
EndChar

StartChar: uni01A8
Encoding: 424 424 362
Width: 459
GlyphClass: 2
Flags: W
LayerCount: 2
Fore
SplineSet
2 153 m 0,0,1
 13 217 13 217 58.5 253 c 128,-1,2
 104 289 104 289 173 313 c 0,3,4
 181 316 181 316 199.5 322 c 128,-1,5
 218 328 218 328 225.5 330.5 c 128,-1,6
 233 333 233 333 247 338.5 c 128,-1,7
 261 344 261 344 268 348.5 c 128,-1,8
 275 353 275 353 283 359 c 128,-1,9
 291 365 291 365 295.5 372.5 c 128,-1,10
 300 380 300 380 302 389 c 0,11,12
 306 412 306 412 291 423.5 c 128,-1,13
 276 435 276 435 251 435 c 0,14,15
 187 435 187 435 126 372 c 1,16,-1
 45 428 l 1,17,18
 85 485 85 485 145 520.5 c 128,-1,19
 205 556 205 556 273 556 c 0,20,21
 354 556 354 556 403 510.5 c 128,-1,22
 452 465 452 465 439 388 c 0,23,24
 421 282 421 282 272 233 c 0,25,26
 265 231 265 231 251.5 227 c 128,-1,27
 238 223 238 223 230.5 220.5 c 128,-1,28
 223 218 223 218 211.5 213.5 c 128,-1,29
 200 209 200 209 193 206 c 128,-1,30
 186 203 186 203 177.5 198.5 c 128,-1,31
 169 194 169 194 163.5 189.5 c 128,-1,32
 158 185 158 185 152.5 179.5 c 128,-1,33
 147 174 147 174 144 167.5 c 128,-1,34
 141 161 141 161 139 153 c 0,35,36
 136 132 136 132 150.5 118.5 c 128,-1,37
 165 105 165 105 191 105 c 0,38,39
 264 105 264 105 331 176 c 1,40,-1
 416 118 l 1,41,42
 376 59 376 59 310.5 21.5 c 128,-1,43
 245 -16 245 -16 171 -16 c 0,44,45
 72 -16 72 -16 31 32.5 c 128,-1,46
 -10 81 -10 81 2 153 c 0,0,1
EndSplineSet
EndChar

StartChar: uni01A9
Encoding: 425 425 363
Width: 602
GlyphClass: 2
Flags: W
LayerCount: 2
Fore
SplineSet
15 0 m 1,0,-1
 31 96 l 1,1,-1
 322 370 l 1,2,-1
 121 639 l 1,3,-1
 137 735 l 1,4,-1
 637 735 l 1,5,-1
 616 606 l 1,6,-1
 322 606 l 1,7,-1
 488 370 l 1,8,-1
 243 127 l 1,9,-1
 544 127 l 1,10,-1
 523 0 l 1,11,-1
 15 0 l 1,0,-1
EndSplineSet
EndChar

StartChar: uni01AA
Encoding: 426 426 364
Width: 428
GlyphClass: 2
Flags: W
LayerCount: 2
Fore
SplineSet
116 590 m 0,0,1
 112 566 112 566 123 552.5 c 128,-1,2
 134 539 134 539 152 539 c 0,3,4
 180 539 180 539 202 558 c 1,5,6
 215 638 215 638 171 638 c 0,7,8
 151 638 151 638 135 624.5 c 128,-1,9
 119 611 119 611 116 590 c 0,0,1
-10 583 m 0,10,11
 2 658 2 658 58 704.5 c 128,-1,12
 114 751 114 751 193 751 c 0,13,14
 276 751 276 751 312 698 c 128,-1,15
 348 645 348 645 332 548 c 2,16,-1
 238 -22 l 2,17,18
 227 -89 227 -89 282 -89 c 0,19,20
 313 -89 313 -89 359 -81 c 1,21,-1
 339 -206 l 1,22,23
 263 -215 263 -215 232 -215 c 0,24,25
 201 -215 201 -215 175.5 -206 c 128,-1,26
 150 -197 150 -197 129 -177.5 c 128,-1,27
 108 -158 108 -158 100.5 -120.5 c 128,-1,28
 93 -83 93 -83 102 -31 c 2,29,-1
 180 442 l 1,30,31
 157 424 157 424 112 424 c 0,32,33
 48 424 48 424 13.5 469 c 128,-1,34
 -21 514 -21 514 -10 583 c 0,10,11
EndSplineSet
EndChar

StartChar: uni01AB
Encoding: 427 427 365
Width: 350
GlyphClass: 2
Flags: W
LayerCount: 2
Fore
SplineSet
36 419 m 1,0,-1
 56 540 l 1,1,-1
 129 540 l 1,2,-1
 155 694 l 1,3,-1
 288 694 l 1,4,-1
 263 540 l 1,5,-1
 368 540 l 1,6,-1
 348 419 l 1,7,-1
 243 419 l 1,8,-1
 203 181 l 2,9,10
 193 122 193 122 242 122 c 0,11,12
 266 122 266 122 303 127 c 1,13,-1
 286 22 l 2,14,15
 267 -94 267 -94 209.5 -154.5 c 128,-1,16
 152 -215 152 -215 68 -215 c 0,17,18
 18 -215 18 -215 -12 -208 c 1,19,-1
 9 -82 l 1,20,21
 41 -89 41 -89 73 -89 c 0,22,23
 99 -89 99 -89 122 -67.5 c 128,-1,24
 145 -46 145 -46 152 -2 c 2,25,-1
 154 6 l 1,26,27
 134 12 134 12 117 21 c 0,28,29
 50 61 50 61 68 173 c 2,30,-1
 109 419 l 1,31,-1
 36 419 l 1,0,-1
EndSplineSet
EndChar

StartChar: uni01AC
Encoding: 428 428 366
Width: 632
GlyphClass: 2
Flags: W
LayerCount: 2
Fore
SplineSet
7 552 m 0,0,1
 23 647 23 647 91 691 c 128,-1,2
 159 735 159 735 245 735 c 2,3,-1
 700 735 l 1,4,-1
 679 607 l 1,5,-1
 479 607 l 1,6,-1
 378 0 l 1,7,-1
 231 0 l 1,8,-1
 332 607 l 1,9,-1
 225 607 l 2,10,11
 186 607 186 607 162 588.5 c 128,-1,12
 138 570 138 570 134 541 c 0,13,14
 129 508 129 508 129 485 c 1,15,-1
 3 485 l 1,16,17
 0 509 0 509 7 552 c 0,0,1
EndSplineSet
EndChar

StartChar: uni01AD
Encoding: 429 429 367
Width: 352
GlyphClass: 2
Flags: W
LayerCount: 2
Fore
SplineSet
36 419 m 1,0,-1
 56 540 l 1,1,-1
 129 540 l 1,2,-1
 136 581 l 2,3,4
 150 667 150 667 208 712.5 c 128,-1,5
 266 758 266 758 345 758 c 0,6,7
 380 758 380 758 441 753 c 1,8,-1
 420 626 l 1,9,10
 389 631 389 631 349 631 c 0,11,12
 316 631 316 631 293.5 611.5 c 128,-1,13
 271 592 271 592 266 562 c 2,14,-1
 263 540 l 1,15,-1
 369 540 l 1,16,-1
 349 419 l 1,17,-1
 243 419 l 1,18,-1
 203 181 l 2,19,20
 193 122 193 122 243 122 c 2,21,-1
 301 122 l 1,22,-1
 281 0 l 1,23,-1
 206 0 l 2,24,25
 40 0 40 0 68 173 c 2,26,-1
 109 419 l 1,27,-1
 36 419 l 1,0,-1
EndSplineSet
EndChar

StartChar: uni01AE
Encoding: 430 430 368
Width: 563
GlyphClass: 2
Flags: W
LayerCount: 2
Fore
SplineSet
62 607 m 1,0,-1
 83 735 l 1,1,-1
 630 735 l 1,2,-1
 609 607 l 1,3,-1
 409 607 l 1,4,-1
 310 13 l 2,5,6
 293 -89 293 -89 359 -89 c 0,7,8
 379 -89 379 -89 411 -82 c 1,9,-1
 390 -207 l 1,10,11
 346 -215 346 -215 308 -215 c 0,12,13
 278 -215 278 -215 251 -205.5 c 128,-1,14
 224 -196 224 -196 198.5 -172.5 c 128,-1,15
 173 -149 173 -149 163 -101.5 c 128,-1,16
 153 -54 153 -54 164 13 c 2,17,-1
 263 607 l 1,18,-1
 62 607 l 1,0,-1
EndSplineSet
EndChar

StartChar: uni01B1
Encoding: 433 433 371
Width: 708
GlyphClass: 2
Flags: W
LayerCount: 2
Fore
SplineSet
33 309 m 0,0,1
 50 409 50 409 109.5 483 c 128,-1,2
 169 557 169 557 267 593 c 1,3,-1
 270 607 l 1,4,-1
 97 607 l 1,5,-1
 118 735 l 1,6,-1
 399 735 l 1,7,-1
 362 511 l 1,8,9
 286 491 286 491 242.5 436 c 128,-1,10
 199 381 199 381 187 309 c 0,11,12
 174 229 174 229 210.5 172 c 128,-1,13
 247 115 247 115 326 115 c 0,14,15
 403 115 403 115 459.5 171.5 c 128,-1,16
 516 228 516 228 529 309 c 0,17,18
 540 378 540 378 515.5 433.5 c 128,-1,19
 491 489 491 489 422 511 c 1,20,-1
 460 735 l 1,21,-1
 739 735 l 1,22,-1
 718 607 l 1,23,-1
 545 607 l 1,24,-1
 543 593 l 1,25,26
 629 559 629 559 664.5 483.5 c 128,-1,27
 700 408 700 408 684 309 c 0,28,29
 660 166 660 166 557.5 75 c 128,-1,30
 455 -16 455 -16 304 -16 c 0,31,32
 155 -16 155 -16 82 75 c 128,-1,33
 9 166 9 166 33 309 c 0,0,1
EndSplineSet
EndChar

StartChar: uni01B2
Encoding: 434 434 372
Width: 689
GlyphClass: 2
Flags: W
LayerCount: 2
Fore
SplineSet
58 268 m 2,0,-1
 136 735 l 1,1,-1
 282 735 l 1,2,-1
 207 284 l 2,3,4
 191 185 191 185 211.5 148 c 128,-1,5
 232 111 232 111 285 111 c 0,6,7
 359 111 359 111 434.5 199 c 128,-1,8
 510 287 510 287 532 419 c 0,9,10
 549 523 549 523 533 573 c 128,-1,11
 517 623 517 623 477 623 c 0,12,13
 436 623 436 623 390 608 c 1,14,-1
 412 739 l 1,15,16
 472 751 472 751 519 751 c 0,17,18
 629 751 629 751 670.5 665.5 c 128,-1,19
 712 580 712 580 685 421 c 0,20,21
 667 310 667 310 610 211 c 128,-1,22
 553 112 553 112 461 48 c 128,-1,23
 369 -16 369 -16 264 -16 c 0,24,25
 133 -16 133 -16 83.5 54 c 128,-1,26
 34 124 34 124 58 268 c 2,0,-1
EndSplineSet
EndChar

StartChar: uni01B3
Encoding: 435 435 373
Width: 637
GlyphClass: 2
Flags: W
LayerCount: 2
Fore
SplineSet
74 735 m 1,0,-1
 239 735 l 1,1,-1
 307 519 l 2,2,3
 312 503 312 503 337 408 c 1,4,-1
 342 408 l 1,5,6
 353 426 353 426 377 464.5 c 128,-1,7
 401 503 401 503 412 520 c 2,8,-1
 482 631 l 2,9,10
 521 689 521 689 555 715 c 0,11,12
 601 751 601 751 655 751 c 0,13,14
 696 751 696 751 730 746 c 1,15,-1
 709 619 l 1,16,17
 693 624 693 624 653 624 c 0,18,19
 646 624 646 624 637.5 618 c 128,-1,20
 629 612 629 612 616.5 597.5 c 128,-1,21
 604 583 604 583 599 576.5 c 128,-1,22
 594 570 594 570 580 551 c 2,23,-1
 394 296 l 1,24,-1
 345 0 l 1,25,-1
 199 0 l 1,26,-1
 248 296 l 1,27,-1
 74 735 l 1,0,-1
EndSplineSet
EndChar

StartChar: uni01B4
Encoding: 436 436 374
Width: 508
GlyphClass: 2
Flags: W
LayerCount: 2
Fore
SplineSet
47 540 m 1,0,-1
 194 540 l 1,1,-1
 228 286 l 1,2,3
 238 174 238 174 239 167 c 1,4,-1
 242 167 l 1,5,6
 252 193 252 193 270 237.5 c 128,-1,7
 288 282 288 282 290 285 c 2,8,-1
 365 457 l 2,9,10
 404 552 404 552 517 552 c 0,11,12
 545 552 545 552 595 544 c 1,13,-1
 573 415 l 1,14,15
 540 424 540 424 525 424 c 0,16,17
 487 424 487 424 471 392 c 2,18,-1
 243 -52 l 2,19,20
 199 -137 199 -137 143.5 -174.5 c 128,-1,21
 88 -212 88 -212 15 -212 c 2,22,-1
 -26 -212 l 1,23,-1
 -6 -92 l 1,24,-1
 13 -92 l 2,25,26
 52 -92 52 -92 79.5 -75.5 c 128,-1,27
 107 -59 107 -59 127 -20 c 2,28,-1
 150 25 l 1,29,-1
 47 540 l 1,0,-1
EndSplineSet
EndChar

StartChar: uni01B5
Encoding: 437 437 375
Width: 584
GlyphClass: 2
Flags: W
LayerCount: 2
Fore
SplineSet
77 303 m 1,0,-1
 97 421 l 1,1,-1
 266 421 l 1,2,-1
 428 607 l 1,3,-1
 104 607 l 1,4,-1
 125 735 l 1,5,-1
 632 735 l 1,6,-1
 613 625 l 1,7,-1
 436 421 l 1,8,-1
 514 421 l 1,9,-1
 494 303 l 1,10,-1
 331 303 l 1,11,-1
 177 127 l 1,12,-1
 541 127 l 1,13,-1
 520 0 l 1,14,-1
 -26 0 l 1,15,-1
 -8 108 l 1,16,-1
 162 303 l 1,17,-1
 77 303 l 1,0,-1
EndSplineSet
EndChar

StartChar: uni01B6
Encoding: 438 438 376
Width: 469
GlyphClass: 2
Flags: W
LayerCount: 2
Fore
SplineSet
-29 0 m 1,0,-1
 -13 94 l 1,1,-1
 99 216 l 1,2,-1
 42 216 l 1,3,-1
 61 333 l 1,4,-1
 207 333 l 1,5,-1
 285 419 l 1,6,-1
 59 419 l 1,7,-1
 79 540 l 1,8,-1
 483 540 l 1,9,-1
 469 451 l 1,10,-1
 360 333 l 1,11,-1
 420 333 l 1,12,-1
 400 216 l 1,13,-1
 252 216 l 1,14,-1
 167 122 l 1,15,-1
 426 122 l 1,16,-1
 405 0 l 1,17,-1
 -29 0 l 1,0,-1
EndSplineSet
EndChar

StartChar: uni01B7
Encoding: 439 439 377
Width: 682
GlyphClass: 2
Flags: W
LayerCount: 2
Fore
SplineSet
-5 18 m 1,0,-1
 129 66 l 1,1,2
 131 39 131 39 140 13 c 128,-1,3
 149 -13 149 -13 165 -36 c 128,-1,4
 181 -59 181 -59 210.5 -73.5 c 128,-1,5
 240 -88 240 -88 278 -88 c 0,6,7
 348 -88 348 -88 400.5 -37.5 c 128,-1,8
 453 13 453 13 466 92 c 0,9,10
 480 177 480 177 436.5 230 c 128,-1,11
 393 283 393 283 312 283 c 2,12,-1
 199 283 l 1,13,-1
 217 396 l 1,14,-1
 437 607 l 1,15,-1
 128 607 l 1,16,-1
 149 735 l 1,17,-1
 679 735 l 1,18,-1
 665 649 l 1,19,-1
 407 407 l 1,20,-1
 417 405 l 2,21,22
 524 383 524 383 581 300 c 128,-1,23
 638 217 638 217 617 92 c 0,24,25
 595 -40 595 -40 495.5 -127 c 128,-1,26
 396 -214 396 -214 261 -214 c 0,27,28
 192 -214 192 -214 141 -194 c 128,-1,29
 90 -174 90 -174 61 -138.5 c 128,-1,30
 32 -103 32 -103 16 -65 c 128,-1,31
 0 -27 0 -27 -5 18 c 1,0,-1
EndSplineSet
EndChar

StartChar: uni01B8
Encoding: 440 440 378
Width: 682
GlyphClass: 2
Flags: W
LayerCount: 2
Fore
SplineSet
2 92 m 0,0,1
 23 217 23 217 107 300.5 c 128,-1,2
 191 384 191 384 305 405 c 2,3,-1
 316 407 l 1,4,-1
 138 649 l 1,5,-1
 152 735 l 1,6,-1
 683 735 l 1,7,-1
 661 607 l 1,8,-1
 353 607 l 1,9,-1
 502 396 l 1,10,-1
 483 283 l 1,11,-1
 370 283 l 2,12,13
 290 283 290 283 228.5 230 c 128,-1,14
 167 177 167 177 153 92 c 0,15,16
 140 13 140 13 175.5 -37.5 c 128,-1,17
 211 -88 211 -88 281 -88 c 0,18,19
 319 -88 319 -88 353.5 -73.5 c 128,-1,20
 388 -59 388 -59 411.5 -36 c 128,-1,21
 435 -13 435 -13 452 13 c 128,-1,22
 469 39 469 39 480 66 c 1,23,-1
 599 18 l 1,24,25
 579 -27 579 -27 550.5 -65 c 128,-1,26
 522 -103 522 -103 481 -138.5 c 128,-1,27
 440 -174 440 -174 382 -194 c 128,-1,28
 324 -214 324 -214 255 -214 c 0,29,30
 122 -214 122 -214 51 -127 c 128,-1,31
 -20 -40 -20 -40 2 92 c 0,0,1
EndSplineSet
EndChar

StartChar: uni01B9
Encoding: 441 441 379
Width: 562
GlyphClass: 2
Flags: W
LayerCount: 2
Fore
SplineSet
-9 40 m 0,0,1
 6 128 6 128 71.5 198 c 128,-1,2
 137 268 137 268 221 282 c 1,3,-1
 225 283 l 1,4,-1
 94 453 l 1,5,-1
 108 540 l 1,6,-1
 542 540 l 1,7,-1
 522 419 l 1,8,-1
 289 419 l 1,9,-1
 394 275 l 1,10,-1
 378 178 l 1,11,-1
 284 178 l 2,12,13
 221 178 221 178 180 138 c 128,-1,14
 139 98 139 98 130 40 c 0,15,16
 121 -16 121 -16 146 -54.5 c 128,-1,17
 171 -93 171 -93 224 -93 c 256,18,19
 277 -93 277 -93 314.5 -55 c 128,-1,20
 352 -17 352 -17 367 31 c 1,21,-1
 484 0 l 1,22,23
 451 -91 451 -91 376.5 -153 c 128,-1,24
 302 -215 302 -215 200 -215 c 0,25,26
 87 -215 87 -215 30 -141 c 128,-1,27
 -27 -67 -27 -67 -9 40 c 0,0,1
EndSplineSet
EndChar

StartChar: uni01BA
Encoding: 442 442 380
Width: 418
GlyphClass: 2
Flags: W
LayerCount: 2
Fore
SplineSet
-28 -57 m 0,0,1
 -21 -17 -21 -17 6.5 17 c 128,-1,2
 34 51 34 51 70 73.5 c 128,-1,3
 106 96 106 96 141 115 c 128,-1,4
 176 134 176 134 201.5 151.5 c 128,-1,5
 227 169 227 169 229 183 c 0,6,7
 233 206 233 206 204.5 219.5 c 128,-1,8
 176 233 176 233 128 233 c 2,9,-1
 95 233 l 1,10,-1
 107 306 l 1,11,-1
 242 419 l 1,12,-1
 53 419 l 1,13,-1
 73 540 l 1,14,-1
 436 540 l 1,15,-1
 421 446 l 1,16,-1
 260 313 l 1,17,-1
 279 311 l 2,18,19
 320 306 320 306 349 277.5 c 128,-1,20
 378 249 378 249 368 190 c 0,21,22
 362 154 362 154 334.5 123 c 128,-1,23
 307 92 307 92 271.5 69.5 c 128,-1,24
 236 47 236 47 200.5 27.5 c 128,-1,25
 165 8 165 8 139.5 -11 c 128,-1,26
 114 -30 114 -30 112 -47 c 0,27,28
 105 -87 105 -87 160 -87 c 0,29,30
 197 -87 197 -87 272 -71 c 1,31,-1
 251 -196 l 1,32,33
 175 -210 175 -210 118 -210 c 0,34,35
 43 -210 43 -210 1.5 -169 c 128,-1,36
 -40 -128 -40 -128 -28 -57 c 0,0,1
EndSplineSet
EndChar

StartChar: uni01BB
Encoding: 443 443 381
Width: 538
GlyphClass: 2
Flags: W
LayerCount: 2
Fore
SplineSet
86 293 m 1,0,-1
 106 411 l 1,1,-1
 311 411 l 1,2,3
 373 471 373 471 384 538 c 0,4,5
 391 582 391 582 371 605 c 128,-1,6
 351 628 351 628 323 628 c 0,7,8
 322 628 322 628 321 628 c 0,9,10
 279 627 279 627 249 597 c 128,-1,11
 219 567 219 567 192 506 c 1,12,-1
 75 544 l 1,13,14
 110 635 110 635 177 693 c 128,-1,15
 244 751 244 751 345 751 c 0,16,17
 445 751 445 751 497 691.5 c 128,-1,18
 549 632 549 632 533 532 c 0,19,20
 523 471 523 471 479 411 c 1,21,-1
 544 411 l 1,22,-1
 524 293 l 1,23,-1
 362 293 l 1,24,25
 357 289 357 289 336 271.5 c 128,-1,26
 315 254 315 254 307.5 247 c 128,-1,27
 300 240 300 240 281.5 223 c 128,-1,28
 263 206 263 206 251 192.5 c 128,-1,29
 239 179 239 179 222.5 160.5 c 128,-1,30
 206 142 206 142 191 122 c 1,31,-1
 463 122 l 1,32,-1
 443 0 l 1,33,-1
 -6 0 l 1,34,35
 18 145 18 145 175 293 c 1,36,-1
 86 293 l 1,0,-1
EndSplineSet
EndChar

StartChar: uni01BC
Encoding: 444 444 382
Width: 589
GlyphClass: 2
Flags: W
LayerCount: 2
Fore
SplineSet
15 147 m 1,0,-1
 140 189 l 1,1,2
 151 152 151 152 180 129 c 128,-1,3
 209 106 209 106 252 106 c 0,4,5
 304 106 304 106 342 140.5 c 128,-1,6
 380 175 380 175 389 232 c 0,7,8
 397 282 397 282 366.5 319 c 128,-1,9
 336 356 336 356 269 356 c 0,10,11
 208 356 208 356 123 337 c 1,12,-1
 205 608 l 1,13,-1
 163 608 l 1,14,-1
 184 735 l 1,15,-1
 589 735 l 1,16,-1
 568 607 l 1,17,-1
 340 607 l 1,18,-1
 299 476 l 1,19,20
 312 478 312 478 345 478 c 0,21,22
 450 478 450 478 505 411 c 128,-1,23
 560 344 560 344 542 236 c 0,24,25
 534 190 534 190 512.5 147 c 128,-1,26
 491 104 491 104 454.5 67 c 128,-1,27
 418 30 418 30 361.5 7 c 128,-1,28
 305 -16 305 -16 239 -16 c 0,29,30
 147 -16 147 -16 88 30.5 c 128,-1,31
 29 77 29 77 15 147 c 1,0,-1
EndSplineSet
EndChar

StartChar: uni01BD
Encoding: 445 445 383
Width: 463
GlyphClass: 2
Flags: W
LayerCount: 2
Fore
SplineSet
8 120 m 1,0,-1
 126 169 l 1,1,2
 131 139 131 139 149 122 c 128,-1,3
 167 105 167 105 193 105 c 0,4,5
 223 105 223 105 246.5 124 c 128,-1,6
 270 143 270 143 275 175 c 0,7,8
 279 201 279 201 261.5 224.5 c 128,-1,9
 244 248 244 248 204 248 c 0,10,11
 159 248 159 248 80 234 c 1,12,-1
 139 420 l 1,13,-1
 111 420 l 1,14,-1
 131 540 l 1,15,-1
 434 540 l 1,16,-1
 414 419 l 1,17,-1
 256 419 l 1,18,-1
 239 369 l 1,19,-1
 260 370 l 2,20,21
 342 370 342 370 385 315 c 128,-1,22
 428 260 428 260 415 181 c 0,23,24
 409 145 409 145 391.5 111.5 c 128,-1,25
 374 78 374 78 345.5 49 c 128,-1,26
 317 20 317 20 272 2 c 128,-1,27
 227 -16 227 -16 173 -16 c 0,28,29
 44 -16 44 -16 8 120 c 1,0,-1
EndSplineSet
EndChar

StartChar: uni01BE
Encoding: 446 446 384
Width: 425
GlyphClass: 2
Flags: W
LayerCount: 2
Fore
SplineSet
38 419 m 1,0,-1
 58 540 l 1,1,-1
 129 540 l 1,2,-1
 154 693 l 1,3,-1
 288 693 l 1,4,-1
 263 540 l 1,5,-1
 367 540 l 1,6,-1
 347 419 l 1,7,-1
 243 419 l 1,8,-1
 240 406 l 2,9,10
 236 380 236 380 246 360.5 c 128,-1,11
 256 341 256 341 273.5 330 c 128,-1,12
 291 319 291 319 312 303.5 c 128,-1,13
 333 288 333 288 350 272.5 c 128,-1,14
 367 257 367 257 375 227.5 c 128,-1,15
 383 198 383 198 377 159 c 0,16,17
 372 127 372 127 357.5 98.5 c 128,-1,18
 343 70 343 70 319.5 43 c 128,-1,19
 296 16 296 16 256 0 c 128,-1,20
 216 -16 216 -16 165 -16 c 0,21,22
 41 -16 41 -16 -3 111 c 1,23,-1
 102 166 l 1,24,25
 116 136 116 136 133 121 c 128,-1,26
 150 106 150 106 181 106 c 0,27,28
 205 106 205 106 221.5 120.5 c 128,-1,29
 238 135 238 135 241 154 c 0,30,31
 244 174 244 174 233.5 189 c 128,-1,32
 223 204 223 204 205.5 213.5 c 128,-1,33
 188 223 188 223 167.5 237 c 128,-1,34
 147 251 147 251 130 268 c 128,-1,35
 113 285 113 285 105.5 317.5 c 128,-1,36
 98 350 98 350 105 393 c 2,37,-1
 109 419 l 1,38,-1
 38 419 l 1,0,-1
EndSplineSet
EndChar

StartChar: uni01BF
Encoding: 447 447 385
Width: 539
GlyphClass: 2
Flags: W
LayerCount: 2
Fore
SplineSet
-27 -212 m 1,0,-1
 98 540 l 1,1,-1
 228 540 l 1,2,-1
 221 499 l 1,3,4
 278 556 278 556 361 556 c 0,5,6
 460 556 460 556 500 495.5 c 128,-1,7
 540 435 540 435 525 342 c 0,8,9
 478 60 478 60 143 2 c 1,10,-1
 108 -212 l 1,11,-1
 -27 -212 l 1,0,-1
163 120 m 1,12,13
 196 126 196 126 230.5 141 c 128,-1,14
 265 156 265 156 297.5 180.5 c 128,-1,15
 330 205 330 205 354 242.5 c 128,-1,16
 378 280 378 280 386 325 c 0,17,18
 395 382 395 382 377.5 408 c 128,-1,19
 360 434 360 434 324 434 c 0,20,21
 290 434 290 434 255.5 413.5 c 128,-1,22
 221 393 221 393 203 362 c 1,23,-1
 163 120 l 1,12,13
EndSplineSet
EndChar

StartChar: uni01C0
Encoding: 448 448 386
Width: 260
GlyphClass: 2
Flags: W
LayerCount: 2
Fore
SplineSet
-13 -195 m 1,0,-1
 154 810 l 1,1,-1
 281 810 l 1,2,-1
 115 -195 l 1,3,-1
 -13 -195 l 1,0,-1
EndSplineSet
EndChar

StartChar: uni01C1
Encoding: 449 449 387
Width: 465
GlyphClass: 2
Flags: W
LayerCount: 2
Fore
SplineSet
-13 -195 m 1,0,-1
 154 810 l 1,1,-1
 281 810 l 1,2,-1
 115 -195 l 1,3,-1
 -13 -195 l 1,0,-1
193 -195 m 1,4,-1
 359 810 l 1,5,-1
 486 810 l 1,6,-1
 319 -195 l 1,7,-1
 193 -195 l 1,4,-1
EndSplineSet
EndChar

StartChar: uni01C2
Encoding: 450 450 388
Width: 370
GlyphClass: 2
Flags: W
LayerCount: 2
Fore
SplineSet
32 405 m 1,0,-1
 48 503 l 1,1,-1
 160 503 l 1,2,-1
 211 810 l 1,3,-1
 339 810 l 1,4,-1
 288 503 l 1,5,-1
 397 503 l 1,6,-1
 381 405 l 1,7,-1
 272 405 l 1,8,-1
 253 293 l 1,9,-1
 362 293 l 1,10,-1
 346 194 l 1,11,-1
 237 194 l 1,12,-1
 173 -195 l 1,13,-1
 44 -195 l 1,14,-1
 109 194 l 1,15,-1
 -3 194 l 1,16,-1
 13 293 l 1,17,-1
 125 293 l 1,18,-1
 144 405 l 1,19,-1
 32 405 l 1,0,-1
EndSplineSet
EndChar

StartChar: uni01DD
Encoding: 477 477 415
Width: 526
GlyphClass: 2
Flags: W
LayerCount: 2
Fore
SplineSet
22 267 m 0,0,1
 26 294 26 294 33 320 c 1,2,-1
 373 320 l 1,3,4
 381 371 381 371 356 406.5 c 128,-1,5
 331 442 331 442 278 442 c 0,6,7
 239 442 239 442 208 422 c 128,-1,8
 177 402 177 402 157 371 c 1,9,-1
 53 413 l 1,10,11
 88 473 88 473 151.5 514.5 c 128,-1,12
 215 556 215 556 301 556 c 0,13,14
 409 556 409 556 465 477.5 c 128,-1,15
 521 399 521 399 500 268 c 0,16,17
 478 136 478 136 396.5 60 c 128,-1,18
 315 -16 315 -16 212 -16 c 0,19,20
 113 -16 113 -16 57 62.5 c 128,-1,21
 1 141 1 141 22 267 c 0,0,1
150 223 m 1,22,23
 141 171 141 171 162 133.5 c 128,-1,24
 183 96 183 96 230 96 c 256,25,26
 278 96 278 96 312.5 133.5 c 128,-1,27
 347 171 347 171 357 223 c 1,28,-1
 150 223 l 1,22,23
EndSplineSet
EndChar

StartChar: uni01E4
Encoding: 484 484 422
Width: 709
GlyphClass: 2
Flags: W
LayerCount: 2
Fore
SplineSet
43 368 m 0,0,1
 60 472 60 472 111 557.5 c 128,-1,2
 162 643 162 643 248.5 697 c 128,-1,3
 335 751 335 751 441 751 c 0,4,5
 498 751 498 751 543 731.5 c 128,-1,6
 588 712 588 712 615 680.5 c 128,-1,7
 642 649 642 649 657 620.5 c 128,-1,8
 672 592 672 592 680 564 c 1,9,-1
 547 523 l 1,10,11
 547 524 547 524 542.5 533.5 c 128,-1,12
 538 543 538 543 536 545.5 c 128,-1,13
 534 548 534 548 528.5 558 c 128,-1,14
 523 568 523 568 510 585 c 0,15,16
 503 593 503 593 497 597 c 128,-1,17
 491 601 491 601 482 607 c 128,-1,18
 473 613 473 613 464 615.5 c 128,-1,19
 455 618 455 618 443.5 620.5 c 128,-1,20
 432 623 432 623 419 623 c 0,21,22
 335 623 335 623 274 554.5 c 128,-1,23
 213 486 213 486 194 368 c 0,24,25
 175 252 175 252 212.5 181.5 c 128,-1,26
 250 111 250 111 325 111 c 0,27,28
 404 111 404 111 453 162 c 1,29,-1
 298 162 l 1,30,-1
 313 253 l 1,31,-1
 502 253 l 1,32,33
 508 275 508 275 508 276 c 2,34,-1
 511 297 l 1,35,-1
 351 297 l 1,36,-1
 371 419 l 1,37,-1
 673 419 l 1,38,-1
 645 253 l 1,39,-1
 699 253 l 1,40,-1
 684 162 l 1,41,-1
 630 162 l 1,42,-1
 603 0 l 1,43,-1
 503 0 l 1,44,-1
 500 56 l 1,45,46
 430 -16 430 -16 302 -16 c 0,47,48
 167 -16 167 -16 90.5 87 c 128,-1,49
 14 190 14 190 43 368 c 0,0,1
EndSplineSet
EndChar

StartChar: uni01E5
Encoding: 485 485 423
Width: 538
GlyphClass: 2
Flags: W
LayerCount: 2
Fore
SplineSet
32 304 m 0,0,1
 51 417 51 417 123.5 486.5 c 128,-1,2
 196 556 196 556 288 556 c 0,3,4
 329 556 329 556 354.5 536.5 c 128,-1,5
 380 517 380 517 386 496 c 1,6,-1
 393 540 l 1,7,-1
 528 540 l 1,8,-1
 458 114 l 2,9,10
 450 66 450 66 441 31 c 1,11,-1
 498 31 l 1,12,-1
 485 -52 l 1,13,-1
 416 -52 l 1,14,15
 380 -132 380 -132 321 -173.5 c 128,-1,16
 262 -215 262 -215 167 -215 c 0,17,18
 36 -215 36 -215 -21 -108 c 1,19,-1
 78 -41 l 1,20,21
 113 -101 113 -101 187 -101 c 0,22,23
 236 -101 236 -101 278 -52 c 1,24,-1
 128 -52 l 1,25,-1
 142 31 l 1,26,-1
 309 31 l 1,27,28
 314 49 314 49 318 74 c 2,29,-1
 323 105 l 1,30,31
 304 83 304 83 270 68.5 c 128,-1,32
 236 54 236 54 206 54 c 0,33,34
 114 54 114 54 63.5 121 c 128,-1,35
 13 188 13 188 32 304 c 0,0,1
171 304 m 0,36,37
 161 242 161 242 183 209 c 128,-1,38
 205 176 205 176 241 176 c 0,39,40
 278 176 278 176 310.5 211 c 128,-1,41
 343 246 343 246 353 306 c 256,42,43
 363 366 363 366 343 400 c 128,-1,44
 323 434 323 434 283 434 c 0,45,46
 243 434 243 434 212 398.5 c 128,-1,47
 181 363 181 363 171 304 c 0,36,37
EndSplineSet
EndChar

StartChar: uni01EF
Encoding: 495 495 433
Width: 562
GlyphClass: 2
Flags: W
LayerCount: 2
Fore
SplineSet
167 787 m 1,0,-1
 297 787 l 1,1,-1
 351 694 l 1,2,-1
 437 787 l 1,3,-1
 566 787 l 1,4,-1
 395 621 l 1,5,-1
 280 621 l 1,6,-1
 167 787 l 1,0,-1
-12 0 m 1,7,-1
 114 31 l 1,8,9
 113 -17 113 -17 137.5 -55 c 128,-1,10
 162 -93 162 -93 214 -93 c 0,11,12
 267 -93 267 -93 306 -55 c 128,-1,13
 345 -17 345 -17 354 40 c 0,14,15
 364 98 364 98 337 138 c 128,-1,16
 310 178 310 178 246 178 c 2,17,-1
 151 178 l 1,18,-1
 167 275 l 1,19,-1
 320 419 l 1,20,-1
 88 419 l 1,21,-1
 108 540 l 1,22,-1
 542 540 l 1,23,-1
 528 453 l 1,24,-1
 339 282 l 1,25,-1
 375 273 l 1,26,27
 437 251 437 251 471.5 186.5 c 128,-1,28
 506 122 506 122 492 40 c 0,29,30
 474 -67 474 -67 392.5 -141 c 128,-1,31
 311 -215 311 -215 199 -215 c 0,32,33
 97 -215 97 -215 44 -153 c 128,-1,34
 -9 -91 -9 -91 -12 0 c 1,7,-1
EndSplineSet
EndChar

StartChar: uni01F6
Encoding: 502 502 440
Width: 957
GlyphClass: 2
Flags: W
LayerCount: 2
Fore
SplineSet
18 0 m 1,0,-1
 139 735 l 1,1,-1
 285 735 l 1,2,-1
 237 441 l 1,3,-1
 489 441 l 1,4,-1
 538 735 l 1,5,-1
 685 735 l 1,6,-1
 599 212 l 2,7,8
 581 106 581 106 662 106 c 0,9,10
 695 106 695 106 721.5 132.5 c 128,-1,11
 748 159 748 159 754 197 c 2,12,-1
 811 540 l 1,13,-1
 957 540 l 1,14,-1
 897 179 l 2,15,16
 881 82 881 82 807.5 33 c 128,-1,17
 734 -16 734 -16 641 -16 c 0,18,19
 597 -16 597 -16 560.5 -6 c 128,-1,20
 524 4 524 4 494 25.5 c 128,-1,21
 464 47 464 47 450.5 86.5 c 128,-1,22
 437 126 437 126 446 180 c 2,23,-1
 468 314 l 1,24,-1
 216 314 l 1,25,-1
 164 0 l 1,26,-1
 18 0 l 1,0,-1
EndSplineSet
EndChar

StartChar: uni01F7
Encoding: 503 503 441
Width: 623
GlyphClass: 2
Flags: W
LayerCount: 2
Fore
SplineSet
-16 -211 m 1,0,-1
 140 735 l 1,1,-1
 286 735 l 1,2,-1
 277 678 l 1,3,4
 368 751 368 751 458 751 c 0,5,6
 566 751 566 751 608 683.5 c 128,-1,7
 650 616 650 616 629 492 c 0,8,9
 615 407 615 407 566 326 c 128,-1,10
 517 245 517 245 449 183.5 c 128,-1,11
 381 122 381 122 309 76.5 c 128,-1,12
 237 31 237 31 165 1 c 1,13,-1
 130 -211 l 1,14,-1
 -16 -211 l 1,0,-1
188 144 m 1,15,16
 288 194 288 194 374.5 288.5 c 128,-1,17
 461 383 461 383 478 485 c 0,18,19
 501 623 501 623 407 623 c 0,20,21
 371 623 371 623 329 598 c 128,-1,22
 287 573 287 573 253 534 c 1,23,-1
 188 144 l 1,15,16
EndSplineSet
EndChar

StartChar: Aringacute
Encoding: 506 506 444
Width: 657
GlyphClass: 2
Flags: W
LayerCount: 2
Fore
SplineSet
-51 0 m 1,0,-1
 320 722 l 1,1,2
 310 729 310 729 302 738 c 0,3,4
 265 778 265 778 274 839 c 0,5,6
 284 897 284 897 333 939 c 0,7,8
 360 962 360 962 393 972 c 1,9,-1
 497 1103 l 1,10,-1
 660 1103 l 1,11,-1
 511 966 l 1,12,13
 530 956 530 956 545 938 c 0,14,15
 579 896 579 896 569 839 c 0,16,17
 559 779 559 779 510 739 c 0,18,19
 497 728 497 728 484 721 c 1,20,-1
 614 0 l 1,21,-1
 460 0 l 1,22,-1
 436 164 l 1,23,-1
 182 164 l 1,24,-1
 103 0 l 1,25,-1
 -51 0 l 1,0,-1
237 284 m 1,26,-1
 419 284 l 1,27,-1
 399 440 l 2,28,29
 388 533 388 533 381 590 c 1,30,-1
 376 590 l 1,31,32
 343 512 343 512 310 440 c 2,33,-1
 237 284 l 1,26,-1
370 839 m 0,34,35
 366 817 366 817 378 801.5 c 128,-1,36
 390 786 390 786 414 786 c 0,37,38
 435 786 435 786 452 800.5 c 128,-1,39
 469 815 469 815 473 839 c 0,40,41
 477 862 477 862 465 877 c 128,-1,42
 453 892 453 892 431 892 c 0,43,44
 408 892 408 892 391 877 c 128,-1,45
 374 862 374 862 370 839 c 0,34,35
EndSplineSet
EndChar

StartChar: aringacute
Encoding: 507 507 445
Width: 511
GlyphClass: 2
Flags: W
LayerCount: 2
Fore
SplineSet
2 147 m 0,0,1
 14 221 14 221 75.5 269.5 c 128,-1,2
 137 318 137 318 242 334 c 0,3,4
 329 348 329 348 344 353 c 1,5,-1
 349 380 l 2,6,7
 355 414 355 414 335.5 429.5 c 128,-1,8
 316 445 316 445 281 445 c 0,9,10
 202 445 202 445 133 379 c 1,11,-1
 65 451 l 1,12,13
 165 556 165 556 298 556 c 0,14,15
 415 556 415 556 454 497 c 128,-1,16
 493 438 493 438 475 329 c 2,17,-1
 420 0 l 1,18,-1
 290 0 l 1,19,-1
 299 56 l 1,20,21
 279 25 279 25 240 4.5 c 128,-1,22
 201 -16 201 -16 155 -16 c 0,23,24
 72 -16 72 -16 31 29 c 128,-1,25
 -10 74 -10 74 2 147 c 0,0,1
192 730 m 0,26,27
 202 788 202 788 249 830 c 0,28,29
 275 853 275 853 308 863 c 1,30,-1
 409 994 l 1,31,-1
 566 994 l 1,32,-1
 422 857 l 1,33,34
 440 847 440 847 454 829 c 0,35,36
 487 787 487 787 477 730 c 0,37,38
 467 670 467 670 419 630 c 128,-1,39
 371 590 371 590 312 590 c 0,40,41
 254 590 254 590 218 629.5 c 128,-1,42
 182 669 182 669 192 730 c 0,26,27
140 160 m 0,43,44
 136 136 136 136 151.5 119 c 128,-1,45
 167 102 167 102 195 102 c 0,46,47
 239 102 239 102 276.5 134.5 c 128,-1,48
 314 167 314 167 323 221 c 2,49,-1
 329 257 l 1,50,51
 278 244 278 244 247 240 c 0,52,53
 151 225 151 225 140 160 c 0,43,44
284 730 m 0,54,55
 280 708 280 708 292 693 c 128,-1,56
 304 678 304 678 326 678 c 0,57,58
 347 678 347 678 363.5 692 c 128,-1,59
 380 706 380 706 384 730 c 0,60,61
 388 753 388 753 377 768 c 128,-1,62
 366 783 366 783 344 783 c 0,63,64
 323 783 323 783 305.5 768 c 128,-1,65
 288 753 288 753 284 730 c 0,54,55
EndSplineSet
EndChar

StartChar: uni021C
Encoding: 540 540 478
Width: 561
GlyphClass: 2
Flags: W
LayerCount: 2
Fore
SplineSet
-30 -65 m 1,0,1
 41 -83 41 -83 129 -83 c 0,2,3
 212 -83 212 -83 271 -35 c 128,-1,4
 330 13 330 13 343 92 c 0,5,6
 358 180 358 180 325.5 220.5 c 128,-1,7
 293 261 293 261 239 261 c 0,8,9
 182 261 182 261 113 235 c 1,10,-1
 135 365 l 1,11,-1
 251 389 l 2,12,13
 309 399 309 399 350.5 432 c 128,-1,14
 392 465 392 465 401 519 c 0,15,16
 408 564 408 564 383.5 592.5 c 128,-1,17
 359 621 359 621 309 621 c 0,18,19
 269 621 269 621 241.5 602 c 128,-1,20
 214 583 214 583 187 543 c 1,21,-1
 81 599 l 1,22,23
 121 672 121 672 189.5 711.5 c 128,-1,24
 258 751 258 751 334 751 c 0,25,26
 458 751 458 751 516 692 c 128,-1,27
 574 633 574 633 558 537 c 0,28,29
 545 457 545 457 502 405.5 c 128,-1,30
 459 354 459 354 407 331 c 1,31,-1
 407 330 l 1,32,33
 458 309 458 309 484 245.5 c 128,-1,34
 510 182 510 182 495 89 c 0,35,36
 471 -56 471 -56 364 -135 c 128,-1,37
 257 -214 257 -214 109 -214 c 0,38,39
 42 -214 42 -214 -52 -197 c 1,40,-1
 -30 -65 l 1,0,1
EndSplineSet
EndChar

StartChar: uni021D
Encoding: 541 541 479
Width: 424
GlyphClass: 2
Flags: W
LayerCount: 2
Fore
SplineSet
-40 -79 m 1,0,1
 24 -93 24 -93 83 -93 c 0,2,3
 136 -93 136 -93 172.5 -62 c 128,-1,4
 209 -31 209 -31 219 28 c 0,5,6
 228 83 228 83 207.5 114 c 128,-1,7
 187 145 187 145 151 145 c 0,8,9
 121 145 121 145 66 128 c 1,10,-1
 86 249 l 1,11,-1
 173 267 l 2,12,13
 210 275 210 275 236 300 c 128,-1,14
 262 325 262 325 268 360 c 0,15,16
 274 394 274 394 262 414 c 128,-1,17
 250 434 250 434 227 434 c 0,18,19
 173 434 173 434 144 368 c 1,20,-1
 47 407 l 1,21,22
 68 470 68 470 122.5 513 c 128,-1,23
 177 556 177 556 255 556 c 0,24,25
 335 556 335 556 377.5 503.5 c 128,-1,26
 420 451 420 451 408 380 c 0,27,28
 390 269 390 269 295 214 c 1,29,30
 329 199 329 199 348.5 148 c 128,-1,31
 368 97 368 97 358 32 c 0,32,33
 338 -90 338 -90 261.5 -152.5 c 128,-1,34
 185 -215 185 -215 64 -215 c 0,35,36
 12 -215 12 -215 -61 -204 c 1,37,-1
 -40 -79 l 1,0,1
EndSplineSet
EndChar

StartChar: uni0220
Encoding: 544 544 482
Width: 667
GlyphClass: 2
Flags: W
LayerCount: 2
Fore
SplineSet
18 0 m 1,0,-1
 139 735 l 1,1,-1
 278 735 l 1,2,-1
 266 659 l 1,3,-1
 267 659 l 1,4,5
 363 751 363 751 473 751 c 0,6,7
 684 751 684 751 640 483 c 2,8,-1
 524 -212 l 1,9,-1
 377 -212 l 1,10,-1
 491 476 l 2,11,12
 515 623 515 623 414 623 c 0,13,14
 352 623 352 623 300.5 568.5 c 128,-1,15
 249 514 249 514 236 435 c 2,16,-1
 164 0 l 1,17,-1
 18 0 l 1,0,-1
EndSplineSet
EndChar

StartChar: uni0221
Encoding: 545 545 483
Width: 689
GlyphClass: 2
Flags: W
LayerCount: 2
Fore
SplineSet
447 -66 m 1,0,1
 451 -117 451 -117 496 -117 c 0,2,3
 515 -117 515 -117 526.5 -107 c 128,-1,4
 538 -97 538 -97 540 -83 c 0,5,6
 542 -70 542 -70 531.5 -58 c 128,-1,7
 521 -46 521 -46 501 -46 c 0,8,9
 471 -46 471 -46 447 -66 c 1,0,1
23 270 m 0,10,11
 45 404 45 404 119 480 c 128,-1,12
 193 556 193 556 290 556 c 0,13,14
 329 556 329 556 355.5 539.5 c 128,-1,15
 382 523 382 523 394 500 c 1,16,-1
 437 757 l 1,17,-1
 572 757 l 1,18,-1
 461 83 l 2,19,20
 455 45 455 45 455 41 c 1,21,22
 486 57 486 57 522 57 c 0,23,24
 585 57 585 57 619.5 17.5 c 128,-1,25
 654 -22 654 -22 644 -79 c 0,26,27
 633 -143 633 -143 589 -179 c 128,-1,28
 545 -215 545 -215 480 -215 c 0,29,30
 420 -215 420 -215 379 -172 c 1,31,32
 367 -188 367 -188 352 -220 c 1,33,-1
 249 -174 l 1,34,35
 295 -95 295 -95 318 -67 c 1,36,37
 314 -41 314 -41 319 36 c 1,38,-1
 322 52 l 1,39,40
 307 29 307 29 271.5 6.5 c 128,-1,41
 236 -16 236 -16 194 -16 c 256,42,43
 152 -16 152 -16 117.5 -0.5 c 128,-1,44
 83 15 83 15 56.5 48 c 128,-1,45
 30 81 30 81 20.5 138 c 128,-1,46
 11 195 11 195 23 270 c 0,10,11
161 270 m 0,47,48
 148 190 148 190 168 148 c 128,-1,49
 188 106 188 106 233 106 c 0,50,51
 279 106 279 106 312 149.5 c 128,-1,52
 345 193 345 193 358 270 c 0,53,54
 370 344 370 344 353 389 c 128,-1,55
 336 434 336 434 288 434 c 0,56,57
 240 434 240 434 207 390.5 c 128,-1,58
 174 347 174 347 161 270 c 0,47,48
EndSplineSet
EndChar

StartChar: uni0222
Encoding: 546 546 484
Width: 709
GlyphClass: 2
Flags: W
LayerCount: 2
Fore
SplineSet
24 248 m 0,0,1
 34 308 34 308 74.5 365.5 c 128,-1,2
 115 423 115 423 185 463 c 1,3,4
 145 491 145 491 124 529 c 128,-1,5
 103 567 103 567 114 634 c 0,6,7
 124 694 124 694 149 735 c 1,8,-1
 293 735 l 1,9,10
 278 704 278 704 268 643 c 0,11,12
 260 594 260 594 292.5 555 c 128,-1,13
 325 516 325 516 394 516 c 256,14,15
 463 516 463 516 507.5 555 c 128,-1,16
 552 594 552 594 560 643 c 0,17,18
 568 691 568 691 565 735 c 1,19,-1
 710 735 l 1,20,21
 721 694 721 694 711 634 c 0,22,23
 700 566 700 566 668 528.5 c 128,-1,24
 636 491 636 491 587 463 c 1,25,26
 643 424 643 424 663 366.5 c 128,-1,27
 683 309 683 309 673 248 c 0,28,29
 665 201 665 201 639.5 156 c 128,-1,30
 614 111 614 111 570 71.5 c 128,-1,31
 526 32 526 32 457.5 8 c 128,-1,32
 389 -16 389 -16 306 -16 c 256,33,34
 223 -16 223 -16 161 8 c 128,-1,35
 99 32 99 32 69 72 c 128,-1,36
 39 112 39 112 27.5 156.5 c 128,-1,37
 16 201 16 201 24 248 c 0,0,1
176 248 m 0,38,39
 165 184 165 184 207.5 147.5 c 128,-1,40
 250 111 250 111 327 111 c 0,41,42
 402 111 402 111 456 147.5 c 128,-1,43
 510 184 510 184 521 248 c 0,44,45
 531 311 531 311 488 349 c 128,-1,46
 445 387 445 387 372 387 c 256,47,48
 299 387 299 387 242.5 349 c 128,-1,49
 186 311 186 311 176 248 c 0,38,39
EndSplineSet
EndChar

StartChar: uni0223
Encoding: 547 547 485
Width: 524
GlyphClass: 2
Flags: W
LayerCount: 2
Fore
SplineSet
20 249 m 0,0,1
 32 322 32 322 67 377.5 c 128,-1,2
 102 433 102 433 154 461 c 1,3,4
 82 517 82 517 103 636 c 0,5,6
 111 687 111 687 136 738 c 1,7,-1
 269 738 l 1,8,9
 248 676 248 676 243 646 c 0,10,11
 221 516 221 516 301 516 c 0,12,13
 381 516 381 516 402 646 c 0,14,15
 406 673 406 673 406 738 c 1,16,-1
 538 738 l 1,17,18
 547 688 547 688 538 636 c 0,19,20
 518 514 518 514 431 461 c 1,21,22
 474 433 474 433 490 377.5 c 128,-1,23
 506 322 506 322 494 249 c 0,24,25
 488 212 488 212 475.5 176.5 c 128,-1,26
 463 141 463 141 439 105 c 128,-1,27
 415 69 415 69 385 43 c 128,-1,28
 355 17 355 17 310 0.5 c 128,-1,29
 265 -16 265 -16 213 -16 c 0,30,31
 149 -16 149 -16 104.5 8 c 128,-1,32
 60 32 60 32 41 73 c 128,-1,33
 22 114 22 114 17 158 c 128,-1,34
 12 202 12 202 20 249 c 0,0,1
159 249 m 0,35,36
 148 184 148 184 168 145 c 128,-1,37
 188 106 188 106 233 106 c 0,38,39
 279 106 279 106 312 145.5 c 128,-1,40
 345 185 345 185 356 249 c 0,41,42
 366 312 366 312 346 352 c 128,-1,43
 326 392 326 392 280 392 c 0,44,45
 235 392 235 392 202 352 c 128,-1,46
 169 312 169 312 159 249 c 0,35,36
EndSplineSet
EndChar

StartChar: uni0224
Encoding: 548 548 486
Width: 587
GlyphClass: 2
Flags: W
LayerCount: 2
Fore
SplineSet
-26 0 m 1,0,-1
 -8 108 l 1,1,-1
 428 607 l 1,2,-1
 104 607 l 1,3,-1
 125 735 l 1,4,-1
 632 735 l 1,5,-1
 613 625 l 1,6,-1
 177 127 l 1,7,-1
 418 127 l 2,8,9
 592 127 592 127 560 -73 c 0,10,11
 548 -145 548 -145 506 -212 c 1,12,-1
 375 -212 l 1,13,14
 416 -153 416 -153 426 -93 c 0,15,16
 432 -57 432 -57 417 -28.5 c 128,-1,17
 402 0 402 0 360 0 c 2,18,-1
 -26 0 l 1,0,-1
EndSplineSet
EndChar

StartChar: uni0225
Encoding: 549 549 487
Width: 461
GlyphClass: 2
Flags: W
LayerCount: 2
Fore
SplineSet
-29 0 m 1,0,-1
 -13 94 l 1,1,-1
 285 419 l 1,2,-1
 59 419 l 1,3,-1
 79 541 l 1,4,-1
 483 541 l 1,5,-1
 468 452 l 1,6,-1
 167 122 l 1,7,-1
 328 122 l 2,8,9
 494 122 494 122 462 -71 c 0,10,11
 446 -165 446 -165 419 -212 c 1,12,-1
 301 -212 l 1,13,14
 330 -168 330 -168 342 -98 c 0,15,16
 350 -51 350 -51 336 -25.5 c 128,-1,17
 322 0 322 0 277 0 c 2,18,-1
 -29 0 l 1,0,-1
EndSplineSet
EndChar

StartChar: uni0234
Encoding: 564 564 502
Width: 390
GlyphClass: 2
Flags: W
LayerCount: 2
Fore
SplineSet
148 -66 m 1,0,1
 148 -86 148 -86 160.5 -101.5 c 128,-1,2
 173 -117 173 -117 194 -117 c 0,3,4
 214 -117 214 -117 226.5 -107 c 128,-1,5
 239 -97 239 -97 242 -83 c 256,6,7
 244 -69 244 -69 232.5 -57.5 c 128,-1,8
 221 -46 221 -46 202 -46 c 0,9,10
 174 -46 174 -46 148 -66 c 1,0,1
-49 -174 m 1,11,12
 2 -90 2 -90 19 -67 c 1,13,14
 9 -19 9 -19 21 48 c 2,15,-1
 138 757 l 1,16,-1
 272 757 l 1,17,-1
 161 83 l 2,18,19
 156 55 156 55 155 40 c 1,20,21
 190 57 190 57 223 57 c 0,22,23
 287 57 287 57 320.5 17.5 c 128,-1,24
 354 -22 354 -22 345 -79 c 0,25,26
 334 -143 334 -143 289.5 -179 c 128,-1,27
 245 -215 245 -215 180 -215 c 0,28,29
 120 -215 120 -215 78 -172 c 1,30,31
 65 -191 65 -191 51 -220 c 1,32,-1
 -49 -174 l 1,11,12
EndSplineSet
EndChar

StartChar: uni0235
Encoding: 565 565 503
Width: 676
GlyphClass: 2
Flags: W
LayerCount: 2
Fore
SplineSet
433 -66 m 1,0,1
 434 -88 434 -88 447 -102.5 c 128,-1,2
 460 -117 460 -117 481 -117 c 0,3,4
 499 -117 499 -117 512 -107 c 128,-1,5
 525 -97 525 -97 527 -82 c 0,6,7
 529 -69 529 -69 518.5 -57.5 c 128,-1,8
 508 -46 508 -46 487 -46 c 0,9,10
 460 -46 460 -46 433 -66 c 1,0,1
4 0 m 1,11,-1
 93 540 l 1,12,-1
 222 540 l 1,13,-1
 213 487 l 1,14,-1
 214 487 l 1,15,16
 268 556 268 556 355 556 c 0,17,18
 524 556 524 556 490 346 c 2,19,-1
 445 76 l 2,20,21
 443 68 443 68 441 59 c 256,22,23
 440 50 440 50 439 41 c 1,24,25
 472 57 472 57 509 57 c 0,26,27
 571 57 571 57 605.5 17.5 c 128,-1,28
 640 -22 640 -22 630 -79 c 0,29,30
 619 -143 619 -143 574 -179 c 128,-1,31
 529 -215 529 -215 464 -215 c 0,32,33
 406 -215 406 -215 365 -171 c 1,34,35
 339 -218 339 -218 338 -220 c 2,36,-1
 235 -174 l 1,37,38
 260 -124 260 -124 306 -67 c 1,39,40
 295 -19 295 -19 306 49 c 2,41,-1
 352 329 l 2,42,43
 360 379 360 379 351.5 406.5 c 128,-1,44
 343 434 343 434 306 434 c 0,45,46
 263 434 263 434 230.5 398 c 128,-1,47
 198 362 198 362 189 307 c 2,48,-1
 138 0 l 1,49,-1
 4 0 l 1,11,-1
EndSplineSet
EndChar

StartChar: uni0236
Encoding: 566 566 504
Width: 424
GlyphClass: 2
Flags: W
LayerCount: 2
Fore
SplineSet
175 -66 m 1,0,1
 174 -83 174 -83 187 -100 c 128,-1,2
 200 -117 200 -117 221 -117 c 0,3,4
 241 -117 241 -117 253.5 -107 c 128,-1,5
 266 -97 266 -97 269 -83 c 0,6,7
 271 -71 271 -71 260.5 -58.5 c 128,-1,8
 250 -46 250 -46 230 -46 c 0,9,10
 201 -46 201 -46 175 -66 c 1,0,1
36 419 m 1,11,-1
 56 540 l 1,12,-1
 129 540 l 1,13,-1
 155 694 l 1,14,-1
 288 694 l 1,15,-1
 263 540 l 1,16,-1
 369 540 l 1,17,-1
 349 419 l 1,18,-1
 243 419 l 1,19,-1
 180 41 l 1,20,21
 214 57 214 57 249 57 c 0,22,23
 313 57 313 57 346.5 17.5 c 128,-1,24
 380 -22 380 -22 371 -79 c 0,25,26
 360 -143 360 -143 316 -179 c 128,-1,27
 272 -215 272 -215 207 -215 c 0,28,29
 147 -215 147 -215 105 -172 c 1,30,31
 89 -193 89 -193 78 -220 c 1,32,-1
 -22 -174 l 1,33,34
 23 -98 23 -98 47 -67 c 1,35,36
 37 -21 37 -21 48 49 c 2,37,-1
 109 419 l 1,38,-1
 36 419 l 1,11,-1
EndSplineSet
EndChar

StartChar: uni0237
Encoding: 567 567 505
Width: 255
GlyphClass: 2
Flags: W
LayerCount: 2
Fore
SplineSet
-72 -81 m 1,0,-1
 -56 -81 l 2,1,2
 -25 -81 -25 -81 -7 -59 c 128,-1,3
 11 -37 11 -37 19 13 c 2,4,-1
 107 540 l 1,5,-1
 243 540 l 1,6,-1
 155 7 l 2,7,8
 138 -98 138 -98 84 -151.5 c 128,-1,9
 30 -205 30 -205 -55 -205 c 2,10,-1
 -93 -205 l 1,11,-1
 -72 -81 l 1,0,-1
EndSplineSet
EndChar

StartChar: uni0238
Encoding: 568 568 506
Width: 850
GlyphClass: 3
Flags: W
LayerCount: 2
Fore
SplineSet
23 270 m 0,0,1
 45 405 45 405 120 480.5 c 128,-1,2
 195 556 195 556 289 556 c 0,3,4
 328 556 328 556 355 539 c 128,-1,5
 382 522 382 522 394 500 c 1,6,-1
 437 757 l 1,7,-1
 571 757 l 1,8,-1
 529 503 l 1,9,10
 587 556 587 556 653 556 c 0,11,12
 748 556 748 556 797.5 480.5 c 128,-1,13
 847 405 847 405 824 270 c 0,14,15
 811 193 811 193 782 135 c 128,-1,16
 753 77 753 77 715 45.5 c 128,-1,17
 677 14 677 14 637.5 -1 c 128,-1,18
 598 -16 598 -16 560 -16 c 0,19,20
 517 -16 517 -16 490.5 4 c 128,-1,21
 464 24 464 24 454 51 c 1,22,-1
 446 0 l 1,23,-1
 311 0 l 1,24,-1
 320 52 l 1,25,26
 300 24 300 24 264.5 4 c 128,-1,27
 229 -16 229 -16 193 -16 c 0,28,29
 153 -16 153 -16 120 -1.5 c 128,-1,30
 87 13 87 13 59 44.5 c 128,-1,31
 31 76 31 76 20.5 134.5 c 128,-1,32
 10 193 10 193 23 270 c 0,0,1
161 270 m 0,33,34
 147 188 147 188 167.5 147 c 128,-1,35
 188 106 188 106 233 106 c 0,36,37
 280 106 280 106 312.5 148.5 c 128,-1,38
 345 191 345 191 357 264 c 2,39,-1
 357 267 l 2,40,41
 370 343 370 343 353 388.5 c 128,-1,42
 336 434 336 434 287 434 c 0,43,44
 240 434 240 434 207 391.5 c 128,-1,45
 174 349 174 349 161 270 c 0,33,34
487 263 m 2,46,47
 475 193 475 193 496 149.5 c 128,-1,48
 517 106 517 106 560 106 c 256,49,50
 604 106 604 106 638.5 147.5 c 128,-1,51
 673 189 673 189 686 270 c 0,52,53
 699 346 699 346 679.5 390 c 128,-1,54
 660 434 660 434 615 434 c 0,55,56
 567 434 567 434 533.5 387.5 c 128,-1,57
 500 341 500 341 488 267 c 2,58,-1
 487 263 l 2,46,47
EndSplineSet
EndChar

StartChar: uni0239
Encoding: 569 569 507
Width: 851
GlyphClass: 3
Flags: W
LayerCount: 2
Fore
SplineSet
23 270 m 0,0,1
 45 404 45 404 119 480 c 128,-1,2
 193 556 193 556 289 556 c 0,3,4
 360 556 360 556 393 495 c 1,5,-1
 401 540 l 1,6,-1
 535 540 l 1,7,-1
 528 497 l 1,8,9
 583 556 583 556 653 556 c 0,10,11
 749 556 749 556 797.5 479.5 c 128,-1,12
 846 403 846 403 824 270 c 0,13,14
 811 194 811 194 782.5 136.5 c 128,-1,15
 754 79 754 79 716.5 47 c 128,-1,16
 679 15 679 15 639.5 -0.5 c 128,-1,17
 600 -16 600 -16 560 -16 c 0,18,19
 481 -16 481 -16 454 50 c 1,20,-1
 411 -212 l 1,21,-1
 276 -212 l 1,22,-1
 320 50 l 1,23,24
 300 24 300 24 265.5 4 c 128,-1,25
 231 -16 231 -16 191 -16 c 0,26,27
 151 -16 151 -16 117 -1 c 128,-1,28
 83 14 83 14 56 46.5 c 128,-1,29
 29 79 29 79 19.5 136.5 c 128,-1,30
 10 194 10 194 23 270 c 0,0,1
160 270 m 0,31,32
 147 191 147 191 167 148.5 c 128,-1,33
 187 106 187 106 230 106 c 0,34,35
 279 106 279 106 312 148.5 c 128,-1,36
 345 191 345 191 358 270 c 2,37,-1
 359 276 l 2,38,39
 371 346 371 346 351.5 390 c 128,-1,40
 332 434 332 434 284 434 c 0,41,42
 238 434 238 434 205 389.5 c 128,-1,43
 172 345 172 345 160 270 c 0,31,32
488 273 m 2,44,45
 475 196 475 196 495.5 151 c 128,-1,46
 516 106 516 106 560 106 c 0,47,48
 604 106 604 106 638.5 148 c 128,-1,49
 673 190 673 190 686 270 c 0,50,51
 699 346 699 346 680 390 c 128,-1,52
 661 434 661 434 615 434 c 0,53,54
 571 434 571 434 535.5 389.5 c 128,-1,55
 500 345 500 345 489 277 c 2,56,-1
 488 273 l 2,44,45
EndSplineSet
EndChar

StartChar: uni023A
Encoding: 570 570 508
Width: 657
GlyphClass: 2
Flags: W
LayerCount: 2
Fore
SplineSet
237 284 m 1,0,-1
 248 284 l 1,1,-1
 396 468 l 1,2,3
 394 484 394 484 391 508 c 0,4,5
 384 561 384 561 381 590 c 1,6,-1
 376 590 l 1,7,8
 358 548 358 548 310 440 c 2,9,-1
 237 284 l 1,0,-1
347 284 m 1,10,-1
 419 284 l 1,11,-1
 409 362 l 1,12,-1
 347 284 l 1,10,-1
-51 0 m 1,13,-1
 326 735 l 1,14,-1
 482 735 l 1,15,-1
 505 605 l 1,16,-1
 652 788 l 1,17,-1
 749 788 l 1,18,-1
 523 505 l 1,19,-1
 614 0 l 1,20,-1
 460 0 l 1,21,-1
 436 164 l 1,22,-1
 251 164 l 1,23,-1
 42 -98 l 1,24,-1
 -58 -98 l 1,25,-1
 21 0 l 1,26,-1
 -51 0 l 1,13,-1
EndSplineSet
EndChar

StartChar: uni023B
Encoding: 571 571 509
Width: 654
GlyphClass: 2
Flags: W
LayerCount: 2
Fore
SplineSet
43 368 m 0,0,1
 71 537 71 537 177.5 644 c 128,-1,2
 284 751 284 751 432 751 c 0,3,4
 476 751 476 751 521 738 c 1,5,-1
 545 786 l 1,6,-1
 651 786 l 1,7,-1
 600 688 l 1,8,9
 622 669 622 669 642 633 c 128,-1,10
 662 597 662 597 668 564 c 1,11,-1
 536 522 l 1,12,13
 534 528 534 528 524 547 c 1,14,-1
 296 115 l 1,15,16
 313 111 313 111 326 111 c 0,17,18
 381 111 381 111 428 148 c 128,-1,19
 475 185 475 185 499 231 c 1,20,-1
 624 188 l 1,21,22
 605 156 605 156 580.5 126 c 128,-1,23
 556 96 556 96 516 61 c 128,-1,24
 476 26 476 26 421.5 5 c 128,-1,25
 367 -16 367 -16 305 -16 c 0,26,27
 265 -16 265 -16 232 -8 c 1,28,-1
 211 -51 l 1,29,-1
 103 -51 l 1,30,-1
 146 30 l 1,31,32
 78 80 78 80 51 166.5 c 128,-1,33
 24 253 24 253 43 368 c 0,0,1
219 167 m 1,34,-1
 456 616 l 1,35,36
 436 623 436 623 411 623 c 0,37,38
 326 623 326 623 269 550 c 128,-1,39
 212 477 212 477 194 368 c 0,40,41
 173 237 173 237 219 167 c 1,34,-1
EndSplineSet
EndChar

StartChar: uni023C
Encoding: 572 572 510
Width: 492
GlyphClass: 2
Flags: W
LayerCount: 2
Fore
SplineSet
23 270 m 0,0,1
 44 395 44 395 121.5 475.5 c 128,-1,2
 199 556 199 556 313 556 c 0,3,4
 340 556 340 556 367 549 c 1,5,-1
 395 605 l 1,6,-1
 489 605 l 1,7,-1
 437 504 l 1,8,9
 456 487 456 487 470 452.5 c 128,-1,10
 484 418 484 418 485 385 c 1,11,-1
 374 354 l 1,12,13
 370 367 370 367 367 373 c 1,14,-1
 228 107 l 2,15,16
 230 106 230 106 237 106 c 0,17,18
 305 106 305 106 350 195 c 1,19,-1
 460 162 l 1,20,21
 451 136 451 136 430 106.5 c 128,-1,22
 409 77 409 77 378.5 49 c 128,-1,23
 348 21 348 21 304.5 2.5 c 128,-1,24
 261 -16 261 -16 215 -16 c 0,25,26
 189 -16 189 -16 166 -12 c 1,27,-1
 145 -53 l 1,28,-1
 51 -53 l 1,29,-1
 91 22 l 1,30,31
 41 61 41 61 26 129 c 128,-1,32
 11 197 11 197 23 270 c 0,0,1
166 165 m 1,33,-1
 305 432 l 1,34,35
 295 433 295 433 291 433 c 0,36,37
 242 433 242 433 208 386.5 c 128,-1,38
 174 340 174 340 162 270 c 0,39,40
 153 213 153 213 166 165 c 1,33,-1
EndSplineSet
EndChar

StartChar: uni023D
Encoding: 573 573 511
Width: 541
GlyphClass: 2
Flags: W
LayerCount: 2
Fore
SplineSet
10 352 m 1,0,-1
 30 470 l 1,1,-1
 100 470 l 1,2,-1
 144 735 l 1,3,-1
 290 735 l 1,4,-1
 246 470 l 1,5,-1
 415 470 l 1,6,-1
 396 352 l 1,7,-1
 227 352 l 1,8,-1
 190 127 l 1,9,-1
 506 127 l 1,10,-1
 485 0 l 1,11,-1
 23 0 l 1,12,-1
 81 352 l 1,13,-1
 10 352 l 1,0,-1
EndSplineSet
EndChar

StartChar: uni023E
Encoding: 574 574 512
Width: 565
GlyphClass: 2
Flags: W
LayerCount: 2
Fore
SplineSet
409 607 m 1,0,-1
 396 533 l 1,1,-1
 449 607 l 1,2,-1
 409 607 l 1,0,-1
62 607 m 1,3,-1
 83 735 l 1,4,-1
 540 735 l 1,5,-1
 575 786 l 1,6,-1
 670 786 l 1,7,-1
 628 726 l 1,8,-1
 609 607 l 1,9,-1
 544 607 l 1,10,-1
 367 356 l 1,11,-1
 308 0 l 1,12,-1
 162 0 l 1,13,-1
 176 86 l 1,14,-1
 78 -54 l 1,15,-1
 -18 -54 l 1,16,-1
 206 263 l 1,17,-1
 263 607 l 1,18,-1
 62 607 l 1,3,-1
EndSplineSet
EndChar

StartChar: uni023F
Encoding: 575 575 513
Width: 459
GlyphClass: 2
Flags: W
LayerCount: 2
Fore
SplineSet
-11 117 m 1,0,-1
 92 176 l 1,1,2
 130 99 130 99 210 99 c 0,3,4
 237 99 237 99 260 113 c 128,-1,5
 283 127 283 127 287 148 c 0,6,7
 289 163 289 163 283 175 c 128,-1,8
 277 187 277 187 261.5 196.5 c 128,-1,9
 246 206 246 206 231.5 211.5 c 128,-1,10
 217 217 217 217 193 226 c 128,-1,11
 169 235 169 235 156 241 c 0,12,13
 101 264 101 264 74 297.5 c 128,-1,14
 47 331 47 331 57 394 c 0,15,16
 69 469 69 469 137 512.5 c 128,-1,17
 205 556 205 556 281 556 c 0,18,19
 353 556 353 556 402.5 520.5 c 128,-1,20
 452 485 452 485 472 428 c 1,21,-1
 374 372 l 1,22,23
 352 407 352 407 328 424.5 c 128,-1,24
 304 442 304 442 261 442 c 0,25,26
 235 442 235 442 216.5 428 c 128,-1,27
 198 414 198 414 194 391 c 0,28,29
 191 372 191 372 209.5 354.5 c 128,-1,30
 228 337 228 337 257 328 c 128,-1,31
 286 319 286 319 307.5 310.5 c 128,-1,32
 329 302 329 302 355 286 c 128,-1,33
 381 270 381 270 396.5 252 c 128,-1,34
 412 234 412 234 420.5 207 c 128,-1,35
 429 180 429 180 424 148 c 0,36,37
 412 75 412 75 349 29.5 c 128,-1,38
 286 -16 286 -16 189 -16 c 0,39,40
 157 -16 157 -16 121 -5 c 1,41,42
 122 -11 122 -11 124.5 -28.5 c 128,-1,43
 127 -46 127 -46 128.5 -51.5 c 128,-1,44
 130 -57 130 -57 134 -70.5 c 128,-1,45
 138 -84 138 -84 143.5 -89 c 128,-1,46
 149 -94 149 -94 158 -101.5 c 128,-1,47
 167 -109 167 -109 180 -111.5 c 128,-1,48
 193 -114 193 -114 210 -114 c 0,49,50
 251 -114 251 -114 276 -108 c 1,51,-1
 259 -208 l 1,52,53
 218 -215 218 -215 186 -215 c 0,54,55
 144 -215 144 -215 113.5 -201.5 c 128,-1,56
 83 -188 83 -188 65.5 -169 c 128,-1,57
 48 -150 48 -150 37.5 -120.5 c 128,-1,58
 27 -91 27 -91 24 -68 c 128,-1,59
 21 -45 21 -45 20 -14 c 0,60,61
 17 71 17 71 -11 117 c 1,0,-1
EndSplineSet
EndChar

StartChar: uni0240
Encoding: 576 576 514
Width: 469
GlyphClass: 2
Flags: W
LayerCount: 2
Fore
SplineSet
-29 0 m 1,0,-1
 -13 94 l 1,1,-1
 285 419 l 1,2,-1
 59 419 l 1,3,-1
 79 540 l 1,4,-1
 483 540 l 1,5,-1
 469 451 l 1,6,-1
 140 93 l 1,7,8
 166 83 166 83 186.5 60 c 128,-1,9
 207 37 207 37 220.5 12 c 128,-1,10
 234 -13 234 -13 248 -37.5 c 128,-1,11
 262 -62 262 -62 281.5 -77.5 c 128,-1,12
 301 -93 301 -93 326 -93 c 0,13,14
 372 -93 372 -93 393 -88 c 1,15,-1
 373 -207 l 1,16,17
 344 -215 344 -215 299 -215 c 0,18,19
 254 -215 254 -215 222 -194.5 c 128,-1,20
 190 -174 190 -174 171.5 -144.5 c 128,-1,21
 153 -115 153 -115 136.5 -84 c 128,-1,22
 120 -53 120 -53 96.5 -28.5 c 128,-1,23
 73 -4 73 -4 42 0 c 1,24,-1
 -29 0 l 1,0,-1
EndSplineSet
EndChar

StartChar: uni0241
Encoding: 577 577 515
Width: 581
GlyphClass: 2
Flags: W
LayerCount: 2
Fore
SplineSet
94 558 m 1,0,1
 127 642 127 642 202 696.5 c 128,-1,2
 277 751 277 751 374 751 c 0,3,4
 473 751 473 751 529 692 c 128,-1,5
 585 633 585 633 570 538 c 0,6,7
 563 494 563 494 540 457.5 c 128,-1,8
 517 421 517 421 489 396.5 c 128,-1,9
 461 372 461 372 433.5 348.5 c 128,-1,10
 406 325 406 325 384.5 296 c 128,-1,11
 363 267 363 267 357 232 c 2,12,-1
 319 0 l 1,13,-1
 173 0 l 1,14,-1
 213 245 l 2,15,16
 220 287 220 287 242 322.5 c 128,-1,17
 264 358 264 358 291.5 382.5 c 128,-1,18
 319 407 319 407 345.5 430 c 128,-1,19
 372 453 372 453 393.5 482 c 128,-1,20
 415 511 415 511 420 543 c 0,21,22
 426 579 426 579 407 601.5 c 128,-1,23
 388 624 388 624 355 624 c 0,24,25
 315 624 315 624 279.5 596.5 c 128,-1,26
 244 569 244 569 219 518 c 1,27,-1
 94 558 l 1,0,1
EndSplineSet
EndChar

StartChar: uni0250
Encoding: 592 592 516
Width: 511
GlyphClass: 2
Flags: W
LayerCount: 2
Fore
SplineSet
180 284 m 1,0,1
 219 293 219 293 261 301 c 0,2,3
 309 310 309 310 335 328 c 128,-1,4
 361 346 361 346 367 380 c 0,5,6
 371 406 371 406 356.5 422 c 128,-1,7
 342 438 342 438 314 438 c 0,8,9
 270 438 270 438 232.5 405.5 c 128,-1,10
 195 373 195 373 187 328 c 2,11,-1
 180 284 l 1,0,1
32 211 m 2,12,-1
 86 540 l 1,13,-1
 218 540 l 1,14,-1
 209 486 l 1,15,16
 228 512 228 512 266.5 534 c 128,-1,17
 305 556 305 556 353 556 c 0,18,19
 436 556 436 556 477.5 511 c 128,-1,20
 519 466 519 466 507 393 c 0,21,22
 494 314 494 314 426 266 c 128,-1,23
 358 218 358 218 249 204 c 0,24,25
 202 197 202 197 164 188 c 1,26,-1
 159 155 l 2,27,28
 154 127 154 127 174.5 111 c 128,-1,29
 195 95 195 95 227 95 c 0,30,31
 304 95 304 95 375 162 c 1,32,-1
 443 89 l 1,33,34
 394 38 394 38 333 11 c 128,-1,35
 272 -16 272 -16 209 -16 c 0,36,37
 93 -16 93 -16 53.5 42.5 c 128,-1,38
 14 101 14 101 32 211 c 2,12,-1
EndSplineSet
EndChar

StartChar: uni0251
Encoding: 593 593 517
Width: 540
GlyphClass: 2
Flags: W
LayerCount: 2
Fore
SplineSet
161 270 m 0,0,1
 147 188 147 188 167.5 147 c 128,-1,2
 188 106 188 106 231 106 c 0,3,4
 267 106 267 106 302.5 144.5 c 128,-1,5
 338 183 338 183 352 270 c 0,6,7
 364 344 364 344 348 389 c 128,-1,8
 332 434 332 434 284 434 c 0,9,10
 238 434 238 434 206 390.5 c 128,-1,11
 174 347 174 347 161 270 c 0,0,1
23 270 m 0,12,13
 45 404 45 404 117.5 480 c 128,-1,14
 190 556 190 556 287 556 c 0,15,16
 354 556 354 556 390 501 c 1,17,-1
 396 540 l 1,18,-1
 531 540 l 1,19,-1
 441 0 l 1,20,-1
 310 0 l 1,21,-1
 318 54 l 1,22,23
 298 25 298 25 263 4.5 c 128,-1,24
 228 -16 228 -16 191 -16 c 0,25,26
 150 -16 150 -16 116 -0.5 c 128,-1,27
 82 15 82 15 55.5 48 c 128,-1,28
 29 81 29 81 20 138 c 128,-1,29
 11 195 11 195 23 270 c 0,12,13
EndSplineSet
EndChar

StartChar: uni0252
Encoding: 594 594 518
Width: 540
GlyphClass: 2
Flags: W
LayerCount: 2
Fore
SplineSet
7 0 m 1,0,-1
 96 540 l 1,1,-1
 230 540 l 1,2,-1
 223 502 l 1,3,4
 282 556 282 556 347 556 c 0,5,6
 443 556 443 556 489.5 479.5 c 128,-1,7
 536 403 536 403 514 270 c 0,8,9
 501 194 501 194 472 136 c 128,-1,10
 443 78 443 78 406 46 c 128,-1,11
 369 14 369 14 330.5 -1 c 128,-1,12
 292 -16 292 -16 254 -16 c 0,13,14
 212 -16 212 -16 184.5 5.5 c 128,-1,15
 157 27 157 27 147 53 c 1,16,-1
 138 0 l 1,17,-1
 7 0 l 1,0,-1
184 270 m 0,18,19
 171 193 171 193 190 149.5 c 128,-1,20
 209 106 209 106 253 106 c 256,21,22
 297 106 297 106 329.5 148 c 128,-1,23
 362 190 362 190 375 270 c 0,24,25
 388 348 388 348 370.5 391 c 128,-1,26
 353 434 353 434 306 434 c 0,27,28
 259 434 259 434 227.5 389 c 128,-1,29
 196 344 196 344 184 270 c 0,18,19
EndSplineSet
EndChar

StartChar: uni0253
Encoding: 595 595 519
Width: 547
GlyphClass: 2
Flags: W
LayerCount: 2
Fore
SplineSet
185 272 m 0,0,1
 172 194 172 194 191.5 150 c 128,-1,2
 211 106 211 106 257 106 c 0,3,4
 303 106 303 106 335.5 148 c 128,-1,5
 368 190 368 190 382 271 c 0,6,7
 394 345 394 345 375.5 389.5 c 128,-1,8
 357 434 357 434 312 434 c 0,9,10
 265 434 265 434 231 390 c 128,-1,11
 197 346 197 346 185 272 c 0,0,1
8 0 m 1,12,-1
 110 617 l 2,13,14
 124 699 124 699 181 742.5 c 128,-1,15
 238 786 238 786 314 786 c 0,16,17
 342 786 342 786 403 781 c 1,18,-1
 382 653 l 1,19,20
 321 659 321 659 318 659 c 0,21,22
 290 659 290 659 267.5 641 c 128,-1,23
 245 623 245 623 240 590 c 2,24,-1
 225 502 l 1,25,26
 284 556 284 556 352 556 c 0,27,28
 446 556 446 556 495 480 c 128,-1,29
 544 404 544 404 522 271 c 0,30,31
 510 197 510 197 481 139.5 c 128,-1,32
 452 82 452 82 414 49 c 128,-1,33
 376 16 376 16 336.5 0 c 128,-1,34
 297 -16 297 -16 258 -16 c 0,35,36
 216 -16 216 -16 188.5 5 c 128,-1,37
 161 26 161 26 147 53 c 1,38,-1
 138 0 l 1,39,-1
 8 0 l 1,12,-1
EndSplineSet
EndChar

StartChar: uni0254
Encoding: 596 596 520
Width: 492
GlyphClass: 2
Flags: W
LayerCount: 2
Fore
SplineSet
-7 162 m 1,0,-1
 114 195 l 1,1,2
 116 160 116 160 137 133 c 128,-1,3
 158 106 158 106 196 106 c 0,4,5
 241 106 241 106 277.5 148 c 128,-1,6
 314 190 314 190 328 269 c 0,7,8
 340 340 340 340 321 387 c 128,-1,9
 302 434 302 434 250 434 c 0,10,11
 217 434 217 434 192 409.5 c 128,-1,12
 167 385 167 385 153 352 c 1,13,-1
 44 385 l 1,14,15
 67 450 67 450 129 503 c 128,-1,16
 191 556 191 556 273 556 c 0,17,18
 379 556 379 556 434 479 c 128,-1,19
 489 402 489 402 467 269 c 0,20,21
 445 139 445 139 365 61.5 c 128,-1,22
 285 -16 285 -16 178 -16 c 0,23,24
 98 -16 98 -16 47.5 38 c 128,-1,25
 -3 92 -3 92 -7 162 c 1,0,-1
EndSplineSet
EndChar

StartChar: uni0255
Encoding: 597 597 521
Width: 493
GlyphClass: 2
Flags: W
LayerCount: 2
Fore
SplineSet
230 97 m 1,0,1
 250 79 250 79 276 79 c 256,2,3
 303 79 303 79 319.5 89 c 128,-1,4
 336 99 336 99 339 114 c 0,5,6
 341 128 341 128 330.5 136.5 c 128,-1,7
 320 145 320 145 303 145 c 0,8,9
 263 145 263 145 230 97 c 1,0,1
25 280 m 0,10,11
 44 396 44 396 121 476 c 128,-1,12
 198 556 198 556 312 556 c 0,13,14
 355 556 355 556 389.5 539 c 128,-1,15
 424 522 424 522 443.5 495 c 128,-1,16
 463 468 463 468 472.5 440 c 128,-1,17
 482 412 482 412 483 385 c 1,18,-1
 364 351 l 1,19,20
 356 434 356 434 292 434 c 0,21,22
 243 434 243 434 208.5 387 c 128,-1,23
 174 340 174 340 162 270 c 0,24,25
 152 210 152 210 165 164 c 1,26,27
 192 196 192 196 235 219 c 128,-1,28
 278 242 278 242 324 242 c 0,29,30
 383 242 383 242 418 208.5 c 128,-1,31
 453 175 453 175 443 116 c 0,32,33
 432 52 432 52 383.5 18 c 128,-1,34
 335 -16 335 -16 258 -16 c 0,35,36
 210 -16 210 -16 173 -8 c 1,37,38
 156 -42 156 -42 151 -64 c 1,39,-1
 40 -37 l 1,40,41
 54 4 54 4 75 39 c 1,42,43
 -1 121 -1 121 25 280 c 0,10,11
EndSplineSet
EndChar

StartChar: uni0256
Encoding: 598 598 522
Width: 546
GlyphClass: 2
Flags: W
LayerCount: 2
Fore
SplineSet
23 270 m 0,0,1
 46 406 46 406 120.5 481 c 128,-1,2
 195 556 195 556 290 556 c 0,3,4
 361 556 361 556 394 501 c 1,5,-1
 437 757 l 1,6,-1
 572 757 l 1,7,-1
 442 -26 l 2,8,9
 432 -89 432 -89 487 -89 c 0,10,11
 519 -89 519 -89 563 -81 c 1,12,-1
 542 -206 l 1,13,14
 469 -215 469 -215 439 -215 c 0,15,16
 371 -215 371 -215 332 -173 c 128,-1,17
 293 -131 293 -131 308 -35 c 2,18,-1
 323 52 l 1,19,20
 303 24 303 24 267.5 4 c 128,-1,21
 232 -16 232 -16 194 -16 c 0,22,23
 152 -16 152 -16 117.5 -0.5 c 128,-1,24
 83 15 83 15 56.5 48 c 128,-1,25
 30 81 30 81 20.5 138 c 128,-1,26
 11 195 11 195 23 270 c 0,0,1
161 270 m 256,27,28
 148 192 148 192 167 149 c 128,-1,29
 186 106 186 106 234 106 c 0,30,31
 280 106 280 106 313 150.5 c 128,-1,32
 346 195 346 195 358 270 c 0,33,34
 370 344 370 344 353 389 c 128,-1,35
 336 434 336 434 288 434 c 0,36,37
 241 434 241 434 207.5 391 c 128,-1,38
 174 348 174 348 161 270 c 256,27,28
EndSplineSet
EndChar

StartChar: uni0257
Encoding: 599 599 523
Width: 546
GlyphClass: 2
Flags: W
LayerCount: 2
Fore
SplineSet
23 271 m 0,0,1
 45 404 45 404 119 480 c 128,-1,2
 193 556 193 556 290 556 c 0,3,4
 363 556 363 556 394 501 c 1,5,-1
 412 608 l 2,6,7
 426 694 426 694 484.5 740 c 128,-1,8
 543 786 543 786 620 786 c 0,9,10
 649 786 649 786 714 781 c 1,11,-1
 693 654 l 1,12,13
 669 658 669 658 624 658 c 0,14,15
 595 658 595 658 572 636.5 c 128,-1,16
 549 615 549 615 543 580 c 2,17,-1
 447 0 l 1,18,-1
 316 0 l 1,19,-1
 325 54 l 1,20,21
 306 26 306 26 270 5 c 128,-1,22
 234 -16 234 -16 193 -16 c 0,23,24
 152 -16 152 -16 117.5 0 c 128,-1,25
 83 16 83 16 56.5 48.5 c 128,-1,26
 30 81 30 81 20.5 138.5 c 128,-1,27
 11 196 11 196 23 271 c 0,0,1
162 271 m 0,28,29
 149 190 149 190 168 148 c 128,-1,30
 187 106 187 106 234 106 c 0,31,32
 278 106 278 106 311.5 149.5 c 128,-1,33
 345 193 345 193 358 271 c 0,34,35
 370 345 370 345 353 389.5 c 128,-1,36
 336 434 336 434 287 434 c 0,37,38
 239 434 239 434 206.5 390 c 128,-1,39
 174 346 174 346 162 271 c 0,28,29
EndSplineSet
EndChar

StartChar: uni0258
Encoding: 600 600 524
Width: 526
GlyphClass: 2
Flags: W
LayerCount: 2
Fore
SplineSet
17 220 m 1,0,1
 18 246 18 246 23 272 c 0,2,3
 44 399 44 399 125.5 477.5 c 128,-1,4
 207 556 207 556 307 556 c 0,5,6
 410 556 410 556 466 480 c 128,-1,7
 522 404 522 404 500 272 c 256,8,9
 478 140 478 140 396 62 c 128,-1,10
 314 -16 314 -16 206 -16 c 0,11,12
 120 -16 120 -16 70.5 25.5 c 128,-1,13
 21 67 21 67 5 127 c 1,14,-1
 124 170 l 1,15,16
 133 138 133 138 158 118 c 128,-1,17
 183 98 183 98 221 98 c 0,18,19
 273 98 273 98 309.5 133.5 c 128,-1,20
 346 169 346 169 355 220 c 1,21,-1
 17 220 l 1,0,1
167 318 m 1,22,-1
 370 318 l 1,23,24
 377 369 377 369 356.5 406.5 c 128,-1,25
 336 444 336 444 288 444 c 256,26,27
 240 444 240 444 208 407 c 128,-1,28
 176 370 176 370 167 318 c 1,22,-1
EndSplineSet
EndChar

StartChar: uni025A
Encoding: 602 602 526
Width: 628
GlyphClass: 2
Flags: W
LayerCount: 2
Fore
SplineSet
18 231 m 1,0,-1
 369 380 l 1,1,2
 347 442 347 442 285 442 c 0,3,4
 210 442 210 442 158 371 c 1,5,-1
 52 413 l 1,6,7
 89 474 89 474 152.5 515 c 128,-1,8
 216 556 216 556 305 556 c 0,9,10
 371 556 371 556 419.5 523.5 c 128,-1,11
 468 491 468 491 489 436 c 1,12,-1
 573 473 l 1,13,14
 576 436 576 436 594 412.5 c 128,-1,15
 612 389 612 389 636 389 c 0,16,17
 667 389 667 389 685 396 c 1,18,-1
 666 283 l 1,19,20
 635 273 635 273 605 273 c 256,21,22
 575 273 575 273 552.5 287.5 c 128,-1,23
 530 302 530 302 522 325 c 1,24,-1
 507 319 l 1,25,26
 506 293 506 293 501 268 c 0,27,28
 480 141 480 141 400.5 62.5 c 128,-1,29
 321 -16 321 -16 213 -16 c 0,30,31
 157 -16 157 -16 114.5 8.5 c 128,-1,32
 72 33 72 33 51.5 71 c 128,-1,33
 31 109 31 109 22 150.5 c 128,-1,34
 13 192 13 192 18 231 c 1,0,-1
152 171 m 1,35,36
 154 136 154 136 177 116 c 128,-1,37
 200 96 200 96 232 96 c 0,38,39
 265 96 265 96 292.5 117 c 128,-1,40
 320 138 320 138 337 173 c 0,41,42
 356 208 356 208 363 254 c 0,43,44
 363 257 363 257 364 260 c 1,45,-1
 152 171 l 1,35,36
EndSplineSet
EndChar

StartChar: uni025B
Encoding: 603 603 527
Width: 483
GlyphClass: 2
Flags: W
LayerCount: 2
Fore
SplineSet
5 161 m 0,0,1
 12 204 12 204 37.5 235.5 c 128,-1,2
 63 267 63 267 96 284 c 1,3,-1
 97 285 l 1,4,5
 51 331 51 331 62 397 c 0,6,7
 74 468 74 468 138 512 c 128,-1,8
 202 556 202 556 293 556 c 0,9,10
 437 556 437 556 483 414 c 1,11,-1
 364 367 l 1,12,13
 353 396 353 396 328.5 415 c 128,-1,14
 304 434 304 434 274 434 c 0,15,16
 206 434 206 434 197 385 c 0,17,18
 193 362 193 362 211 346 c 128,-1,19
 229 330 229 330 263 330 c 2,20,-1
 332 330 l 1,21,-1
 314 223 l 1,22,-1
 246 223 l 2,23,24
 199 223 199 223 173.5 205.5 c 128,-1,25
 148 188 148 188 143 162 c 0,26,27
 138 133 138 133 164 119.5 c 128,-1,28
 190 106 190 106 222 106 c 0,29,30
 257 106 257 106 290 124 c 128,-1,31
 323 142 323 142 344 169 c 1,32,-1
 442 120 l 1,33,34
 407 60 407 60 343 22 c 128,-1,35
 279 -16 279 -16 201 -16 c 0,36,37
 104 -16 104 -16 47.5 31 c 128,-1,38
 -9 78 -9 78 5 161 c 0,0,1
EndSplineSet
EndChar

StartChar: uni025C
Encoding: 604 604 528
Width: 483
GlyphClass: 2
Flags: W
LayerCount: 2
Fore
SplineSet
-14 120 m 1,0,-1
 101 169 l 1,1,2
 113 142 113 142 140 124 c 128,-1,3
 167 106 167 106 203 106 c 0,4,5
 233 106 233 106 263.5 119.5 c 128,-1,6
 294 133 294 133 299 162 c 0,7,8
 303 188 303 188 284.5 205.5 c 128,-1,9
 266 223 266 223 218 223 c 2,10,-1
 150 223 l 1,11,-1
 168 330 l 1,12,-1
 236 330 l 2,13,14
 269 330 269 330 292 346 c 128,-1,15
 315 362 315 362 319 385 c 0,16,17
 327 434 327 434 259 434 c 0,18,19
 228 434 228 434 197 415 c 128,-1,20
 166 396 166 396 146 367 c 1,21,-1
 42 414 l 1,22,23
 136 556 136 556 280 556 c 0,24,25
 371 556 371 556 420.5 512 c 128,-1,26
 470 468 470 468 458 397 c 0,27,28
 447 330 447 330 386 285 c 1,29,-1
 387 284 l 1,30,31
 414 267 414 267 429 235.5 c 128,-1,32
 444 204 444 204 437 161 c 0,33,34
 423 78 423 78 351 31 c 128,-1,35
 279 -16 279 -16 184 -16 c 0,36,37
 105 -16 105 -16 53.5 22 c 128,-1,38
 2 60 2 60 -14 120 c 1,0,-1
EndSplineSet
EndChar

StartChar: uni025D
Encoding: 605 605 529
Width: 588
GlyphClass: 2
Flags: W
LayerCount: 2
Fore
SplineSet
-14 120 m 1,0,-1
 101 169 l 1,1,2
 111 144 111 144 138.5 125 c 128,-1,3
 166 106 166 106 204 106 c 256,4,5
 242 106 242 106 268.5 121.5 c 128,-1,6
 295 137 295 137 300 164 c 0,7,8
 304 190 304 190 283.5 206.5 c 128,-1,9
 263 223 263 223 217 223 c 2,10,-1
 150 223 l 1,11,-1
 168 330 l 1,12,-1
 235 330 l 2,13,14
 269 330 269 330 292 346 c 128,-1,15
 315 362 315 362 319 385 c 0,16,17
 327 434 327 434 260 434 c 0,18,19
 197 434 197 434 146 367 c 1,20,-1
 42 414 l 1,21,22
 62 442 62 442 82 464 c 128,-1,23
 102 486 102 486 131.5 508.5 c 128,-1,24
 161 531 161 531 198.5 543.5 c 128,-1,25
 236 556 236 556 281 556 c 0,26,27
 396 556 396 556 442 490 c 1,28,-1
 523 537 l 1,29,30
 527 500 527 500 547 474.5 c 128,-1,31
 567 449 567 449 591 449 c 0,32,33
 620 449 620 449 639 457 c 1,34,-1
 621 343 l 1,35,36
 590 333 590 333 560 333 c 0,37,38
 530 333 530 333 505 348 c 128,-1,39
 480 363 480 363 473 385 c 1,40,-1
 453 374 l 2,41,42
 452 372 452 372 449 363.5 c 128,-1,43
 446 355 446 355 445 352 c 0,44,45
 425 311 425 311 387 285 c 1,46,-1
 387 284 l 1,47,48
 413 267 413 267 429 236.5 c 128,-1,49
 445 206 445 206 438 163 c 0,50,51
 424 80 424 80 352.5 32 c 128,-1,52
 281 -16 281 -16 183 -16 c 0,53,54
 103 -16 103 -16 52 22.5 c 128,-1,55
 1 61 1 61 -14 120 c 1,0,-1
EndSplineSet
EndChar

StartChar: uni025E
Encoding: 606 606 530
Width: 522
GlyphClass: 2
Flags: W
LayerCount: 2
Fore
SplineSet
23 270 m 0,0,1
 30 315 30 315 45 355 c 128,-1,2
 60 395 60 395 84.5 432 c 128,-1,3
 109 469 109 469 142.5 496.5 c 128,-1,4
 176 524 176 524 223.5 540 c 128,-1,5
 271 556 271 556 326 556 c 0,6,7
 406 556 406 556 460 516.5 c 128,-1,8
 514 477 514 477 501 398 c 0,9,10
 489 327 489 327 436 287 c 1,11,12
 453 275 453 275 463 262.5 c 128,-1,13
 473 250 473 250 480 224 c 128,-1,14
 487 198 487 198 481 164 c 0,15,16
 474 124 474 124 456 92.5 c 128,-1,17
 438 61 438 61 413.5 41 c 128,-1,18
 389 21 389 21 357 8 c 128,-1,19
 325 -5 325 -5 294 -10.5 c 128,-1,20
 263 -16 263 -16 231 -16 c 0,21,22
 160 -16 160 -16 112.5 7.5 c 128,-1,23
 65 31 65 31 44 72.5 c 128,-1,24
 23 114 23 114 18 163 c 128,-1,25
 13 212 13 212 23 270 c 0,0,1
162 270 m 0,26,27
 147 179 147 179 175 142.5 c 128,-1,28
 203 106 203 106 253 106 c 0,29,30
 333 106 333 106 342 164 c 0,31,32
 346 188 346 188 326 205.5 c 128,-1,33
 306 223 306 223 268 223 c 2,34,-1
 231 223 l 1,35,-1
 249 335 l 1,36,-1
 287 335 l 2,37,38
 316 335 316 335 336.5 349.5 c 128,-1,39
 357 364 357 364 361 388 c 256,40,41
 365 412 365 412 349.5 423.5 c 128,-1,42
 334 435 334 435 307 435 c 0,43,44
 261 435 261 435 219 396.5 c 128,-1,45
 177 358 177 358 162 270 c 0,26,27
EndSplineSet
EndChar

StartChar: uni025F
Encoding: 607 607 531
Width: 259
GlyphClass: 2
Flags: W
LayerCount: 2
Fore
SplineSet
-28 238 m 1,0,-1
 -8 355 l 1,1,-1
 77 355 l 1,2,-1
 108 540 l 1,3,-1
 243 540 l 1,4,-1
 213 355 l 1,5,-1
 294 355 l 1,6,-1
 275 238 l 1,7,-1
 193 238 l 1,8,-1
 155 7 l 2,9,10
 138 -98 138 -98 84 -151.5 c 128,-1,11
 30 -205 30 -205 -55 -205 c 2,12,-1
 -91 -205 l 1,13,-1
 -71 -81 l 1,14,-1
 -56 -81 l 2,15,16
 -24 -81 -24 -81 -6 -59 c 128,-1,17
 12 -37 12 -37 21 13 c 2,18,-1
 58 238 l 1,19,-1
 -28 238 l 1,0,-1
EndSplineSet
EndChar

StartChar: uni0260
Encoding: 608 608 532
Width: 553
GlyphClass: 2
Flags: W
LayerCount: 2
Fore
SplineSet
28 281 m 0,0,1
 49 407 49 407 122 481.5 c 128,-1,2
 195 556 195 556 288 556 c 0,3,4
 358 556 358 556 385 494 c 1,5,-1
 404 608 l 2,6,7
 418 695 418 695 477 740.5 c 128,-1,8
 536 786 536 786 614 786 c 0,9,10
 648 786 648 786 712 781 c 1,11,-1
 691 654 l 1,12,13
 660 659 660 659 619 659 c 0,14,15
 591 659 591 659 566 637 c 128,-1,16
 541 615 541 615 535 581 c 2,17,-1
 453 82 l 2,18,19
 429 -65 429 -65 360.5 -140 c 128,-1,20
 292 -215 292 -215 166 -215 c 0,21,22
 38 -215 38 -215 -21 -108 c 1,23,-1
 78 -41 l 1,24,25
 115 -101 115 -101 186 -101 c 0,26,27
 231 -101 231 -101 264 -67.5 c 128,-1,28
 297 -34 297 -34 307 21 c 2,29,-1
 315 57 l 1,30,31
 296 34 296 34 263 20 c 128,-1,32
 230 6 230 6 201 6 c 0,33,34
 105 6 105 6 56 80 c 128,-1,35
 7 154 7 154 28 281 c 0,0,1
167 282 m 0,36,37
 154 203 154 203 174 165.5 c 128,-1,38
 194 128 194 128 234 128 c 0,39,40
 277 128 277 128 307.5 167.5 c 128,-1,41
 338 207 338 207 350 282 c 0,42,43
 362 352 362 352 344.5 393 c 128,-1,44
 327 434 327 434 284 434 c 0,45,46
 242 434 242 434 211 396 c 128,-1,47
 180 358 180 358 167 282 c 0,36,37
EndSplineSet
EndChar

StartChar: uni0262
Encoding: 610 610 534
Width: 514
GlyphClass: 2
Flags: W
LayerCount: 2
Fore
SplineSet
23 267 m 0,0,1
 45 399 45 399 122 477.5 c 128,-1,2
 199 556 199 556 313 556 c 0,3,4
 457 556 457 556 495 408 c 1,5,-1
 376 360 l 1,6,7
 368 389 368 389 347.5 411.5 c 128,-1,8
 327 434 327 434 293 434 c 0,9,10
 244 434 244 434 209 390.5 c 128,-1,11
 174 347 174 347 161 267 c 0,12,13
 148 191 148 191 170 149 c 128,-1,14
 192 107 192 107 240 107 c 0,15,16
 306 107 306 107 335 183 c 1,17,-1
 340 206 l 1,18,-1
 238 206 l 1,19,-1
 256 314 l 1,20,-1
 485 314 l 1,21,-1
 433 0 l 1,22,-1
 331 0 l 1,23,-1
 334 33 l 1,24,25
 315 13 315 13 280.5 -1.5 c 128,-1,26
 246 -16 246 -16 212 -16 c 0,27,28
 111 -16 111 -16 55.5 57.5 c 128,-1,29
 0 131 0 131 23 267 c 0,0,1
EndSplineSet
EndChar

StartChar: uni0263
Encoding: 611 611 535
Width: 506
GlyphClass: 2
Flags: W
LayerCount: 2
Fore
SplineSet
50 540 m 1,0,-1
 196 540 l 1,1,-1
 225 122 l 1,2,-1
 226 122 l 1,3,-1
 244 162 l 1,4,-1
 394 540 l 1,5,-1
 542 540 l 1,6,-1
 309 63 l 1,7,8
 333 41 333 41 344.5 7 c 128,-1,9
 356 -27 356 -27 350 -62 c 0,10,11
 339 -129 339 -129 289.5 -172 c 128,-1,12
 240 -215 240 -215 171 -215 c 0,13,14
 104 -215 104 -215 66.5 -173 c 128,-1,15
 29 -131 29 -131 40 -62 c 0,16,17
 52 8 52 8 122 61 c 1,18,-1
 50 540 l 1,0,-1
152 -61 m 0,19,20
 148 -83 148 -83 158 -99 c 128,-1,21
 168 -115 168 -115 187 -115 c 0,22,23
 208 -115 208 -115 223 -99 c 128,-1,24
 238 -83 238 -83 242 -61 c 0,25,26
 245 -43 245 -43 236 -20.5 c 128,-1,27
 227 2 227 2 209 15 c 1,28,29
 186 2 186 2 170.5 -19.5 c 128,-1,30
 155 -41 155 -41 152 -61 c 0,19,20
EndSplineSet
Substitution2: "'sups' Superscript lookup 5 subtable" uni02E0
Substitution2: "'aalt' Access All Alternates lookup 0 subtable" uni02E0
EndChar

StartChar: uni0264
Encoding: 612 612 536
Width: 464
GlyphClass: 2
Flags: W
LayerCount: 2
Fore
SplineSet
235 295 m 1,0,1
 178 231 178 231 169 177 c 0,2,3
 164 147 164 147 172.5 126.5 c 128,-1,4
 181 106 181 106 204 106 c 0,5,6
 225 106 225 106 240 126.5 c 128,-1,7
 255 147 255 147 260 177 c 0,8,9
 270 236 270 236 235 295 c 1,0,1
30 424 m 1,10,-1
 49 544 l 1,11,12
 98 556 98 556 130 556 c 0,13,14
 210 556 210 556 268 496 c 1,15,16
 339 556 339 556 429 556 c 0,17,18
 462 556 462 556 502 545 c 1,19,-1
 482 423 l 1,20,21
 449 433 449 433 410 433 c 0,22,23
 376 433 376 433 335 402 c 1,24,25
 360 355 360 355 371 330.5 c 128,-1,26
 382 306 382 306 389.5 263.5 c 128,-1,27
 397 221 397 221 389 175 c 0,28,29
 375 90 375 90 321 37 c 128,-1,30
 267 -16 267 -16 183 -16 c 0,31,32
 97 -16 97 -16 63 38 c 128,-1,33
 29 92 29 92 42 175 c 0,34,35
 52 238 52 238 86 291.5 c 128,-1,36
 120 345 120 345 172 402 c 1,37,38
 138 433 138 433 103 433 c 0,39,40
 91 433 91 433 30 424 c 1,10,-1
EndSplineSet
EndChar

StartChar: uni0265
Encoding: 613 613 537
Width: 526
GlyphClass: 2
Flags: W
LayerCount: 2
Fore
SplineSet
29 194 m 2,0,-1
 86 540 l 1,1,-1
 221 540 l 1,2,-1
 167 209 l 2,3,4
 150 106 150 106 216 106 c 0,5,6
 255 106 255 106 288.5 146 c 128,-1,7
 322 186 322 186 331 237 c 2,8,-1
 381 540 l 1,9,-1
 515 540 l 1,10,-1
 391 -212 l 1,11,-1
 257 -212 l 1,12,-1
 297 35 l 1,13,-1
 296 35 l 1,14,15
 244 -16 244 -16 168 -16 c 0,16,17
 137 -16 137 -16 110.5 -6 c 128,-1,18
 84 4 84 4 61 26 c 128,-1,19
 38 48 38 48 28.5 91 c 128,-1,20
 19 134 19 134 29 194 c 2,0,-1
EndSplineSet
EndChar

StartChar: uni0266
Encoding: 614 614 538
Width: 526
GlyphClass: 2
Flags: W
LayerCount: 2
Fore
SplineSet
9 0 m 1,0,-1
 109 610 l 2,1,2
 123 695 123 695 181.5 740.5 c 128,-1,3
 240 786 240 786 316 786 c 0,4,5
 361 786 361 786 412 782 c 1,6,-1
 391 655 l 1,7,8
 354 659 354 659 321 659 c 0,9,10
 292 659 292 659 268 639 c 128,-1,11
 244 619 244 619 239 583 c 2,12,-1
 226 505 l 1,13,-1
 227 505 l 1,14,15
 288 556 288 556 353 556 c 0,16,17
 386 556 386 556 414 546 c 128,-1,18
 442 536 442 536 464 512.5 c 128,-1,19
 486 489 486 489 494 447 c 128,-1,20
 502 405 502 405 492 346 c 2,21,-1
 435 0 l 1,22,-1
 301 0 l 1,23,-1
 355 330 l 2,24,25
 372 434 372 434 309 434 c 0,26,27
 267 434 267 434 234 395 c 128,-1,28
 201 356 201 356 192 303 c 2,29,-1
 142 0 l 1,30,-1
 9 0 l 1,0,-1
EndSplineSet
Substitution2: "'sups' Superscript lookup 5 subtable" uni02B1
Substitution2: "'aalt' Access All Alternates lookup 0 subtable" uni02B1
EndChar

StartChar: uni0267
Encoding: 615 615 539
Width: 527
GlyphClass: 2
Flags: W
LayerCount: 2
Fore
SplineSet
9 0 m 1,0,-1
 109 610 l 2,1,2
 123 695 123 695 181.5 740.5 c 128,-1,3
 240 786 240 786 316 786 c 0,4,5
 361 786 361 786 412 782 c 1,6,-1
 391 655 l 1,7,8
 368 659 368 659 321 659 c 0,9,10
 293 659 293 659 268.5 638 c 128,-1,11
 244 617 244 617 238 582 c 2,12,-1
 226 505 l 1,13,-1
 227 505 l 1,14,15
 288 556 288 556 353 556 c 0,16,17
 385 556 385 556 411.5 547 c 128,-1,18
 438 538 438 538 461.5 516 c 128,-1,19
 485 494 485 494 493.5 450.5 c 128,-1,20
 502 407 502 407 492 346 c 2,21,-1
 434 -7 l 2,22,23
 416 -115 416 -115 362.5 -164.5 c 128,-1,24
 309 -214 309 -214 217 -214 c 0,25,26
 178 -214 178 -214 124 -207 c 1,27,-1
 144 -85 l 1,28,29
 182 -92 182 -92 210 -92 c 0,30,31
 251 -92 251 -92 271.5 -73 c 128,-1,32
 292 -54 292 -54 301 2 c 2,33,-1
 355 330 l 2,34,35
 372 434 372 434 309 434 c 0,36,37
 267 434 267 434 234 395 c 128,-1,38
 201 356 201 356 192 303 c 2,39,-1
 142 0 l 1,40,-1
 9 0 l 1,0,-1
EndSplineSet
EndChar

StartChar: uni0268
Encoding: 616 616 540
Width: 253
GlyphClass: 2
Flags: W
LayerCount: 2
Fore
SplineSet
110 597 m 1,0,-1
 135 745 l 1,1,-1
 271 745 l 1,2,-1
 247 597 l 1,3,-1
 110 597 l 1,0,-1
-19 239 m 1,4,-1
 0 357 l 1,5,-1
 72 357 l 1,6,-1
 103 540 l 1,7,-1
 236 540 l 1,8,-1
 206 357 l 1,9,-1
 277 357 l 1,10,-1
 258 239 l 1,11,-1
 186 239 l 1,12,-1
 147 0 l 1,13,-1
 13 0 l 1,14,-1
 53 239 l 1,15,-1
 -19 239 l 1,4,-1
EndSplineSet
EndChar

StartChar: uni0269
Encoding: 617 617 541
Width: 318
GlyphClass: 2
Flags: W
LayerCount: 2
Fore
SplineSet
25 168 m 2,0,-1
 87 540 l 1,1,-1
 221 540 l 1,2,-1
 161 176 l 2,3,4
 150 111 150 111 208 111 c 0,5,6
 247 111 247 111 282 118 c 1,7,-1
 261 -6 l 1,8,9
 185 -16 185 -16 158 -16 c 0,10,11
 126 -16 126 -16 100 -7 c 128,-1,12
 74 2 74 2 53.5 21.5 c 128,-1,13
 33 41 33 41 24.5 78.5 c 128,-1,14
 16 116 16 116 25 168 c 2,0,-1
EndSplineSet
EndChar

StartChar: uni026B
Encoding: 619 619 543
Width: 257
GlyphClass: 2
Flags: W
LayerCount: 2
Fore
SplineSet
-15 323 m 1,0,-1
 5 447 l 1,1,2
 10 448 10 448 20 451 c 128,-1,3
 30 454 30 454 36.5 456 c 128,-1,4
 43 458 43 458 53.5 459.5 c 128,-1,5
 64 461 64 461 74 461 c 2,6,-1
 92 461 l 1,7,-1
 141 757 l 1,8,-1
 275 757 l 1,9,-1
 222 435 l 1,10,11
 237 435 237 435 264 441 c 0,12,13
 299 447 299 447 308 450 c 1,14,-1
 288 326 l 1,15,16
 267 321 267 321 247 319 c 0,17,18
 226 315 226 315 202 315 c 1,19,-1
 150 0 l 1,20,-1
 16 0 l 1,21,-1
 72 338 l 1,22,23
 70 337 70 337 53 337 c 0,24,25
 32 337 32 337 -15 323 c 1,0,-1
EndSplineSet
EndChar

StartChar: uni026C
Encoding: 620 620 544
Width: 436
GlyphClass: 2
Flags: W
LayerCount: 2
Fore
SplineSet
48 414 m 0,0,1
 57 468 57 468 97.5 506.5 c 128,-1,2
 138 545 138 545 196 545 c 0,3,4
 230 545 230 545 261 528 c 1,5,-1
 299 757 l 1,6,-1
 435 757 l 1,7,-1
 372 376 l 1,8,-1
 468 376 l 1,9,-1
 448 261 l 1,10,-1
 353 261 l 1,11,-1
 309 0 l 1,12,-1
 174 0 l 1,13,-1
 217 261 l 1,14,-1
 202 261 l 2,15,16
 124 261 124 261 80.5 303 c 128,-1,17
 37 345 37 345 48 414 c 0,0,1
155 414 m 0,18,19
 152 397 152 397 163.5 386.5 c 128,-1,20
 175 376 175 376 195 376 c 2,21,-1
 237 376 l 1,22,-1
 239 393 l 2,23,24
 239 412 239 412 227.5 427.5 c 128,-1,25
 216 443 216 443 196 443 c 0,26,27
 160 443 160 443 155 414 c 0,18,19
EndSplineSet
EndChar

StartChar: uni026D
Encoding: 621 621 545
Width: 332
GlyphClass: 2
Flags: W
LayerCount: 2
Fore
SplineSet
7 -31 m 2,0,-1
 137 757 l 1,1,-1
 271 757 l 1,2,-1
 142 -22 l 2,3,4
 131 -89 131 -89 188 -89 c 0,5,6
 219 -89 219 -89 263 -81 c 1,7,-1
 243 -206 l 1,8,9
 167 -215 167 -215 138 -215 c 0,10,11
 106 -215 106 -215 80.5 -206 c 128,-1,12
 55 -197 55 -197 34 -177.5 c 128,-1,13
 13 -158 13 -158 5.5 -120.5 c 128,-1,14
 -2 -83 -2 -83 7 -31 c 2,0,-1
EndSplineSet
EndChar

StartChar: uni026E
Encoding: 622 622 546
Width: 693
GlyphClass: 3
Flags: W
LayerCount: 2
Fore
SplineSet
119 -49 m 1,0,-1
 246 -12 l 1,1,2
 267 -93 267 -93 344 -93 c 0,3,4
 395 -93 395 -93 433 -56.5 c 128,-1,5
 471 -20 471 -20 480 37 c 0,6,7
 489 93 489 93 460 133.5 c 128,-1,8
 431 174 431 174 370 174 c 2,9,-1
 277 174 l 1,10,-1
 293 270 l 1,11,-1
 446 419 l 1,12,-1
 215 419 l 1,13,-1
 146 0 l 1,14,-1
 11 0 l 1,15,-1
 137 757 l 1,16,-1
 271 757 l 1,17,-1
 235 540 l 1,18,-1
 667 540 l 1,19,-1
 653 453 l 1,20,-1
 462 278 l 1,21,22
 545 267 545 267 589.5 197 c 128,-1,23
 634 127 634 127 619 37 c 0,24,25
 601 -73 601 -73 519 -144 c 128,-1,26
 437 -215 437 -215 329 -215 c 0,27,28
 145 -215 145 -215 119 -49 c 1,0,-1
EndSplineSet
EndChar

